SplineFontDB: 3.0
FontName: KAN-BadamiNormal
FullName: KAN Badami Normal
FamilyName: KAN Badami
Weight: Book
Copyright: Copyright (c) 2009-2015, NLCI (http://www.nlci.in/fonts/)
Version: 1.0 Sat Apr 29 14:43:46 1995
ItalicAngle: 0
UnderlinePosition: -593.92
UnderlineWidth: 40.96
Ascent: 1638
Descent: 410
InvalidEm: 0
LayerCount: 2
Layer: 0 0 "Back" 1
Layer: 1 0 "Fore" 0
XUID: [1021 182 1145523420 2649352]
FSType: 0
OS2Version: 0
OS2_WeightWidthSlopeOnly: 0
OS2_UseTypoMetrics: 1
CreationTime: 1250503974
ModificationTime: 1522367367
PfmFamily: 81
TTFWeight: 400
TTFWidth: 5
LineGap: 0
VLineGap: 0
Panose: 5 0 0 0 0 0 0 0 0 0
OS2TypoAscent: -147
OS2TypoAOffset: 1
OS2TypoDescent: -401
OS2TypoDOffset: 1
OS2TypoLinegap: 0
OS2WinAscent: -242
OS2WinAOffset: 1
OS2WinDescent: -319
OS2WinDOffset: 1
HheadAscent: -242
HheadAOffset: 1
HheadDescent: 319
HheadDOffset: 1
OS2SubXSize: 1434
OS2SubYSize: 1331
OS2SubXOff: 0
OS2SubYOff: 293
OS2SupXSize: 1434
OS2SupYSize: 1331
OS2SupXOff: 0
OS2SupYOff: 928
OS2StrikeYSize: 102
OS2StrikeYPos: 530
OS2Vendor: 'Alts'
OS2UnicodeRanges: 00000000.00000000.00000000.00000000
Lookup: 262 0 0 "blwm" { "blwm-2sub"  } []
MarkAttachClasses: 1
DEI: 91125
TtTable: prep
NPUSHB
 1
 1
SCANTYPE
PUSHW_1
 511
SCANCTRL
EndTTInstrs
ShortTable: maxp 16
  1
  0
  319
  151
  6
  193
  8
  2
  8
  64
  10
  0
  3
  557
  4
  2
EndShort
LangName: 1033 "" "" "Normal" "NLCI:KAN Badami Normal" "" "1.0 Sat Apr 29 14:43:46 1995"
Encoding: Original
UnicodeInterp: none
NameList: Adobe Glyph List
DisplaySize: -48
AntiAlias: 1
FitToEm: 1
BeginPrivate: 0
EndPrivate
AnchorClass2: "Sub" "blwm-2sub" "Nukta"""  "s"""  "V""" 
BeginChars: 615 615

StartChar: .notdef
Encoding: 0 -1 0
Width: 1024
Flags: HW
HStem: 0 63<127 897> 1221 63<127 897>
VStem: 63 63<63 1221> 897 63<63 1221>
LayerCount: 2
Fore
SplineSet
63 0 m 1
 63 1284 l 1
 961 1284 l 1
 961 0 l 1
 63 0 l 1
897 63 m 1
 897 1221 l 1
 127 1221 l 1
 127 63 l 1
 897 63 l 1
EndSplineSet
EndChar

StartChar: exclam
Encoding: 4 33 4
Width: 582
VWidth: 1024
Flags: HW
LayerCount: 2
Fore
SplineSet
343 397 m 0
 330.333007812 387.666992188 317.333007812 380.166992188 304 374.5 c 0
 290.666992188 368.833007812 275.666992188 363.333007812 259 358 c 0
 230 379 l 0
 173 1388 l 0
 186.333007812 1396 201.166992188 1404.5 217.5 1413.5 c 0
 233.833007812 1422.5 250.333007812 1431.16699219 267 1439.5 c 0
 283.666992188 1447.83300781 299.833007812 1455.5 315.5 1462.5 c 0
 331.166992188 1469.5 345 1475.33300781 357 1480 c 0
 402 1453 l 0
 343 397 l 0
419 126 m 0
 419 102 415 79.8330078125 407 59.5 c 0
 399 39.1669921875 388.166992188 21.6669921875 374.5 7 c 0
 360.833007812 -7.6669921875 344.666992188 -19.1669921875 326 -27.5 c 0
 307.333007812 -35.8330078125 287.333007812 -40 266 -40 c 0
 228.666992188 -40 200.166992188 -30 180.5 -10 c 0
 160.833007812 10 151 40 151 80 c 0
 151 104 155.166992188 126 163.5 146 c 0
 171.833007812 166 183 183.5 197 198.5 c 0
 211 213.5 227.333007812 225.166992188 246 233.5 c 0
 264.666992188 241.833007812 284.333007812 246 305 246 c 0
 339 246 366.5 236 387.5 216 c 0
 408.5 196 419 166 419 126 c 0
EndSplineSet
EndChar

StartChar: quotedbl
Encoding: 5 34 5
Width: 900
VWidth: 1024
Flags: HW
LayerCount: 2
Fore
SplineSet
695 834 m 0
 689.666992188 831.333007812 682.666992188 828.666992188 674 826 c 0
 665.333007812 823.333007812 656 821 646 819 c 0
 636 817 626 815.5 616 814.5 c 0
 606 813.5 597 813 589 813 c 0
 526 1416 l 0
 533.333007812 1420 545.333007812 1425.33300781 562 1432 c 0
 578.666992188 1438.66699219 596.166992188 1445.33300781 614.5 1452 c 0
 632.833007812 1458.66699219 650.333007812 1464.66699219 667 1470 c 0
 683.666992188 1475.33300781 695.666992188 1478.66699219 703 1480 c 0
 748 1457 l 0
 695 834 l 0
322 834 m 0
 316.666992188 831.333007812 309.666992188 828.666992188 301 826 c 0
 292.333007812 823.333007812 283 821 273 819 c 0
 263 817 253 815.5 243 814.5 c 0
 233 813.5 224 813 216 813 c 0
 153 1416 l 0
 160.333007812 1420 172.333007812 1425.33300781 189 1432 c 0
 205.666992188 1438.66699219 223.166992188 1445.33300781 241.5 1452 c 0
 259.833007812 1458.66699219 277.166992188 1464.66699219 293.5 1470 c 0
 309.833007812 1475.33300781 321.666992188 1478.66699219 329 1480 c 0
 375 1457 l 0
 322 834 l 0
EndSplineSet
EndChar

StartChar: numbersign
Encoding: 6 35 6
Width: 986
VWidth: 1024
Flags: HW
LayerCount: 2
Fore
SplineSet
414 595 m 0
 597 595 l 0
 668 841 l 0
 484 841 l 0
 414 595 l 0
825 966 m 0
 977 966 l 0
 1002 941 l 0
 1000.66699219 933.666992188 998.5 925.333007812 995.5 916 c 0
 992.5 906.666992188 989.166992188 897.333007812 985.5 888 c 0
 981.833007812 878.666992188 978.333007812 869.833007812 975 861.5 c 0
 971.666992188 853.166992188 968.666992188 846.333007812 966 841 c 0
 789 841 l 0
 719 595 l 0
 871 595 l 0
 893 568 l 0
 891.666992188 561.333007812 889.666992188 553.666992188 887 545 c 0
 884.333007812 536.333007812 881.333007812 527.333007812 878 518 c 0
 874.666992188 508.666992188 871.5 499.833007812 868.5 491.5 c 0
 865.5 483.166992188 862.666992188 476 860 470 c 0
 683 470 l 0
 598 170 l 0
 586 160.666992188 570.333007812 152.666992188 551 146 c 0
 531.666992188 139.333007812 513.333007812 133 496 127 c 0
 470 147 l 0
 562 470 l 0
 378 470 l 0
 292 170 l 0
 280 160.666992188 264.666992188 152.666992188 246 146 c 0
 227.333007812 139.333007812 209.333007812 133 192 127 c 0
 166 147 l 0
 258 470 l 0
 104 470 l 0
 82 495 l 0
 83.3330078125 501.666992188 85.3330078125 509.333007812 88 518 c 0
 90.6669921875 526.666992188 93.6669921875 535.333007812 97 544 c 0
 107 571 l 0
 110.333007812 580.333007812 113.666992188 588.333007812 117 595 c 0
 293 595 l 0
 364 841 l 0
 213 841 l 0
 188 865 l 0
 191.333007812 879.666992188 196.833007812 896.833007812 204.5 916.5 c 0
 212.166992188 936.166992188 218.666992188 952.666992188 224 966 c 0
 399 966 l 0
 481 1251 l 0
 495.666992188 1261.66699219 512 1269.66699219 530 1275 c 0
 548 1280.33300781 564.333007812 1286 579 1292 c 0
 608 1270 l 0
 520 966 l 0
 703 966 l 0
 785 1251 l 0
 799.666992188 1261.66699219 816.166992188 1269.66699219 834.5 1275 c 0
 852.833007812 1280.33300781 869.666992188 1286 885 1292 c 0
 912 1270 l 0
 825 966 l 0
EndSplineSet
EndChar

StartChar: dollar
Encoding: 7 36 7
Width: 986
VWidth: 1024
Flags: HW
LayerCount: 2
Fore
SplineSet
540 -138 m 0
 528 -148.666992188 517.333007812 -156.333007812 508 -161 c 0
 498.666992188 -165.666992188 485.666992188 -170 469 -174 c 0
 440 -150 l 0
 440 -10 l 0
 378.666992188 -8.6669921875 320.833007812 0.8330078125 266.5 18.5 c 0
 212.166992188 36.1669921875 155.666992188 63.6669921875 97 101 c 0
 92.3330078125 104.333007812 89 116.333007812 87 137 c 0
 85 157.666992188 84.1669921875 181.666992188 84.5 209 c 0
 84.8330078125 236.333007812 86.1669921875 264.166992188 88.5 292.5 c 0
 90.8330078125 320.833007812 94.6669921875 344.333007812 100 363 c 0
 153 359 l 0
 185 290.333007812 225.166992188 236.333007812 273.5 197 c 0
 321.833007812 157.666992188 377.333007812 133.333007812 440 124 c 0
 440 585 l 0
 398 600.333007812 356.166992188 616.5 314.5 633.5 c 0
 272.833007812 650.5 235.666992188 671 203 695 c 0
 170.333007812 719 143.833007812 748.166992188 123.5 782.5 c 0
 103.166992188 816.833007812 93 859 93 909 c 0
 93 937.666992188 98.6669921875 968.166992188 110 1000.5 c 0
 121.333007812 1032.83300781 140.5 1063.33300781 167.5 1092 c 0
 194.5 1120.66699219 230.166992188 1145.83300781 274.5 1167.5 c 0
 318.833007812 1189.16699219 374 1203.33300781 440 1210 c 0
 440 1351 l 0
 449.333007812 1356.33300781 456.5 1360.66699219 461.5 1364 c 0
 466.5 1367.33300781 471 1370 475 1372 c 0
 479 1374 483.5 1375.83300781 488.5 1377.5 c 0
 493.5 1379.16699219 501 1381.33300781 511 1384 c 0
 540 1360 l 0
 540 1214 l 0
 572 1212.66699219 603.5 1209.5 634.5 1204.5 c 0
 665.5 1199.5 694.333007812 1192.66699219 721 1184 c 0
 747.666992188 1175.33300781 771.666992188 1165.5 793 1154.5 c 0
 814.333007812 1143.5 831.333007812 1131.66699219 844 1119 c 0
 848 1114.33300781 847.5 1104.5 842.5 1089.5 c 0
 837.5 1074.5 830.333007812 1058.16699219 821 1040.5 c 0
 811.666992188 1022.83300781 801.333007812 1005.83300781 790 989.5 c 0
 778.666992188 973.166992188 768.666992188 961 760 953 c 0
 711 961 l 0
 660.333007812 1032.33300781 603.333007812 1077.66699219 540 1097 c 0
 540 731 l 0
 582.666992188 715 625 697.666992188 667 679 c 0
 709 660.333007812 746.666992188 637.333007812 780 610 c 0
 813.333007812 582.666992188 840.333007812 550.166992188 861 512.5 c 0
 881.666992188 474.833007812 892 429 892 375 c 0
 892 335 884.833007812 294.5 870.5 253.5 c 0
 856.166992188 212.5 834.5 174.5 805.5 139.5 c 0
 776.5 104.5 740 74.1669921875 696 48.5 c 0
 652 22.8330078125 600 5.6669921875 540 -3 c 0
 540 -138 l 0
732 322 m 0
 732 351.333007812 727 377.333007812 717 400 c 0
 707 422.666992188 693.333007812 443 676 461 c 0
 658.666992188 479 638.333007812 494.833007812 615 508.5 c 0
 591.666992188 522.166992188 566.666992188 534.666992188 540 546 c 0
 540 122 l 0
 564.666992188 126 588.666992188 133.333007812 612 144 c 0
 635.333007812 154.666992188 655.833007812 168.5 673.5 185.5 c 0
 691.166992188 202.5 705.333007812 222.5 716 245.5 c 0
 726.666992188 268.5 732 294 732 322 c 0
245 956 m 0
 245 932 250 910.833007812 260 892.5 c 0
 270 874.166992188 283.833007812 857.666992188 301.5 843 c 0
 319.166992188 828.333007812 339.833007812 815 363.5 803 c 0
 387.166992188 791 412.666992188 779.666992188 440 769 c 0
 440 1108 l 0
 404.666992188 1106 374.666992188 1100.33300781 350 1091 c 0
 325.333007812 1081.66699219 305.333007812 1070 290 1056 c 0
 274.666992188 1042 263.333007812 1026.33300781 256 1009 c 0
 248.666992188 991.666992188 245 974 245 956 c 0
EndSplineSet
EndChar

StartChar: percent
Encoding: 8 37 8
Width: 1439
VWidth: 1024
Flags: HW
LayerCount: 2
Fore
SplineSet
656 897 m 0
 656 851 648 807.5 632 766.5 c 0
 616 725.5 594.166992188 689.5 566.5 658.5 c 0
 538.833007812 627.5 506.333007812 603 469 585 c 0
 431.666992188 567 392 558 350 558 c 0
 308 558 269.666992188 567 235 585 c 0
 200.333007812 603 170.833007812 627.5 146.5 658.5 c 0
 122.166992188 689.5 103.166992188 725.5 89.5 766.5 c 0
 75.8330078125 807.5 69 851 69 897 c 0
 69 943 76.8330078125 986.5 92.5 1027.5 c 0
 108.166992188 1068.5 129.833007812 1104.33300781 157.5 1135 c 0
 185.166992188 1165.66699219 217.5 1190 254.5 1208 c 0
 291.5 1226 331 1235 373 1235 c 0
 415.666992188 1235 454.5 1226.16699219 489.5 1208.5 c 0
 524.5 1190.83300781 554.333007812 1166.66699219 579 1136 c 0
 603.666992188 1105.33300781 622.666992188 1069.5 636 1028.5 c 0
 649.333007812 987.5 656 943.666992188 656 897 c 0
491 877 m 0
 491 925 487.166992188 966.5 479.5 1001.5 c 0
 471.833007812 1036.5 461.5 1065.5 448.5 1088.5 c 0
 435.5 1111.5 420.5 1128.5 403.5 1139.5 c 0
 386.5 1150.5 368.666992188 1156 350 1156 c 0
 334.666992188 1156 320 1151.33300781 306 1142 c 0
 292 1132.66699219 279.666992188 1118.33300781 269 1099 c 0
 258.333007812 1079.66699219 249.833007812 1055.16699219 243.5 1025.5 c 0
 237.166992188 995.833007812 234 960.666992188 234 920 c 0
 234 822.666992188 246.666992188 751.166992188 272 705.5 c 0
 297.333007812 659.833007812 331 637 373 637 c 0
 407 637 435.166992188 656.666992188 457.5 696 c 0
 479.833007812 735.333007812 491 795.666992188 491 877 c 0
363 14 m 0
 357 9.3330078125 347.833007812 4.8330078125 335.5 0.5 c 0
 323.166992188 -3.8330078125 310.166992188 -8.1669921875 296.5 -12.5 c 0
 282.833007812 -16.8330078125 269.5 -20.6669921875 256.5 -24 c 0
 243.5 -27.3330078125 232.666992188 -30.3330078125 224 -33 c 0
 200 1 l 0
 1075 1192 l 0
 1083.66699219 1196.66699219 1093.83300781 1201.16699219 1105.5 1205.5 c 0
 1117.16699219 1209.83300781 1129.33300781 1214 1142 1218 c 0
 1154.66699219 1222 1167.16699219 1225.66699219 1179.5 1229 c 0
 1191.83300781 1232.33300781 1202.66699219 1235 1212 1237 c 0
 1240 1205 l 0
 363 14 l 0
1371 309 m 0
 1371 263 1363 219.5 1347 178.5 c 0
 1331 137.5 1309.16699219 101.5 1281.5 70.5 c 0
 1253.83300781 39.5 1221.5 15 1184.5 -3 c 0
 1147.5 -21 1108 -30 1066 -30 c 0
 1024 -30 985.833007812 -21 951.5 -3 c 0
 917.166992188 15 887.666992188 39.5 863 70.5 c 0
 838.333007812 101.5 819.166992188 137.5 805.5 178.5 c 0
 791.833007812 219.5 785 263 785 309 c 0
 785 355.666992188 793 399.5 809 440.5 c 0
 825 481.5 846.666992188 517.333007812 874 548 c 0
 901.333007812 578.666992188 933.666992188 603 971 621 c 0
 1008.33300781 639 1048 648 1090 648 c 0
 1132.66699219 648 1171.33300781 639.166992188 1206 621.5 c 0
 1240.66699219 603.833007812 1270.33300781 579.666992188 1295 549 c 0
 1319.66699219 518.333007812 1338.5 482.333007812 1351.5 441 c 0
 1364.5 399.666992188 1371 355.666992188 1371 309 c 0
1207 289 m 0
 1207 337 1203.16699219 378.5 1195.5 413.5 c 0
 1187.83300781 448.5 1177.66699219 477.5 1165 500.5 c 0
 1152.33300781 523.5 1137.33300781 540.666992188 1120 552 c 0
 1102.66699219 563.333007812 1084.66699219 569 1066 569 c 0
 1050.66699219 569 1036 564.333007812 1022 555 c 0
 1008 545.666992188 995.833007812 531.166992188 985.5 511.5 c 0
 975.166992188 491.833007812 966.833007812 467.166992188 960.5 437.5 c 0
 954.166992188 407.833007812 951 372.666992188 951 332 c 0
 951 234.666992188 963.666992188 163.166992188 989 117.5 c 0
 1014.33300781 71.8330078125 1048 49 1090 49 c 0
 1124 49 1152 68.6669921875 1174 108 c 0
 1196 147.333007812 1207 207.666992188 1207 289 c 0
EndSplineSet
EndChar

StartChar: ampersand
Encoding: 9 38 9
Width: 1384
VWidth: 1024
Flags: HW
LayerCount: 2
Fore
SplineSet
1369 748 m 0
 1352.33300781 727.333007812 1335 708.166992188 1317 690.5 c 0
 1299 672.833007812 1281.66699219 658.333007812 1265 647 c 0
 1253 653 1239.5 658.5 1224.5 663.5 c 0
 1209.5 668.5 1194.5 672.833007812 1179.5 676.5 c 0
 1164.5 680.166992188 1150 683.166992188 1136 685.5 c 0
 1122 687.833007812 1109.33300781 689.333007812 1098 690 c 0
 1104.66699219 678.666992188 1110.16699219 668 1114.5 658 c 0
 1118.83300781 648 1122.33300781 637.333007812 1125 626 c 0
 1127.66699219 614.666992188 1129.33300781 602.333007812 1130 589 c 0
 1130.66699219 575.666992188 1131 560.333007812 1131 543 c 0
 1131 497 1120.66699219 448 1100 396 c 0
 1079.33300781 344 1050.33300781 293.333007812 1013 244 c 0
 1032.33300781 225.333007812 1051.33300781 207.833007812 1070 191.5 c 0
 1088.66699219 175.166992188 1106.66699219 160.333007812 1124 147 c 0
 1152.66699219 123 1182.83300781 107.5 1214.5 100.5 c 0
 1246.16699219 93.5 1280.66699219 94.3330078125 1318 103 c 0
 1329 50 l 0
 1300.33300781 37.3330078125 1272.5 26 1245.5 16 c 0
 1218.5 6 1193.83300781 -2.3330078125 1171.5 -9 c 0
 1149.16699219 -15.6669921875 1130 -20.8330078125 1114 -24.5 c 0
 1098 -28.1669921875 1086.33300781 -30 1079 -30 c 0
 1063.66699219 -30 1038.16699219 -17.8330078125 1002.5 6.5 c 0
 966.833007812 30.8330078125 925.666992188 64.3330078125 879 107 c 0
 826.333007812 65.6669921875 768.166992188 32.5 704.5 7.5 c 0
 640.833007812 -17.5 573.666992188 -30 503 -30 c 0
 438.333007812 -30 379.666992188 -21.8330078125 327 -5.5 c 0
 274.333007812 10.8330078125 229.333007812 35 192 67 c 0
 154.666992188 99 125.833007812 138.833007812 105.5 186.5 c 0
 85.1669921875 234.166992188 75 289.333007812 75 352 c 0
 75 425.333007812 99.6669921875 499.333007812 149 574 c 0
 198.333007812 648.666992188 271.333007812 721 368 791 c 0
 347.333007812 839.666992188 331.166992188 887.5 319.5 934.5 c 0
 307.833007812 981.5 302 1027.66699219 302 1073 c 0
 302 1127 311.5 1177 330.5 1223 c 0
 349.5 1269 374.833007812 1308.83300781 406.5 1342.5 c 0
 438.166992188 1376.16699219 475 1402.5 517 1421.5 c 0
 559 1440.5 603 1450 649 1450 c 0
 693.666992188 1450 731.833007812 1443.16699219 763.5 1429.5 c 0
 795.166992188 1415.83300781 820.666992188 1397.66699219 840 1375 c 0
 859.333007812 1352.33300781 873.5 1326.16699219 882.5 1296.5 c 0
 891.5 1266.83300781 896 1236 896 1204 c 0
 896 1169.33300781 889.333007812 1135 876 1101 c 0
 862.666992188 1067 844 1034.16699219 820 1002.5 c 0
 796 970.833007812 767.5 940.666992188 734.5 912 c 0
 701.5 883.333007812 665.333007812 856.666992188 626 832 c 0
 569 795 l 0
 592.333007812 753 618.166992188 711.166992188 646.5 669.5 c 0
 674.833007812 627.833007812 704.833007812 587 736.5 547 c 0
 768.166992188 507 800.5 468 833.5 430 c 0
 866.5 392 899.666992188 356 933 322 c 0
 951.666992188 352 965.833007812 382.5 975.5 413.5 c 0
 985.166992188 444.5 990 474 990 502 c 0
 990 530 985.5 556 976.5 580 c 0
 967.5 604 955.5 624.666992188 940.5 642 c 0
 925.5 659.333007812 908.5 673 889.5 683 c 0
 870.5 693 851.333007812 698 832 698 c 0
 808 728 l 0
 811.333007812 732 816.166992188 737 822.5 743 c 0
 828.833007812 749 835.666992188 754.833007812 843 760.5 c 0
 850.333007812 766.166992188 857.833007812 771.333007812 865.5 776 c 0
 873.166992188 780.666992188 880.333007812 784.333007812 887 787 c 0
 1343 787 l 0
 1369 748 l 0
543 94 m 0
 593 94 639.833007812 101.833007812 683.5 117.5 c 0
 727.166992188 133.166992188 767 154 803 180 c 0
 769.666992188 213.333007812 735.833007812 249.333007812 701.5 288 c 0
 667.166992188 326.666992188 633.5 367.333007812 600.5 410 c 0
 567.5 452.666992188 535.833007812 496.833007812 505.5 542.5 c 0
 475.166992188 588.166992188 447.333007812 634.333007812 422 681 c 0
 393.333007812 654.333007812 369.333007812 628.333007812 350 603 c 0
 330.666992188 577.666992188 315 552.5 303 527.5 c 0
 291 502.5 282.5 477.166992188 277.5 451.5 c 0
 272.5 425.833007812 270 399.666992188 270 373 c 0
 270 326.333007812 277.833007812 285.5 293.5 250.5 c 0
 309.166992188 215.5 329.666992188 186.5 355 163.5 c 0
 380.333007812 140.5 409.5 123.166992188 442.5 111.5 c 0
 475.5 99.8330078125 509 94 543 94 c 0
462 1130 m 0
 462 1092 467.333007812 1052.83300781 478 1012.5 c 0
 488.666992188 972.166992188 503.666992188 930.666992188 523 888 c 0
 563.666992188 911.333007812 597 935.166992188 623 959.5 c 0
 649 983.833007812 669.5 1008 684.5 1032 c 0
 699.5 1056 709.833007812 1079.66699219 715.5 1103 c 0
 721.166992188 1126.33300781 724 1149 724 1171 c 0
 724 1194.33300781 721 1216 715 1236 c 0
 709 1256 700.5 1273.5 689.5 1288.5 c 0
 678.5 1303.5 664.833007812 1315.16699219 648.5 1323.5 c 0
 632.166992188 1331.83300781 613.666992188 1336 593 1336 c 0
 571 1336 551.833007812 1330.16699219 535.5 1318.5 c 0
 519.166992188 1306.83300781 505.5 1291.5 494.5 1272.5 c 0
 483.5 1253.5 475.333007812 1231.5 470 1206.5 c 0
 464.666992188 1181.5 462 1156 462 1130 c 0
EndSplineSet
EndChar

StartChar: quotesingle
Encoding: 10 39 10
Width: 527
VWidth: 1024
Flags: HW
LayerCount: 2
Fore
SplineSet
322 834 m 0
 316.666992188 831.333007812 309.666992188 828.666992188 301 826 c 0
 292.333007812 823.333007812 283 821 273 819 c 0
 263 817 253 815.5 243 814.5 c 0
 233 813.5 224 813 216 813 c 0
 153 1416 l 0
 160.333007812 1420 172.333007812 1425.33300781 189 1432 c 0
 205.666992188 1438.66699219 223.166992188 1445.33300781 241.5 1452 c 0
 259.833007812 1458.66699219 277.166992188 1464.66699219 293.5 1470 c 0
 309.833007812 1475.33300781 321.666992188 1478.66699219 329 1480 c 0
 375 1457 l 0
 322 834 l 0
EndSplineSet
EndChar

StartChar: parenleft
Encoding: 11 40 11
Width: 659
VWidth: 1024
Flags: HW
LayerCount: 2
Fore
SplineSet
586 -315 m 0
 508 -277 439.666992188 -226.666992188 381 -164 c 0
 322.333007812 -101.333007812 273.333007812 -29.3330078125 234 52 c 0
 194.666992188 133.333007812 165.166992188 222.333007812 145.5 319 c 0
 125.833007812 415.666992188 116 517 116 623 c 0
 116 732.333007812 127.166992188 837.5 149.5 938.5 c 0
 171.833007812 1039.5 203.5 1132.5 244.5 1217.5 c 0
 285.5 1302.5 334.833007812 1377.83300781 392.5 1443.5 c 0
 450.166992188 1509.16699219 514.666992188 1561.33300781 586 1600 c 0
 625 1545 l 0
 583 1507.66699219 543.166992188 1460.16699219 505.5 1402.5 c 0
 467.833007812 1344.83300781 435 1278.16699219 407 1202.5 c 0
 379 1126.83300781 356.833007812 1042.66699219 340.5 950 c 0
 324.166992188 857.333007812 316 757.666992188 316 651 c 0
 316 553.666992188 322.833007812 459.666992188 336.5 369 c 0
 350.166992188 278.333007812 370 193.5 396 114.5 c 0
 422 35.5 454.166992188 -35.8330078125 492.5 -99.5 c 0
 530.833007812 -163.166992188 575 -216.666992188 625 -260 c 0
 586 -315 l 0
EndSplineSet
EndChar

StartChar: parenright
Encoding: 12 41 12
Width: 659
VWidth: 1024
Flags: HW
LayerCount: 2
Fore
SplineSet
545 663 m 0
 545 553.666992188 533.833007812 448.5 511.5 347.5 c 0
 489.166992188 246.5 457.5 153.333007812 416.5 68 c 0
 375.5 -17.3330078125 326 -92.8330078125 268 -158.5 c 0
 210 -224.166992188 145.666992188 -276.333007812 75 -315 c 0
 36 -260 l 0
 78 -222.666992188 117.666992188 -175 155 -117 c 0
 192.333007812 -59 225.166992188 7.8330078125 253.5 83.5 c 0
 281.833007812 159.166992188 304.166992188 243.166992188 320.5 335.5 c 0
 336.833007812 427.833007812 345 527.666992188 345 635 c 0
 345 731.666992188 338.333007812 825.5 325 916.5 c 0
 311.666992188 1007.5 291.833007812 1092.33300781 265.5 1171 c 0
 239.166992188 1249.66699219 206.833007812 1321 168.5 1385 c 0
 130.166992188 1449 86 1502.33300781 36 1545 c 0
 75 1600 l 0
 153 1562.66699219 221.333007812 1512.66699219 280 1450 c 0
 338.666992188 1387.33300781 387.666992188 1315.33300781 427 1234 c 0
 466.333007812 1152.66699219 495.833007812 1063.66699219 515.5 967 c 0
 535.166992188 870.333007812 545 769 545 663 c 0
EndSplineSet
EndChar

StartChar: asterisk
Encoding: 13 42 13
Width: 912
VWidth: 1024
Flags: HW
LayerCount: 2
Fore
SplineSet
493 1199 m 0
 739 1391 l 0
 745.666992188 1386.33300781 754.166992188 1380.66699219 764.5 1374 c 0
 774.833007812 1367.33300781 785.166992188 1360.16699219 795.5 1352.5 c 0
 805.833007812 1344.83300781 815.666992188 1337.33300781 825 1330 c 0
 834.333007812 1322.66699219 841.666992188 1316.33300781 847 1311 c 0
 845 1265 l 0
 531 1135 l 0
 821 1017 l 0
 820.333007812 1009 819.666992188 999 819 987 c 0
 818.333007812 975 817.166992188 962.5 815.5 949.5 c 0
 813.833007812 936.5 812.166992188 924.166992188 810.5 912.5 c 0
 808.833007812 900.833007812 806.666992188 891.333007812 804 884 c 0
 762 862 l 0
 495 1069 l 0
 537 761 l 0
 529.666992188 757 520.666992188 752.166992188 510 746.5 c 0
 499.333007812 740.833007812 488.166992188 735.5 476.5 730.5 c 0
 464.833007812 725.5 453.5 721 442.5 717 c 0
 431.5 713 422.333007812 710.333007812 415 709 c 0
 374 732 l 0
 420 1069 l 0
 174 877 l 0
 166.666992188 881.666992188 157.833007812 887.5 147.5 894.5 c 0
 137.166992188 901.5 126.833007812 908.666992188 116.5 916 c 0
 106.166992188 923.333007812 96.5 930.666992188 87.5 938 c 0
 78.5 945.333007812 71.6669921875 951.666992188 67 957 c 0
 68 1004 l 0
 383 1133 l 0
 92 1251 l 0
 92.6669921875 1259 93.3330078125 1269.16699219 94 1281.5 c 0
 94.6669921875 1293.83300781 95.6669921875 1306.33300781 97 1319 c 0
 98.3330078125 1331.66699219 100 1343.83300781 102 1355.5 c 0
 104 1367.16699219 106 1376.33300781 108 1383 c 0
 149 1405 l 0
 418 1198 l 0
 375 1508 l 0
 382.333007812 1512 391.5 1516.66699219 402.5 1522 c 0
 413.5 1527.33300781 425 1532.5 437 1537.5 c 0
 449 1542.5 460.666992188 1547.16699219 472 1551.5 c 0
 483.333007812 1555.83300781 492.666992188 1559 500 1561 c 0
 538 1535 l 0
 493 1199 l 0
EndSplineSet
EndChar

StartChar: plus
Encoding: 14 43 14
Width: 848
VWidth: 1024
Flags: HW
LayerCount: 2
Fore
SplineSet
487 232 m 0
 473.666992188 225.333007812 457.666992188 219 439 213 c 0
 420.333007812 207 403.666992188 202.333007812 389 199 c 0
 362 223 l 0
 362 502 l 0
 86 502 l 0
 58 528 l 0
 61.3330078125 542 66.6669921875 558 74 576 c 0
 81.3330078125 594 88 609.666992188 94 623 c 0
 362 623 l 0
 362 895 l 0
 374.666992188 899 390.5 904.333007812 409.5 911 c 0
 428.5 917.666992188 445.333007812 922.666992188 460 926 c 0
 487 901 l 0
 487 623 l 0
 762 623 l 0
 789 596 l 0
 787 589.333007812 784.5 581.666992188 781.5 573 c 0
 778.5 564.333007812 775.333007812 555.666992188 772 547 c 0
 768.666992188 538.333007812 765.333007812 530 762 522 c 0
 758.666992188 514 755.666992188 507.333007812 753 502 c 0
 487 502 l 0
 487 232 l 0
EndSplineSet
EndChar

StartChar: comma
Encoding: 15 44 15
Width: 497
VWidth: 1024
Flags: HW
LayerCount: 2
Fore
SplineSet
420 70 m 0
 420 40.6669921875 414 8.1669921875 402 -27.5 c 0
 390 -63.1669921875 373.166992188 -99 351.5 -135 c 0
 329.833007812 -171 304 -206 274 -240 c 0
 244 -274 210.666992188 -304 174 -330 c 0
 121 -290 l 0
 139.666992188 -268.666992188 155.833007812 -247.5 169.5 -226.5 c 0
 183.166992188 -205.5 194.5 -184 203.5 -162 c 0
 212.5 -140 219.333007812 -116.833007812 224 -92.5 c 0
 228.666992188 -68.1669921875 231 -41.6669921875 231 -13 c 0
 231 17 220.5 41.8330078125 199.5 61.5 c 0
 178.5 81.1669921875 146.666992188 89.6669921875 104 87 c 0
 88 144 l 0
 94 152 107.5 161.5 128.5 172.5 c 0
 149.5 183.5 173 194 199 204 c 0
 225 214 250.666992188 222.5 276 229.5 c 0
 301.333007812 236.5 320.666992188 239.666992188 334 239 c 0
 366 223.666992188 388.333007812 202.333007812 401 175 c 0
 413.666992188 147.666992188 420 112.666992188 420 70 c 0
EndSplineSet
EndChar

StartChar: hyphen
Encoding: 16 45 16
Width: 703
VWidth: 1024
Flags: HW
LayerCount: 2
Fore
SplineSet
92 426 m 0
 92 583 l 0
 579 583 l 0
 579 426 l 0
 92 426 l 0
EndSplineSet
Refer: 375 727 N 1 0 0 1 0 0 2
EndChar

StartChar: period
Encoding: 17 46 17
Width: 497
VWidth: 1024
Flags: HW
LayerCount: 2
Fore
SplineSet
399 126 m 0
 399 102 395 79.8330078125 387 59.5 c 0
 379 39.1669921875 368.166992188 21.6669921875 354.5 7 c 0
 340.833007812 -7.6669921875 324.666992188 -19.1669921875 306 -27.5 c 0
 287.333007812 -35.8330078125 267.333007812 -40 246 -40 c 0
 209.333007812 -40 181 -30 161 -10 c 0
 141 10 131 40 131 80 c 0
 131 104 135.166992188 126 143.5 146 c 0
 151.833007812 166 163 183.5 177 198.5 c 0
 191 213.5 207.333007812 225.166992188 226 233.5 c 0
 244.666992188 241.833007812 264.333007812 246 285 246 c 0
 319.666992188 246 347.333007812 236 368 216 c 0
 388.666992188 196 399 166 399 126 c 0
EndSplineSet
EndChar

StartChar: slash
Encoding: 18 47 18
Width: 966
VWidth: 1024
Flags: HW
LayerCount: 2
Fore
SplineSet
221 -282 m 0
 214.333007812 -286.666992188 205 -291.5 193 -296.5 c 0
 181 -301.5 168.333007812 -306.5 155 -311.5 c 0
 141.666992188 -316.5 128.5 -321 115.5 -325 c 0
 102.5 -329 92 -332.333007812 84 -335 c 0
 44 -308 l 0
 745 1549 l 0
 753.666992188 1555 763.833007812 1560.5 775.5 1565.5 c 0
 787.166992188 1570.5 799.166992188 1575.16699219 811.5 1579.5 c 0
 823.833007812 1583.83300781 836 1587.66699219 848 1591 c 0
 860 1594.33300781 870.666992188 1597.33300781 880 1600 c 0
 919 1576 l 0
 221 -282 l 0
EndSplineSet
EndChar

StartChar: zero
Encoding: 19 48 19
Width: 986
VWidth: 1024
Flags: HW
LayerCount: 2
Fore
SplineSet
915 602 m 0
 915 516 904.333007812 434.666992188 883 358 c 0
 861.666992188 281.333007812 831.833007812 214.333007812 793.5 157 c 0
 755.166992188 99.6669921875 709 54.1669921875 655 20.5 c 0
 601 -13.1669921875 541.333007812 -30 476 -30 c 0
 410.666992188 -30 352.833007812 -13.1669921875 302.5 20.5 c 0
 252.166992188 54.1669921875 209.833007812 99.6669921875 175.5 157 c 0
 141.166992188 214.333007812 115.166992188 281.333007812 97.5 358 c 0
 79.8330078125 434.666992188 71 516 71 602 c 0
 71 688 81.5 769.333007812 102.5 846 c 0
 123.5 922.666992188 153.166992188 989.833007812 191.5 1047.5 c 0
 229.833007812 1105.16699219 276 1150.83300781 330 1184.5 c 0
 384 1218.16699219 444 1235 510 1235 c 0
 576 1235 634.166992188 1218.33300781 684.5 1185 c 0
 734.833007812 1151.66699219 777.166992188 1106.33300781 811.5 1049 c 0
 845.833007812 991.666992188 871.666992188 924.5 889 847.5 c 0
 906.333007812 770.5 915 688.666992188 915 602 c 0
719 565 m 0
 719 656.333007812 712.5 736.333007812 699.5 805 c 0
 686.5 873.666992188 668.833007812 931 646.5 977 c 0
 624.166992188 1023 598.333007812 1057.5 569 1080.5 c 0
 539.666992188 1103.5 508.666992188 1115 476 1115 c 0
 442.666992188 1115 413.166992188 1106.16699219 387.5 1088.5 c 0
 361.833007812 1070.83300781 340.166992188 1043 322.5 1005 c 0
 304.833007812 967 291.333007812 918.333007812 282 859 c 0
 272.666992188 799.666992188 268 728.333007812 268 645 c 0
 268 553.666992188 273.833007812 473.333007812 285.5 404 c 0
 297.166992188 334.666992188 313.666992188 276.666992188 335 230 c 0
 356.333007812 183.333007812 381.833007812 148.333007812 411.5 125 c 0
 441.166992188 101.666992188 474 90 510 90 c 0
 543.333007812 90 573 98.8330078125 599 116.5 c 0
 625 134.166992188 646.833007812 162.166992188 664.5 200.5 c 0
 682.166992188 238.833007812 695.666992188 288 705 348 c 0
 714.333007812 408 719 480.333007812 719 565 c 0
EndSplineSet
EndChar

StartChar: one
Encoding: 20 49 20
Width: 986
VWidth: 1024
Flags: HW
LayerCount: 2
Fore
SplineSet
165 0 m 0
 165 63 l 0
 217 69 260.333007812 75.8330078125 295 83.5 c 0
 329.666992188 91.1669921875 357.333007812 99 378 107 c 0
 398.666992188 115 413.333007812 122.833007812 422 130.5 c 0
 430.666992188 138.166992188 435 145.666992188 435 153 c 0
 435 930 l 0
 435 956.666992188 434 977.333007812 432 992 c 0
 430 1006.66699219 425 1018.66699219 417 1028 c 0
 413 1032 405.5 1035.33300781 394.5 1038 c 0
 383.5 1040.66699219 367.833007812 1041.66699219 347.5 1041 c 0
 327.166992188 1040.33300781 301.5 1038 270.5 1034 c 0
 239.5 1030 202 1023.33300781 158 1014 c 0
 134 1075 l 0
 162 1082.33300781 196.5 1093 237.5 1107 c 0
 278.5 1121 320.333007812 1136.33300781 363 1153 c 0
 405.666992188 1169.66699219 446.166992188 1186.16699219 484.5 1202.5 c 0
 522.833007812 1218.83300781 553.333007812 1233 576 1245 c 0
 615 1208 l 0
 615 153 l 0
 615 146.333007812 618.666992188 139.166992188 626 131.5 c 0
 633.333007812 123.833007812 646.333007812 116 665 108 c 0
 683.666992188 100 709.166992188 92 741.5 84 c 0
 773.833007812 76 815 69 865 63 c 0
 865 0 l 0
 165 0 l 0
EndSplineSet
EndChar

StartChar: two
Encoding: 21 50 21
Width: 986
VWidth: 1024
Flags: HW
LayerCount: 2
Fore
SplineSet
851 0 m 0
 122 0 l 0
 93 74 l 0
 171.666992188 165.333007812 240.5 246.5 299.5 317.5 c 0
 358.5 388.5 409.166992188 451.333007812 451.5 506 c 0
 493.833007812 560.666992188 528.833007812 608.5 556.5 649.5 c 0
 584.166992188 690.5 606.166992188 727.166992188 622.5 759.5 c 0
 638.833007812 791.833007812 650.166992188 821.166992188 656.5 847.5 c 0
 662.833007812 873.833007812 666 899.333007812 666 924 c 0
 666 954 662.5 982 655.5 1008 c 0
 648.5 1034 637.5 1056.66699219 622.5 1076 c 0
 607.5 1095.33300781 588.333007812 1110.5 565 1121.5 c 0
 541.666992188 1132.5 513.333007812 1138 480 1138 c 0
 452.666992188 1138 428 1131.66699219 406 1119 c 0
 384 1106.33300781 365.5 1089.83300781 350.5 1069.5 c 0
 335.5 1049.16699219 324.333007812 1026.66699219 317 1002 c 0
 309.666992188 977.333007812 306.666992188 953 308 929 c 0
 285.333007812 916.333007812 261 905 235 895 c 0
 209 885 180.666992188 878.333007812 150 875 c 0
 120 918 l 0
 120 952.666992188 132 988.666992188 156 1026 c 0
 180 1063.33300781 211.833007812 1097.5 251.5 1128.5 c 0
 291.166992188 1159.5 336.666992188 1185 388 1205 c 0
 439.333007812 1225 492.666992188 1235 548 1235 c 0
 592 1235 632.666992188 1229.5 670 1218.5 c 0
 707.333007812 1207.5 739.5 1190.66699219 766.5 1168 c 0
 793.5 1145.33300781 814.666992188 1117 830 1083 c 0
 845.333007812 1049 853 1008.66699219 853 962 c 0
 853 932 848.833007812 902 840.5 872 c 0
 832.166992188 842 818.666992188 809.833007812 800 775.5 c 0
 781.333007812 741.166992188 757.5 703.666992188 728.5 663 c 0
 699.5 622.333007812 664.166992188 576.5 622.5 525.5 c 0
 580.833007812 474.5 532.666992188 417.166992188 478 353.5 c 0
 423.333007812 289.833007812 361.333007812 218.333007812 292 139 c 0
 704 139 l 0
 715.333007812 139 725.5 141.666992188 734.5 147 c 0
 743.5 152.333007812 751.5 159.333007812 758.5 168 c 0
 765.5 176.666992188 771.5 186.5 776.5 197.5 c 0
 781.5 208.5 785.666992188 219.666992188 789 231 c 0
 797 257.666992188 802.666992188 288.666992188 806 324 c 0
 866 310 l 0
 851 0 l 0
EndSplineSet
EndChar

StartChar: three
Encoding: 22 51 22
Width: 986
VWidth: 1024
Flags: HW
LayerCount: 2
Fore
SplineSet
855 381 m 0
 855 325 845.333007812 272 826 222 c 0
 806.666992188 172 778.666992188 128.333007812 742 91 c 0
 705.333007812 53.6669921875 660.333007812 24.1669921875 607 2.5 c 0
 553.666992188 -19.1669921875 492.666992188 -30 424 -30 c 0
 398 -30 370.5 -27.3330078125 341.5 -22 c 0
 312.5 -16.6669921875 283 -8 253 4 c 0
 223 16 192.666992188 31.8330078125 162 51.5 c 0
 131.333007812 71.1669921875 101 95.3330078125 71 124 c 0
 107 201 l 0
 137 178.333007812 164.833007812 159.5 190.5 144.5 c 0
 216.166992188 129.5 240.833007812 117.5 264.5 108.5 c 0
 288.166992188 99.5 311.333007812 93 334 89 c 0
 356.666992188 85 380.666992188 83 406 83 c 0
 443.333007812 83 477.833007812 89 509.5 101 c 0
 541.166992188 113 568.333007812 130.5 591 153.5 c 0
 613.666992188 176.5 631.333007812 204.5 644 237.5 c 0
 656.666992188 270.5 663 308.333007812 663 351 c 0
 663 399.666992188 655.333007812 440.833007812 640 474.5 c 0
 624.666992188 508.166992188 605.333007812 535.5 582 556.5 c 0
 558.666992188 577.5 532.5 592.666992188 503.5 602 c 0
 474.5 611.333007812 446.666992188 616 420 616 c 0
 398 616 l 0
 393.333007812 616 389 615.666992188 385 615 c 0
 381 614.333007812 376.166992188 613.666992188 370.5 613 c 0
 364.833007812 612.333007812 357 611 347 609 c 0
 332 679 l 0
 392 695 440 713.833007812 476 735.5 c 0
 512 757.166992188 539.666992188 779.666992188 559 803 c 0
 578.333007812 826.333007812 591 849.833007812 597 873.5 c 0
 603 897.166992188 606 919.333007812 606 940 c 0
 606 962.666992188 602.833007812 985.833007812 596.5 1009.5 c 0
 590.166992188 1033.16699219 580.166992188 1054.5 566.5 1073.5 c 0
 552.833007812 1092.5 535.5 1108 514.5 1120 c 0
 493.5 1132 468.333007812 1138 439 1138 c 0
 415 1138 393.5 1133.33300781 374.5 1124 c 0
 355.5 1114.66699219 339.666992188 1102.33300781 327 1087 c 0
 314.333007812 1071.66699219 305.5 1053.66699219 300.5 1033 c 0
 295.5 1012.33300781 295.333007812 990.666992188 300 968 c 0
 276 954.666992188 250.166992188 943.833007812 222.5 935.5 c 0
 194.833007812 927.166992188 165.333007812 921.666992188 134 919 c 0
 104 960 l 0
 104 988 114.166992188 1018 134.5 1050 c 0
 154.833007812 1082 182.833007812 1111.83300781 218.5 1139.5 c 0
 254.166992188 1167.16699219 295.833007812 1190 343.5 1208 c 0
 391.166992188 1226 442 1235 496 1235 c 0
 549.333007812 1235 595.166992188 1227 633.5 1211 c 0
 671.833007812 1195 703.166992188 1173.83300781 727.5 1147.5 c 0
 751.833007812 1121.16699219 769.666992188 1091.5 781 1058.5 c 0
 792.333007812 1025.5 798 992 798 958 c 0
 798 932.666992188 793 907.5 783 882.5 c 0
 773 857.5 758.666992188 833.5 740 810.5 c 0
 721.333007812 787.5 699 766.333007812 673 747 c 0
 647 727.666992188 617.666992188 711.333007812 585 698 c 0
 623.666992188 693.333007812 659.5 681.833007812 692.5 663.5 c 0
 725.5 645.166992188 754 621.833007812 778 593.5 c 0
 802 565.166992188 820.833007812 532.833007812 834.5 496.5 c 0
 848.166992188 460.166992188 855 421.666992188 855 381 c 0
EndSplineSet
EndChar

StartChar: four
Encoding: 23 52 23
Width: 986
VWidth: 1024
Flags: HW
LayerCount: 2
Fore
SplineSet
902 435 m 0
 888 413.666992188 873.833007812 396.166992188 859.5 382.5 c 0
 845.166992188 368.833007812 830.333007812 356.333007812 815 345 c 0
 750 345 l 0
 750 114 l 0
 750 108.666992188 752 103.833007812 756 99.5 c 0
 760 95.1669921875 767.333007812 90.5 778 85.5 c 0
 788.666992188 80.5 803 75.3330078125 821 70 c 0
 839 64.6669921875 861.666992188 59 889 53 c 0
 889 0 l 0
 370 0 l 0
 370 53 l 0
 413.333007812 60.3330078125 448.666992188 67.1669921875 476 73.5 c 0
 503.333007812 79.8330078125 524.666992188 85.8330078125 540 91.5 c 0
 555.333007812 97.1669921875 565.833007812 102.666992188 571.5 108 c 0
 577.166992188 113.333007812 580 119 580 125 c 0
 580 345 l 0
 91 345 l 0
 55 381 l 0
 546 1172 l 0
 575.333007812 1183.33300781 604.333007812 1195.66699219 633 1209 c 0
 661.666992188 1222.33300781 687.666992188 1234.33300781 711 1245 c 0
 750 1208 l 0
 750 465 l 0
 876 465 l 0
 902 435 l 0
580 1020 m 0
 226 465 l 0
 580 465 l 0
 580 1020 l 0
EndSplineSet
EndChar

StartChar: five
Encoding: 24 53 24
Width: 986
VWidth: 1024
Flags: HW
LayerCount: 2
Fore
SplineSet
864 410 m 0
 864 352 855.166992188 296.5 837.5 243.5 c 0
 819.833007812 190.5 793.5 143.666992188 758.5 103 c 0
 723.5 62.3330078125 680.333007812 30 629 6 c 0
 577.666992188 -18 518 -30 450 -30 c 0
 388 -30 325 -18 261 6 c 0
 197 30 136 69 78 123 c 0
 118 197 l 0
 153.333007812 172.333007812 185.833007812 152.333007812 215.5 137 c 0
 245.166992188 121.666992188 272.5 109.833007812 297.5 101.5 c 0
 322.5 93.1669921875 345.666992188 87.5 367 84.5 c 0
 388.333007812 81.5 408.666992188 80 428 80 c 0
 468 80 503.5 87.8330078125 534.5 103.5 c 0
 565.5 119.166992188 591.5 140.166992188 612.5 166.5 c 0
 633.5 192.833007812 649.333007812 223.333007812 660 258 c 0
 670.666992188 292.666992188 676 329 676 367 c 0
 676 412.333007812 670.333007812 453.333007812 659 490 c 0
 647.666992188 526.666992188 631 557.833007812 609 583.5 c 0
 587 609.166992188 559.666992188 628.833007812 527 642.5 c 0
 494.333007812 656.166992188 456.333007812 663 413 663 c 0
 376.333007812 663 337.833007812 655.833007812 297.5 641.5 c 0
 257.166992188 627.166992188 219.333007812 606.666992188 184 580 c 0
 137 613 l 0
 141 637 145.666992188 665.166992188 151 697.5 c 0
 156.333007812 729.833007812 161.833007812 764 167.5 800 c 0
 173.166992188 836 178.833007812 872.833007812 184.5 910.5 c 0
 190.166992188 948.166992188 195.333007812 985 200 1021 c 0
 204.666992188 1057 208.666992188 1090.83300781 212 1122.5 c 0
 215.333007812 1154.16699219 217.666992188 1181.66699219 219 1205 c 0
 685 1205 l 0
 704.333007812 1205 721.333007812 1205.83300781 736 1207.5 c 0
 750.666992188 1209.16699219 763.333007812 1211.33300781 774 1214 c 0
 786 1216.66699219 796.666992188 1219.66699219 806 1223 c 0
 838 1192 l 0
 830.666992188 1181.33300781 821.833007812 1169.33300781 811.5 1156 c 0
 801.166992188 1142.66699219 790.333007812 1129.83300781 779 1117.5 c 0
 767.666992188 1105.16699219 756.666992188 1093.66699219 746 1083 c 0
 735.333007812 1072.33300781 726 1064 718 1058 c 0
 316 1058 l 0
 314.666992188 1038.66699219 312.5 1014.66699219 309.5 986 c 0
 306.5 957.333007812 302.833007812 928.333007812 298.5 899 c 0
 294.166992188 869.666992188 289.833007812 841.833007812 285.5 815.5 c 0
 281.166992188 789.166992188 277.666992188 768.666992188 275 754 c 0
 303 763.333007812 335 770.833007812 371 776.5 c 0
 407 782.166992188 443.666992188 785 481 785 c 0
 543.666992188 785 598.833007812 774.666992188 646.5 754 c 0
 694.166992188 733.333007812 734.166992188 705.666992188 766.5 671 c 0
 798.833007812 636.333007812 823.166992188 596.333007812 839.5 551 c 0
 855.833007812 505.666992188 864 458.666992188 864 410 c 0
EndSplineSet
EndChar

StartChar: six
Encoding: 25 54 25
Width: 986
VWidth: 1024
Flags: HW
LayerCount: 2
Fore
SplineSet
911 412 m 0
 911 380.666992188 907.333007812 348 900 314 c 0
 892.666992188 280 881.666992188 246.666992188 867 214 c 0
 852.333007812 181.333007812 834 150.333007812 812 121 c 0
 790 91.6669921875 764.666992188 65.8330078125 736 43.5 c 0
 707.333007812 21.1669921875 675 3.3330078125 639 -10 c 0
 603 -23.3330078125 563.666992188 -30 521 -30 c 0
 463.666992188 -30 409.666992188 -17.8330078125 359 6.5 c 0
 308.333007812 30.8330078125 264.166992188 65 226.5 109 c 0
 188.833007812 153 159.166992188 205.833007812 137.5 267.5 c 0
 115.833007812 329.166992188 105 397.666992188 105 473 c 0
 105 567 119.333007812 657.166992188 148 743.5 c 0
 176.666992188 829.833007812 220.166992188 907.666992188 278.5 977 c 0
 336.833007812 1046.33300781 410 1104.66699219 498 1152 c 0
 586 1199.33300781 689.333007812 1231.66699219 808 1249 c 0
 830 1180 l 0
 750.666992188 1162 680.833007812 1135.66699219 620.5 1101 c 0
 560.166992188 1066.33300781 508.666992188 1026.16699219 466 980.5 c 0
 423.333007812 934.833007812 389 884.666992188 363 830 c 0
 337 775.333007812 319 719 309 661 c 0
 331.666992188 681.666992188 354.666992188 699.166992188 378 713.5 c 0
 401.333007812 727.833007812 424 739.5 446 748.5 c 0
 468 757.5 489.166992188 764.166992188 509.5 768.5 c 0
 529.833007812 772.833007812 548 775 564 775 c 0
 618.666992188 775 667.5 766.333007812 710.5 749 c 0
 753.5 731.666992188 789.833007812 707.166992188 819.5 675.5 c 0
 849.166992188 643.833007812 871.833007812 605.666992188 887.5 561 c 0
 903.166992188 516.333007812 911 466.666992188 911 412 c 0
515 655 m 0
 483 655 447.833007812 645.333007812 409.5 626 c 0
 371.166992188 606.666992188 334 576.666992188 298 536 c 0
 298 457.333007812 304.166992188 389.5 316.5 332.5 c 0
 328.833007812 275.5 346.333007812 228.5 369 191.5 c 0
 391.666992188 154.5 418.833007812 127.166992188 450.5 109.5 c 0
 482.166992188 91.8330078125 517 83 555 83 c 0
 588.333007812 83 616.166992188 91 638.5 107 c 0
 660.833007812 123 678.666992188 143.833007812 692 169.5 c 0
 705.333007812 195.166992188 714.833007812 223.666992188 720.5 255 c 0
 726.166992188 286.333007812 729 317.333007812 729 348 c 0
 729 410.666992188 722.333007812 461.833007812 709 501.5 c 0
 695.666992188 541.166992188 678.5 572.333007812 657.5 595 c 0
 636.5 617.666992188 613.333007812 633.333007812 588 642 c 0
 562.666992188 650.666992188 538.333007812 655 515 655 c 0
EndSplineSet
EndChar

StartChar: seven
Encoding: 26 55 26
Width: 986
VWidth: 1024
Flags: HW
LayerCount: 2
Fore
SplineSet
910 1167 m 0
 879.333007812 1095 848.666992188 1022.5 818 949.5 c 0
 787.333007812 876.5 757.333007812 804.333007812 728 733 c 0
 698.666992188 661.666992188 670.666992188 592.5 644 525.5 c 0
 617.333007812 458.5 592.666992188 395.5 570 336.5 c 0
 547.333007812 277.5 527 223.333007812 509 174 c 0
 491 124.666992188 476.333007812 82.3330078125 465 47 c 0
 441.666992188 30.3330078125 413.833007812 15.5 381.5 2.5 c 0
 349.166992188 -10.5 316.333007812 -21.3330078125 283 -30 c 0
 239 6 l 0
 297 108 348.833007812 204.166992188 394.5 294.5 c 0
 440.166992188 384.833007812 482.5 472.5 521.5 557.5 c 0
 560.5 642.5 597.666992188 725.833007812 633 807.5 c 0
 668.333007812 889.166992188 704.333007812 972.666992188 741 1058 c 0
 289 1058 l 0
 279 1058 269.166992188 1057.5 259.5 1056.5 c 0
 249.833007812 1055.5 239.666992188 1050.5 229 1041.5 c 0
 218.333007812 1032.5 206.833007812 1017.66699219 194.5 997 c 0
 182.166992188 976.333007812 169 946.666992188 155 908 c 0
 102 928 l 0
 104 943.333007812 106.833007812 963.666992188 110.5 989 c 0
 114.166992188 1014.33300781 118 1040.5 122 1067.5 c 0
 126 1094.5 130.166992188 1120.5 134.5 1145.5 c 0
 138.833007812 1170.5 143 1190.33300781 147 1205 c 0
 877 1205 l 0
 910 1167 l 0
EndSplineSet
EndChar

StartChar: eight
Encoding: 27 56 27
Width: 986
VWidth: 1024
Flags: HW
LayerCount: 2
Fore
SplineSet
897 352 m 0
 897 300 885.666992188 251 863 205 c 0
 840.333007812 159 809.5 118.5 770.5 83.5 c 0
 731.5 48.5 685.833007812 20.8330078125 633.5 0.5 c 0
 581.166992188 -19.8330078125 525.333007812 -30 466 -30 c 0
 405.333007812 -30 351.5 -21.3330078125 304.5 -4 c 0
 257.5 13.3330078125 218 36.6669921875 186 66 c 0
 154 95.3330078125 129.833007812 128.833007812 113.5 166.5 c 0
 97.1669921875 204.166992188 89 243.666992188 89 285 c 0
 89 321 95.5 355.5 108.5 388.5 c 0
 121.5 421.5 139.666992188 453 163 483 c 0
 186.333007812 513 214.5 541.166992188 247.5 567.5 c 0
 280.5 593.833007812 317 618 357 640 c 0
 327.666992188 654 300 669 274 685 c 0
 248 701 225 719.666992188 205 741 c 0
 185 762.333007812 169.166992188 787.166992188 157.5 815.5 c 0
 145.833007812 843.833007812 140 877 140 915 c 0
 140 961 149.666992188 1003.66699219 169 1043 c 0
 188.333007812 1082.33300781 214.666992188 1116.16699219 248 1144.5 c 0
 281.333007812 1172.83300781 320.666992188 1195 366 1211 c 0
 411.333007812 1227 460 1235 512 1235 c 0
 566.666992188 1235 614.833007812 1228.33300781 656.5 1215 c 0
 698.166992188 1201.66699219 733.166992188 1183.33300781 761.5 1160 c 0
 789.833007812 1136.66699219 811.166992188 1108.66699219 825.5 1076 c 0
 839.833007812 1043.33300781 847 1007.66699219 847 969 c 0
 847 941.666992188 841.666992188 915.666992188 831 891 c 0
 820.333007812 866.333007812 805.833007812 842.833007812 787.5 820.5 c 0
 769.166992188 798.166992188 747.333007812 776.333007812 722 755 c 0
 696.666992188 733.666992188 669 713 639 693 c 0
 672.333007812 677 704.5 659 735.5 639 c 0
 766.5 619 794 595.5 818 568.5 c 0
 842 541.5 861.166992188 510.333007812 875.5 475 c 0
 889.833007812 439.666992188 897 398.666992188 897 352 c 0
705 309 m 0
 705 351.666992188 697.666992188 388.166992188 683 418.5 c 0
 668.333007812 448.833007812 648.833007812 475 624.5 497 c 0
 600.166992188 519 572.333007812 538.166992188 541 554.5 c 0
 509.666992188 570.833007812 477.333007812 586.333007812 444 601 c 0
 416 579 391.833007812 557.166992188 371.5 535.5 c 0
 351.166992188 513.833007812 334.333007812 491.5 321 468.5 c 0
 307.666992188 445.5 297.833007812 421.5 291.5 396.5 c 0
 285.166992188 371.5 282 344.333007812 282 315 c 0
 282 280.333007812 287.666992188 248.5 299 219.5 c 0
 310.333007812 190.5 326 165.5 346 144.5 c 0
 366 123.5 390 107.166992188 418 95.5 c 0
 446 83.8330078125 476.666992188 78 510 78 c 0
 544 78 573.166992188 84.6669921875 597.5 98 c 0
 621.833007812 111.333007812 642 128.666992188 658 150 c 0
 674 171.333007812 685.833007812 195.833007812 693.5 223.5 c 0
 701.166992188 251.166992188 705 279.666992188 705 309 c 0
303 950 m 0
 303 922 309.666992188 897.5 323 876.5 c 0
 336.333007812 855.5 354.333007812 836.833007812 377 820.5 c 0
 399.666992188 804.166992188 425.833007812 789 455.5 775 c 0
 485.166992188 761 516 747 548 733 c 0
 590 767 620 801.166992188 638 835.5 c 0
 656 869.833007812 665 904 665 938 c 0
 665 972.666992188 660 1002.33300781 650 1027 c 0
 640 1051.66699219 626.166992188 1072 608.5 1088 c 0
 590.833007812 1104 569.833007812 1115.66699219 545.5 1123 c 0
 521.166992188 1130.33300781 494.666992188 1134 466 1134 c 0
 438.666992188 1134 414.833007812 1128.66699219 394.5 1118 c 0
 374.166992188 1107.33300781 357.166992188 1093.33300781 343.5 1076 c 0
 329.833007812 1058.66699219 319.666992188 1039 313 1017 c 0
 306.333007812 995 303 972.666992188 303 950 c 0
EndSplineSet
EndChar

StartChar: nine
Encoding: 28 57 28
Width: 986
VWidth: 1024
Flags: HW
LayerCount: 2
Fore
SplineSet
900 731 m 0
 900 629.666992188 885.666992188 535.5 857 448.5 c 0
 828.333007812 361.5 784.833007812 284.166992188 726.5 216.5 c 0
 668.166992188 148.833007812 594.833007812 92.6669921875 506.5 48 c 0
 418.166992188 3.3330078125 314.333007812 -27 195 -43 c 0
 175 26 l 0
 265 48.6669921875 342 77.3330078125 406 112 c 0
 470 146.666992188 522.833007812 186.833007812 564.5 232.5 c 0
 606.166992188 278.166992188 638 328.666992188 660 384 c 0
 682 439.333007812 696.333007812 498.666992188 703 562 c 0
 667 524 626 493.833007812 580 471.5 c 0
 534 449.166992188 487.666992188 438 441 438 c 0
 385.666992188 438 336.5 447.333007812 293.5 466 c 0
 250.5 484.666992188 214.333007812 510 185 542 c 0
 155.666992188 574 133.333007812 611.666992188 118 655 c 0
 102.666992188 698.333007812 95 745 95 795 c 0
 95 845.666992188 105.333007812 897 126 949 c 0
 146.666992188 1001 175.666992188 1048.16699219 213 1090.5 c 0
 250.333007812 1132.83300781 294.833007812 1167.5 346.5 1194.5 c 0
 398.166992188 1221.5 454.666992188 1235 516 1235 c 0
 567.333007812 1235 616.333007812 1225.33300781 663 1206 c 0
 709.666992188 1186.66699219 750.5 1156.5 785.5 1115.5 c 0
 820.5 1074.5 848.333007812 1022.33300781 869 959 c 0
 889.666992188 895.666992188 900 819.666992188 900 731 c 0
491 560 m 0
 534.333007812 560 574.333007812 571.833007812 611 595.5 c 0
 647.666992188 619.166992188 680 649.333007812 708 686 c 0
 706.666992188 772 698.833007812 843.166992188 684.5 899.5 c 0
 670.166992188 955.833007812 652 1000.5 630 1033.5 c 0
 608 1066.5 583.833007812 1089.66699219 557.5 1103 c 0
 531.166992188 1116.33300781 505.333007812 1123 480 1123 c 0
 448 1123 419.5 1116.5 394.5 1103.5 c 0
 369.5 1090.5 348.333007812 1072.16699219 331 1048.5 c 0
 313.666992188 1024.83300781 300.5 996.666992188 291.5 964 c 0
 282.5 931.333007812 278 895.333007812 278 856 c 0
 278 796 285 746.833007812 299 708.5 c 0
 313 670.166992188 330.5 640 351.5 618 c 0
 372.5 596 395.5 580.833007812 420.5 572.5 c 0
 445.5 564.166992188 469 560 491 560 c 0
EndSplineSet
EndChar

StartChar: colon
Encoding: 29 58 29
Width: 497
VWidth: 1024
Flags: HW
LayerCount: 2
Fore
SplineSet
399 126 m 0
 399 102 395 79.8330078125 387 59.5 c 0
 379 39.1669921875 368.166992188 21.6669921875 354.5 7 c 0
 340.833007812 -7.6669921875 324.666992188 -19.1669921875 306 -27.5 c 0
 287.333007812 -35.8330078125 267.333007812 -40 246 -40 c 0
 209.333007812 -40 181 -30 161 -10 c 0
 141 10 131 40 131 80 c 0
 131 104 135.166992188 126 143.5 146 c 0
 151.833007812 166 163 183.5 177 198.5 c 0
 191 213.5 207.333007812 225.166992188 226 233.5 c 0
 244.666992188 241.833007812 264.333007812 246 285 246 c 0
 319.666992188 246 347.333007812 236 368 216 c 0
 388.666992188 196 399 166 399 126 c 0
399 840 m 0
 399 816 395 793.833007812 387 773.5 c 0
 379 753.166992188 368.166992188 735.666992188 354.5 721 c 0
 340.833007812 706.333007812 324.666992188 694.833007812 306 686.5 c 0
 287.333007812 678.166992188 267.333007812 674 246 674 c 0
 209.333007812 674 181 684 161 704 c 0
 141 724 131 754 131 794 c 0
 131 818 135.166992188 840 143.5 860 c 0
 151.833007812 880 163 897.5 177 912.5 c 0
 191 927.5 207.333007812 939.166992188 226 947.5 c 0
 244.666992188 955.833007812 264.333007812 960 285 960 c 0
 319.666992188 960 347.333007812 950 368 930 c 0
 388.666992188 910 399 880 399 840 c 0
EndSplineSet
EndChar

StartChar: semicolon
Encoding: 30 59 30
Width: 497
VWidth: 1024
Flags: HW
LayerCount: 2
Fore
SplineSet
409 895 m 0
 409 876 405 858 398 841 c 0
 391 824 381 809 368 796 c 0
 355 783 340 774 323 766 c 0
 306 758 287 755 268 755 c 0
 248 755 231 758 214 766 c 0
 197 774 182 783 169 796 c 0
 156 809 146 824 139 841 c 0
 132 858 128 876 128 895 c 0
 128 914 131 933 139 950 c 0
 147 967 157 982 170 995 c 0
 183 1008 198 1017 215 1025 c 0
 232 1033 250 1036 270 1036 c 0
 289 1036 308 1033 325 1025 c 0
 342 1017 357 1008 369 995 c 0
 381 982 391 967 398 950 c 0
 405 933 409 914 409 895 c 0
432 20 m 0
 432 -33 422 -80 402 -124 c 0
 382 -168 355 -207 321 -240 c 0
 287 -273 249 -300 205 -320 c 0
 161 -340 116 -352 68 -356 c 0
 68 -281 l 0
 105 -273 137 -261 166 -247 c 0
 195 -233 220 -215 239 -192 c 0
 258 -169 274 -141 284 -108 c 0
 294 -75 299 -34 298 14 c 0
 166 14 l 0
 165 15 162 19 158 24 c 0
 154 29 149 36 145 44 c 0
 141 52 136 62 133 73 c 0
 130 84 128 98 128 112 c 0
 128 130 132 148 138 165 c 0
 144 182 153 197 165 211 c 0
 177 225 190 236 206 244 c 0
 222 252 239 256 258 256 c 0
 288 256 314 250 336 238 c 0
 358 226 376 210 390 189 c 0
 404 168 415 143 422 114 c 0
 429 85 432 53 432 20 c 0
EndSplineSet
Refer: 17 46 N 1 0 0 1 0 714 2
Refer: 15 44 N 1 0 0 1 0 0 2
EndChar

StartChar: less
Encoding: 31 60 31
Width: 909
VWidth: 1024
Flags: HW
LayerCount: 2
Fore
SplineSet
851 326 m 0
 836.333007812 312.666992188 822.666992188 300 810 288 c 0
 797.333007812 276 780.666992188 263.666992188 760 251 c 0
 86 500 l 0
 58 529 l 0
 61 542 l 0
 66 558 l 0
 70.6669921875 574.666992188 75.3330078125 590.333007812 80 605 c 0
 81.3330078125 610.333007812 83 615 85 619 c 0
 87 623 88.6669921875 627 90 631 c 0
 92 635 l 0
 824 906 l 0
 851 879 l 0
 849 871.666992188 846.666992188 863.166992188 844 853.5 c 0
 841.333007812 843.833007812 838.5 833.666992188 835.5 823 c 0
 832.5 812.333007812 829.666992188 802.166992188 827 792.5 c 0
 824.333007812 782.833007812 822 775 820 769 c 0
 273 568 l 0
 832 364 l 0
 851 326 l 0
EndSplineSet
EndChar

StartChar: equal
Encoding: 32 61 32
Width: 909
VWidth: 1024
Flags: HW
LayerCount: 2
Fore
SplineSet
851 744 m 0
 849 737.333007812 846.5 729.666992188 843.5 721 c 0
 840.5 712.333007812 837.333007812 703.833007812 834 695.5 c 0
 830.666992188 687.166992188 827.5 679 824.5 671 c 0
 821.5 663 819 656 817 650 c 0
 86 650 l 0
 58 677 l 0
 61.3330078125 691 66.6669921875 707 74 725 c 0
 81.3330078125 743 88 758.333007812 94 771 c 0
 824 771 l 0
 851 744 l 0
851 444 m 0
 847.666992188 430 842.166992188 413.833007812 834.5 395.5 c 0
 826.833007812 377.166992188 821 362 817 350 c 0
 86 350 l 0
 58 379 l 0
 61.3330078125 392.333007812 66.6669921875 407.666992188 74 425 c 0
 81.3330078125 442.333007812 88 457.666992188 94 471 c 0
 824 471 l 0
 851 444 l 0
EndSplineSet
EndChar

StartChar: greater
Encoding: 33 62 33
Width: 909
VWidth: 1024
Flags: HW
LayerCount: 2
Fore
SplineSet
851 628 m 0
 849 620.666992188 846.833007812 612.5 844.5 603.5 c 0
 842.166992188 594.5 839.5 585 836.5 575 c 0
 833.5 565 830.333007812 555.333007812 827 546 c 0
 823.666992188 536.666992188 820.666992188 528 818 520 c 0
 86 251 l 0
 58 279 l 0
 60 285.666992188 62.5 293.833007812 65.5 303.5 c 0
 68.5 313.166992188 71.5 323.166992188 74.5 333.5 c 0
 77.5 343.833007812 80.5 353.833007812 83.5 363.5 c 0
 86.5 373.166992188 89 381 91 387 c 0
 634 587 l 0
 78 792 l 0
 58 832 l 0
 73.3330078125 844.666992188 89 857.5 105 870.5 c 0
 121 883.5 136 895.333007812 150 906 c 0
 825 658 l 0
 851 628 l 0
EndSplineSet
EndChar

StartChar: question
Encoding: 34 63 34
Width: 902
VWidth: 1024
Flags: HW
LayerCount: 2
Fore
SplineSet
562 126 m 0
 562 102 558 79.8330078125 550 59.5 c 0
 542 39.1669921875 531.166992188 21.6669921875 517.5 7 c 0
 503.833007812 -7.6669921875 487.666992188 -19.1669921875 469 -27.5 c 0
 450.333007812 -35.8330078125 430.333007812 -40 409 -40 c 0
 372.333007812 -40 344 -30 324 -10 c 0
 304 10 294 40 294 80 c 0
 294 104 298.166992188 126 306.5 146 c 0
 314.833007812 166 326 183.5 340 198.5 c 0
 354 213.5 370.333007812 225.166992188 389 233.5 c 0
 407.666992188 241.833007812 427.333007812 246 448 246 c 0
 482.666992188 246 510.333007812 236 531 216 c 0
 551.666992188 196 562 166 562 126 c 0
826 1165 m 0
 826 1115 818 1069.83300781 802 1029.5 c 0
 786 989.166992188 765.666992188 951.5 741 916.5 c 0
 716.333007812 881.5 689.5 848.166992188 660.5 816.5 c 0
 631.5 784.833007812 604.333007812 752.333007812 579 719 c 0
 553.666992188 685.666992188 532 650.833007812 514 614.5 c 0
 496 578.166992188 485.333007812 537.666992188 482 493 c 0
 476 397 l 0
 463.333007812 387.666992188 450.833007812 379.833007812 438.5 373.5 c 0
 426.166992188 367.166992188 410.666992188 361.333007812 392 356 c 0
 365 379 l 0
 357 493 l 0
 355 531 360.333007812 568.666992188 373 606 c 0
 385.666992188 643.333007812 402.166992188 679.833007812 422.5 715.5 c 0
 442.833007812 751.166992188 465 786.5 489 821.5 c 0
 513 856.5 535.5 890.833007812 556.5 924.5 c 0
 577.5 958.166992188 595 991.166992188 609 1023.5 c 0
 623 1055.83300781 630 1088 630 1120 c 0
 630 1202.66699219 613 1266.16699219 579 1310.5 c 0
 545 1354.83300781 496.666992188 1377 434 1377 c 0
 412.666992188 1377 392.166992188 1372 372.5 1362 c 0
 352.833007812 1352 335.5 1338.16699219 320.5 1320.5 c 0
 305.5 1302.83300781 293.666992188 1282.5 285 1259.5 c 0
 276.333007812 1236.5 272 1212 272 1186 c 0
 272 1176.66699219 273.166992188 1166.66699219 275.5 1156 c 0
 277.833007812 1145.33300781 280.666992188 1135.33300781 284 1126 c 0
 273.333007812 1120.66699219 260.833007812 1115.5 246.5 1110.5 c 0
 232.166992188 1105.5 217.166992188 1101 201.5 1097 c 0
 185.833007812 1093 169.833007812 1089.5 153.5 1086.5 c 0
 137.166992188 1083.5 121.666992188 1081.33300781 107 1080 c 0
 77 1113 l 0
 75.6669921875 1118.33300781 75 1124.66699219 75 1132 c 0
 75 1151 l 0
 75 1197.66699219 86.8330078125 1241.16699219 110.5 1281.5 c 0
 134.166992188 1321.83300781 166 1356.66699219 206 1386 c 0
 246 1415.33300781 292.333007812 1438.33300781 345 1455 c 0
 397.666992188 1471.66699219 452.666992188 1480 510 1480 c 0
 560.666992188 1480 605.666992188 1472.33300781 645 1457 c 0
 684.333007812 1441.66699219 717.5 1420.16699219 744.5 1392.5 c 0
 771.5 1364.83300781 791.833007812 1331.66699219 805.5 1293 c 0
 819.166992188 1254.33300781 826 1211.66699219 826 1165 c 0
EndSplineSet
EndChar

StartChar: at
Encoding: 35 64 35
Width: 1701
VWidth: 1024
Flags: HW
LayerCount: 2
Fore
SplineSet
1626 557 m 0
 1626 499.666992188 1619.33300781 445.333007812 1606 394 c 0
 1592.66699219 342.666992188 1574.83300781 295.333007812 1552.5 252 c 0
 1530.16699219 208.666992188 1504 169.5 1474 134.5 c 0
 1444 99.5 1412.33300781 69.8330078125 1379 45.5 c 0
 1345.66699219 21.1669921875 1311.66699219 2.5 1277 -10.5 c 0
 1242.33300781 -23.5 1209 -30 1177 -30 c 0
 1159.66699219 -30 1143.16699219 -26.8330078125 1127.5 -20.5 c 0
 1111.83300781 -14.1669921875 1097.66699219 -3.8330078125 1085 10.5 c 0
 1072.33300781 24.8330078125 1061.33300781 43.6669921875 1052 67 c 0
 1042.66699219 90.3330078125 1035.33300781 118.666992188 1030 152 c 0
 1002.66699219 116 978.666992188 86.3330078125 958 63 c 0
 937.333007812 39.6669921875 917.166992188 21 897.5 7 c 0
 877.833007812 -7 857.833007812 -16.6669921875 837.5 -22 c 0
 817.166992188 -27.3330078125 793.666992188 -30 767 -30 c 0
 733 -30 698.5 -19.6669921875 663.5 1 c 0
 628.5 21.6669921875 597 52 569 92 c 0
 541 132 518 181.333007812 500 240 c 0
 482 298.666992188 473 366 473 442 c 0
 473 481.333007812 477.5 521.5 486.5 562.5 c 0
 495.5 603.5 508.666992188 643.166992188 526 681.5 c 0
 543.333007812 719.833007812 564.5 756 589.5 790 c 0
 614.5 824 642.833007812 853.5 674.5 878.5 c 0
 706.166992188 903.5 741.333007812 923.333007812 780 938 c 0
 818.666992188 952.666992188 860 960 904 960 c 0
 919.333007812 960 933.5 958.833007812 946.5 956.5 c 0
 959.5 954.166992188 972.333007812 949.666992188 985 943 c 0
 997.666992188 936.333007812 1010.83300781 927 1024.5 915 c 0
 1038.16699219 903 1053.66699219 887.333007812 1071 868 c 0
 1095 879.333007812 1117.5 892.333007812 1138.5 907 c 0
 1159.5 921.666992188 1181 939.333007812 1203 960 c 0
 1234 930 l 0
 1228 910 1223 888.333007812 1219 865 c 0
 1215 845 1211.5 822.166992188 1208.5 796.5 c 0
 1205.5 770.833007812 1204 744 1204 716 c 0
 1204 285 l 0
 1204 231.666992188 1212.16699219 192 1228.5 166 c 0
 1244.83300781 140 1268.66699219 127 1300 127 c 0
 1316.66699219 127 1335.5 136.5 1356.5 155.5 c 0
 1377.5 174.5 1397.16699219 201 1415.5 235 c 0
 1433.83300781 269 1449.33300781 309.666992188 1462 357 c 0
 1474.66699219 404.333007812 1481 456 1481 512 c 0
 1481 624.666992188 1466.83300781 724.333007812 1438.5 811 c 0
 1410.16699219 897.666992188 1370.5 970.166992188 1319.5 1028.5 c 0
 1268.5 1086.83300781 1207.5 1131 1136.5 1161 c 0
 1065.5 1191 987.666992188 1206 903 1206 c 0
 835 1206 771.666992188 1197.5 713 1180.5 c 0
 654.333007812 1163.5 600.833007812 1139.83300781 552.5 1109.5 c 0
 504.166992188 1079.16699219 461.166992188 1042.83300781 423.5 1000.5 c 0
 385.833007812 958.166992188 354.166992188 911.666992188 328.5 861 c 0
 302.833007812 810.333007812 283.333007812 756.5 270 699.5 c 0
 256.666992188 642.5 250 584 250 524 c 0
 250 442 258.333007812 366.166992188 275 296.5 c 0
 291.666992188 226.833007812 315 163.333007812 345 106 c 0
 375 48.6669921875 410.833007812 -2.1669921875 452.5 -46.5 c 0
 494.166992188 -90.8330078125 540.166992188 -128 590.5 -158 c 0
 640.833007812 -188 694.5 -210.833007812 751.5 -226.5 c 0
 808.5 -242.166992188 867.333007812 -250 928 -250 c 0
 986.666992188 -250 1043.33300781 -244.166992188 1098 -232.5 c 0
 1152.66699219 -220.833007812 1203 -206.333007812 1249 -189 c 0
 1295 -171.666992188 1335.5 -153 1370.5 -133 c 0
 1405.5 -113 1433 -94.3330078125 1453 -77 c 0
 1487 -143 l 0
 1463 -169 1431.83300781 -196.333007812 1393.5 -225 c 0
 1355.16699219 -253.666992188 1310.5 -280 1259.5 -304 c 0
 1208.5 -328 1151 -348 1087 -364 c 0
 1023 -380 953.666992188 -388 879 -388 c 0
 761 -388 652.833007812 -368.166992188 554.5 -328.5 c 0
 456.166992188 -288.833007812 371.5 -232.166992188 300.5 -158.5 c 0
 229.5 -84.8330078125 174.166992188 4.6669921875 134.5 110 c 0
 94.8330078125 215.333007812 75 333.666992188 75 465 c 0
 75 542.333007812 85.3330078125 617.666992188 106 691 c 0
 126.666992188 764.333007812 155.833007812 833.5 193.5 898.5 c 0
 231.166992188 963.5 276.333007812 1023.16699219 329 1077.5 c 0
 381.666992188 1131.83300781 440.166992188 1178.66699219 504.5 1218 c 0
 568.833007812 1257.33300781 637.833007812 1288 711.5 1310 c 0
 785.166992188 1332 862 1343 942 1343 c 0
 1044 1343 1137 1326.33300781 1221 1293 c 0
 1305 1259.66699219 1377 1210.16699219 1437 1144.5 c 0
 1497 1078.83300781 1543.5 997 1576.5 899 c 0
 1609.5 801 1626 687 1626 557 c 0
1024 731 m 0
 1015.33300781 748.333007812 1006.5 763.833007812 997.5 777.5 c 0
 988.5 791.166992188 978.166992188 802.833007812 966.5 812.5 c 0
 954.833007812 822.166992188 941.833007812 829.666992188 927.5 835 c 0
 913.166992188 840.333007812 896.666992188 843 878 843 c 0
 809.333007812 843 754.666992188 812.5 714 751.5 c 0
 673.333007812 690.5 653 597.666992188 653 473 c 0
 653 416.333007812 659 366 671 322 c 0
 683 278 698.5 241 717.5 211 c 0
 736.5 181 757.5 158.333007812 780.5 143 c 0
 803.5 127.666992188 826 120 848 120 c 0
 860.666992188 120 872.833007812 122.166992188 884.5 126.5 c 0
 896.166992188 130.833007812 908.5 138.166992188 921.5 148.5 c 0
 934.5 158.833007812 949.166992188 173 965.5 191 c 0
 981.833007812 209 1001.33300781 232 1024 260 c 0
 1024 731 l 0
EndSplineSet
EndChar

StartChar: A
Encoding: 36 65 36
Width: 1242
VWidth: 1024
Flags: HW
LayerCount: 2
Fore
SplineSet
385 440 m 0
 279 121 l 0
 272.333007812 100.333007812 281 85.3330078125 305 76 c 0
 329 66.6669921875 368.333007812 59 423 53 c 0
 423 0 l 0
 0 0 l 0
 0 53 l 0
 45.3330078125 61 81 69.3330078125 107 78 c 0
 133 86.6669921875 149.333007812 101 156 121 c 0
 520 1227 l 0
 541.333007812 1247 566.166992188 1264.66699219 594.5 1280 c 0
 622.833007812 1295.33300781 648.666992188 1307.66699219 672 1317 c 0
 1092 121 l 0
 1095.33300781 111.666992188 1099.83300781 103.333007812 1105.5 96 c 0
 1111.16699219 88.6669921875 1119 82.3330078125 1129 77 c 0
 1139 71.6669921875 1151.5 67 1166.5 63 c 0
 1181.5 59 1199.66699219 55.6669921875 1221 53 c 0
 1221 0 l 0
 774 0 l 0
 774 53 l 0
 826 56.3330078125 861.666992188 63 881 73 c 0
 900.333007812 83 906.333007812 99 899 121 c 0
 789 440 l 0
 385 440 l 0
754 540 m 0
 582 1038 l 0
 418 540 l 0
 754 540 l 0
EndSplineSet
EndChar

StartChar: B
Encoding: 37 66 37
Width: 1161
VWidth: 1024
Flags: HW
LayerCount: 2
Fore
SplineSet
1054 356 m 0
 1054 299.333007812 1042.66699219 248.166992188 1020 202.5 c 0
 997.333007812 156.833007812 965.166992188 118 923.5 86 c 0
 881.833007812 54 831.666992188 29.3330078125 773 12 c 0
 714.333007812 -5.3330078125 649 -14 577 -14 c 0
 562.333007812 -14 544.5 -13.8330078125 523.5 -13.5 c 0
 502.5 -13.1669921875 480 -12.6669921875 456 -12 c 0
 432 -11.3330078125 407.166992188 -10.6669921875 381.5 -10 c 0
 355.833007812 -9.3330078125 330.666992188 -8.3330078125 306 -7 c 0
 248 -5 187 -2.6669921875 123 0 c 0
 48 0 l 0
 48 53 l 0
 93.3330078125 62.3330078125 128.333007812 72.5 153 83.5 c 0
 177.666992188 94.5 190 104.666992188 190 114 c 0
 190 1182 l 0
 164.666992188 1178.66699219 140 1175.33300781 116 1172 c 0
 92 1168.66699219 69.3330078125 1165 48 1161 c 0
 37 1230 l 0
 64.3330078125 1237.33300781 96.1669921875 1244.5 132.5 1251.5 c 0
 168.833007812 1258.5 207.166992188 1264.83300781 247.5 1270.5 c 0
 287.833007812 1276.16699219 328.833007812 1280.83300781 370.5 1284.5 c 0
 412.166992188 1288.16699219 451.666992188 1290 489 1290 c 0
 559 1290 622.166992188 1283.83300781 678.5 1271.5 c 0
 734.833007812 1259.16699219 782.5 1241.33300781 821.5 1218 c 0
 860.5 1194.66699219 890.5 1166.33300781 911.5 1133 c 0
 932.5 1099.66699219 943 1062 943 1020 c 0
 943 948 925.166992188 886.333007812 889.5 835 c 0
 853.833007812 783.666992188 804 746.333007812 740 723 c 0
 784.666992188 715 826.166992188 700 864.5 678 c 0
 902.833007812 656 936 628.833007812 964 596.5 c 0
 992 564.166992188 1014 527.5 1030 486.5 c 0
 1046 445.5 1054 402 1054 356 c 0
535 646 m 0
 503 646 474.833007812 644.5 450.5 641.5 c 0
 426.166992188 638.5 402.666992188 635.333007812 380 632 c 0
 380 112 l 0
 380 107.333007812 382.666992188 102.666992188 388 98 c 0
 398.666992188 94 410.666992188 90.6669921875 424 88 c 0
 437.333007812 85.3330078125 451.166992188 83.3330078125 465.5 82 c 0
 479.833007812 80.6669921875 494.166992188 79.6669921875 508.5 79 c 0
 522.833007812 78.3330078125 536.666992188 78 550 78 c 0
 598 78 641 84 679 96 c 0
 717 108 749.166992188 124.833007812 775.5 146.5 c 0
 801.833007812 168.166992188 822 194.333007812 836 225 c 0
 850 255.666992188 857 289.666992188 857 327 c 0
 857 363.666992188 851.166992188 401 839.5 439 c 0
 827.833007812 477 809 511.333007812 783 542 c 0
 757 572.666992188 723.666992188 597.666992188 683 617 c 0
 642.333007812 636.333007812 593 646 535 646 c 0
431 1199 m 0
 423 1199 414.833007812 1198.83300781 406.5 1198.5 c 0
 398.166992188 1198.16699219 389.333007812 1198 380 1198 c 0
 380 730 l 0
 409 730 l 0
 481.666992188 730 540.666992188 737.166992188 586 751.5 c 0
 631.333007812 765.833007812 666.5 784.5 691.5 807.5 c 0
 716.5 830.5 733.333007812 856.333007812 742 885 c 0
 750.666992188 913.666992188 755 942.333007812 755 971 c 0
 755 1004.33300781 749.666992188 1035 739 1063 c 0
 728.333007812 1091 710.5 1115 685.5 1135 c 0
 660.5 1155 627.333007812 1170.66699219 586 1182 c 0
 544.666992188 1193.33300781 493 1199 431 1199 c 0
EndSplineSet
EndChar

StartChar: C
Encoding: 38 67 38
Width: 1113
VWidth: 1024
Flags: HW
LayerCount: 2
Fore
SplineSet
1036 211 m 0
 993.333007812 166.333007812 952.166992188 128.666992188 912.5 98 c 0
 872.833007812 67.3330078125 834 42.5 796 23.5 c 0
 758 4.5 720.833007812 -9.1669921875 684.5 -17.5 c 0
 648.166992188 -25.8330078125 612 -30 576 -30 c 0
 512.666992188 -30 450.333007812 -16 389 12 c 0
 327.666992188 40 273 80.3330078125 225 133 c 0
 177 185.666992188 138.333007812 250.166992188 109 326.5 c 0
 79.6669921875 402.833007812 65 489.333007812 65 586 c 0
 65 692.666992188 81.1669921875 789.333007812 113.5 876 c 0
 145.833007812 962.666992188 190 1036.66699219 246 1098 c 0
 302 1159.33300781 367.333007812 1206.66699219 442 1240 c 0
 516.666992188 1273.33300781 596.333007812 1290 681 1290 c 0
 717 1290 751.5 1287.33300781 784.5 1282 c 0
 817.5 1276.66699219 848.333007812 1269.5 877 1260.5 c 0
 905.666992188 1251.5 931.833007812 1241 955.5 1229 c 0
 979.166992188 1217 999.666992188 1204 1017 1190 c 0
 1021 1186.66699219 1019.66699219 1178.33300781 1013 1165 c 0
 1006.33300781 1151.66699219 997.5 1136.83300781 986.5 1120.5 c 0
 975.5 1104.16699219 964 1088.16699219 952 1072.5 c 0
 940 1056.83300781 930 1045 922 1037 c 0
 877 1046 l 0
 843 1086 803.166992188 1117.16699219 757.5 1139.5 c 0
 711.833007812 1161.83300781 660 1173 602 1173 c 0
 579.333007812 1173 554.833007812 1169 528.5 1161 c 0
 502.166992188 1153 476.166992188 1140.16699219 450.5 1122.5 c 0
 424.833007812 1104.83300781 400 1081.83300781 376 1053.5 c 0
 352 1025.16699219 331 990.666992188 313 950 c 0
 295 909.333007812 280.5 862 269.5 808 c 0
 258.5 754 253 692.333007812 253 623 c 0
 253 535.666992188 265.333007812 459.5 290 394.5 c 0
 314.666992188 329.5 346.333007812 275.5 385 232.5 c 0
 423.666992188 189.5 467 157.5 515 136.5 c 0
 563 115.5 610 105 656 105 c 0
 674 105 695 107.666992188 719 113 c 0
 743 118.333007812 769.333007812 127.166992188 798 139.5 c 0
 826.666992188 151.833007812 857.5 168.166992188 890.5 188.5 c 0
 923.5 208.833007812 958 234 994 264 c 0
 997.333007812 262 1001 258.5 1005 253.5 c 0
 1009 248.5 1013 243.166992188 1017 237.5 c 0
 1021 231.833007812 1024.66699219 226.5 1028 221.5 c 0
 1031.33300781 216.5 1034 213 1036 211 c 0
EndSplineSet
EndChar

StartChar: D
Encoding: 39 68 39
Width: 1244
VWidth: 1024
Flags: HW
LayerCount: 2
Fore
SplineSet
1156 676 m 0
 1156 592.666992188 1147.5 518.166992188 1130.5 452.5 c 0
 1113.5 386.833007812 1090.5 328.833007812 1061.5 278.5 c 0
 1032.5 228.166992188 998.833007812 185.5 960.5 150.5 c 0
 922.166992188 115.5 881.666992188 86.8330078125 839 64.5 c 0
 796.333007812 42.1669921875 752.666992188 25.8330078125 708 15.5 c 0
 663.333007812 5.1669921875 620.333007812 0 579 0 c 0
 48 0 l 0
 48 53 l 0
 93.3330078125 62.3330078125 128.333007812 72.5 153 83.5 c 0
 177.666992188 94.5 190 104.666992188 190 114 c 0
 190 1178 l 0
 164 1174.66699219 139 1171.33300781 115 1168 c 0
 91 1164.66699219 68.6669921875 1161.33300781 48 1158 c 0
 37 1230 l 0
 67.6669921875 1238 103.333007812 1245.66699219 144 1253 c 0
 184.666992188 1260.33300781 227.333007812 1266.83300781 272 1272.5 c 0
 316.666992188 1278.16699219 362 1282.5 408 1285.5 c 0
 454 1288.5 497.333007812 1290 538 1290 c 0
 634 1290 720.166992188 1276.16699219 796.5 1248.5 c 0
 872.833007812 1220.83300781 937.666992188 1180.66699219 991 1128 c 0
 1044.33300781 1075.33300781 1085.16699219 1011 1113.5 935 c 0
 1141.83300781 859 1156 772.666992188 1156 676 c 0
471 1199 m 0
 440.333007812 1199 410 1198 380 1196 c 0
 380 164 l 0
 380 149.333007812 382.666992188 137 388 127 c 0
 396.666992188 115 413.333007812 106.166992188 438 100.5 c 0
 462.666992188 94.8330078125 500.666992188 92 552 92 c 0
 595.333007812 92 640.666992188 102.833007812 688 124.5 c 0
 735.333007812 146.166992188 778.666992188 179.333007812 818 224 c 0
 857.333007812 268.666992188 889.666992188 325.166992188 915 393.5 c 0
 940.333007812 461.833007812 953 543 953 637 c 0
 953 725.666992188 942.5 804.833007812 921.5 874.5 c 0
 900.5 944.166992188 869.5 1003 828.5 1051 c 0
 787.5 1099 737.166992188 1135.66699219 677.5 1161 c 0
 617.833007812 1186.33300781 549 1199 471 1199 c 0
EndSplineSet
EndChar

StartChar: E
Encoding: 40 69 40
Width: 1036
VWidth: 1024
Flags: HW
LayerCount: 2
Fore
SplineSet
979 264 m 0
 976.333007812 235.333007812 973.333007812 207.333007812 970 180 c 0
 966.666992188 152.666992188 963 127.166992188 959 103.5 c 0
 955 79.8330078125 951.166992188 59.1669921875 947.5 41.5 c 0
 943.833007812 23.8330078125 940.666992188 10 938 0 c 0
 48 0 l 0
 48 53 l 0
 93.3330078125 62.3330078125 128.333007812 72.5 153 83.5 c 0
 177.666992188 94.5 190 104.666992188 190 114 c 0
 190 1145 l 0
 190 1153 178.333007812 1163 155 1175 c 0
 131.666992188 1187 96 1197.66699219 48 1207 c 0
 48 1260 l 0
 879 1260 l 0
 914 1233 l 0
 912.666992188 1215.66699219 910.666992188 1195.83300781 908 1173.5 c 0
 905.333007812 1151.16699219 902 1128.5 898 1105.5 c 0
 894 1082.5 889.833007812 1060.66699219 885.5 1040 c 0
 881.166992188 1019.33300781 877 1002.66699219 873 990 c 0
 818 990 l 0
 814.666992188 1051.33300781 806.333007812 1095 793 1121 c 0
 779.666992188 1147 760.666992188 1160 736 1160 c 0
 380 1160 l 0
 380 735 l 0
 783 735 l 0
 811 705 l 0
 805.666992188 695.666992188 799.166992188 685.333007812 791.5 674 c 0
 783.833007812 662.666992188 775.833007812 651.666992188 767.5 641 c 0
 759.166992188 630.333007812 750.833007812 620.333007812 742.5 611 c 0
 734.166992188 601.666992188 726.333007812 594.333007812 719 589 c 0
 709 599 698.166992188 607.333007812 686.5 614 c 0
 674.833007812 620.666992188 661.5 626.333007812 646.5 631 c 0
 631.5 635.666992188 613.833007812 639 593.5 641 c 0
 573.166992188 643 549 644 521 644 c 0
 380 644 l 0
 380 164 l 0
 380 154 382.333007812 145.166992188 387 137.5 c 0
 391.666992188 129.833007812 401.333007812 123.166992188 416 117.5 c 0
 430.666992188 111.833007812 451.333007812 107.5 478 104.5 c 0
 504.666992188 101.5 540 100 584 100 c 0
 703 100 l 0
 733.666992188 100 759.833007812 102.333007812 781.5 107 c 0
 803.166992188 111.666992188 822.333007812 120.666992188 839 134 c 0
 855.666992188 147.333007812 870.833007812 166 884.5 190 c 0
 898.166992188 214 912 245.666992188 926 285 c 0
 979 264 l 0
EndSplineSet
EndChar

StartChar: F
Encoding: 41 70 41
Width: 999
VWidth: 1024
Flags: HW
LayerCount: 2
Fore
SplineSet
48 0 m 0
 48 53 l 0
 93.3330078125 62.3330078125 128.333007812 72.5 153 83.5 c 0
 177.666992188 94.5 190 104.666992188 190 114 c 0
 190 1145 l 0
 190 1153 178.333007812 1163 155 1175 c 0
 131.666992188 1187 96 1197.66699219 48 1207 c 0
 48 1260 l 0
 889 1260 l 0
 922 1233 l 0
 921.333007812 1215.66699219 919.666992188 1195.83300781 917 1173.5 c 0
 914.333007812 1151.16699219 911.166992188 1128.5 907.5 1105.5 c 0
 903.833007812 1082.5 899.833007812 1060.66699219 895.5 1040 c 0
 891.166992188 1019.33300781 887 1002.66699219 883 990 c 0
 826 990 l 0
 824 1051.33300781 816.166992188 1095 802.5 1121 c 0
 788.833007812 1147 769.333007812 1160 744 1160 c 0
 380 1160 l 0
 380 735 l 0
 752 735 l 0
 783 705 l 0
 777 695 770 684.333007812 762 673 c 0
 754 661.666992188 745.666992188 650.666992188 737 640 c 0
 728.333007812 629.333007812 719.833007812 619.5 711.5 610.5 c 0
 703.166992188 601.5 695.666992188 594.333007812 689 589 c 0
 679 599 668.333007812 607.333007812 657 614 c 0
 645.666992188 620.666992188 632.5 626.333007812 617.5 631 c 0
 602.5 635.666992188 584.833007812 639 564.5 641 c 0
 544.166992188 643 520 644 492 644 c 0
 380 644 l 0
 380 114 l 0
 380 110 382.833007812 105.666992188 388.5 101 c 0
 394.166992188 96.3330078125 403.833007812 91.5 417.5 86.5 c 0
 431.166992188 81.5 449 76.1669921875 471 70.5 c 0
 493 64.8330078125 520.333007812 59 553 53 c 0
 553 0 l 0
 48 0 l 0
EndSplineSet
EndChar

StartChar: G
Encoding: 42 71 42
Width: 1207
VWidth: 1024
Flags: HW
LayerCount: 2
Fore
SplineSet
1060 1188 m 0
 1064.66699219 1184.66699219 1063.66699219 1176.5 1057 1163.5 c 0
 1050.33300781 1150.5 1041.16699219 1136.33300781 1029.5 1121 c 0
 1017.83300781 1105.66699219 1005.33300781 1090.5 992 1075.5 c 0
 978.666992188 1060.5 967.666992188 1049 959 1041 c 0
 916 1050 l 0
 894 1074.66699219 871.5 1095 848.5 1111 c 0
 825.5 1127 801.5 1139.83300781 776.5 1149.5 c 0
 751.5 1159.16699219 725 1165.83300781 697 1169.5 c 0
 669 1173.16699219 639.333007812 1175 608 1175 c 0
 591.333007812 1175 571 1171.33300781 547 1164 c 0
 523 1156.66699219 497.833007812 1144.66699219 471.5 1128 c 0
 445.166992188 1111.33300781 419 1089.33300781 393 1062 c 0
 367 1034.66699219 343.666992188 1001.16699219 323 961.5 c 0
 302.333007812 921.833007812 285.5 875.166992188 272.5 821.5 c 0
 259.5 767.833007812 253 706.333007812 253 637 c 0
 253 545.666992188 264.666992188 466.5 288 399.5 c 0
 311.333007812 332.5 342 277 380 233 c 0
 418 189 461 156.333007812 509 135 c 0
 557 113.666992188 605.666992188 103 655 103 c 0
 700.333007812 103 741.333007812 107.333007812 778 116 c 0
 814.666992188 124.666992188 848 137 878 153 c 0
 878 480 l 0
 878 487.333007812 875.5 494.5 870.5 501.5 c 0
 865.5 508.5 856 515.333007812 842 522 c 0
 828 528.666992188 808.5 535.333007812 783.5 542 c 0
 758.5 548.666992188 726.333007812 555.333007812 687 562 c 0
 687 615 l 0
 1160 615 l 0
 1160 562 l 0
 1122 552.666992188 1095.5 540.5 1080.5 525.5 c 0
 1065.5 510.5 1058 495.333007812 1058 480 c 0
 1058 159 l 0
 1008.66699219 118.333007812 963.833007812 85.6669921875 923.5 61 c 0
 883.166992188 36.3330078125 845.833007812 17.1669921875 811.5 3.5 c 0
 777.166992188 -10.1669921875 744.666992188 -19.1669921875 714 -23.5 c 0
 683.333007812 -27.8330078125 653 -30 623 -30 c 0
 554.333007812 -30 486.666992188 -17.5 420 7.5 c 0
 353.333007812 32.5 293.666992188 70.5 241 121.5 c 0
 188.333007812 172.5 145.833007812 236.166992188 113.5 312.5 c 0
 81.1669921875 388.833007812 65 478.666992188 65 582 c 0
 65 692.666992188 82.6669921875 791.833007812 118 879.5 c 0
 153.333007812 967.166992188 201.5 1041.5 262.5 1102.5 c 0
 323.5 1163.5 395.166992188 1210 477.5 1242 c 0
 559.833007812 1274 648 1290 742 1290 c 0
 764 1290 788.833007812 1287.66699219 816.5 1283 c 0
 844.166992188 1278.33300781 872.5 1271.66699219 901.5 1263 c 0
 930.5 1254.33300781 958.833007812 1243.66699219 986.5 1231 c 0
 1014.16699219 1218.33300781 1038.66699219 1204 1060 1188 c 0
EndSplineSet
EndChar

StartChar: H
Encoding: 43 72 43
Width: 1359
VWidth: 1024
Flags: HW
LayerCount: 2
Fore
SplineSet
48 0 m 0
 48 53 l 0
 93.3330078125 62.3330078125 128.333007812 72.5 153 83.5 c 0
 177.666992188 94.5 190 104.666992188 190 114 c 0
 190 1145 l 0
 190 1153 178.333007812 1163 155 1175 c 0
 131.666992188 1187 96 1197.66699219 48 1207 c 0
 48 1260 l 0
 523 1260 l 0
 523 1207 l 0
 477.666992188 1197.66699219 442.5 1187.33300781 417.5 1176 c 0
 392.5 1164.66699219 380 1154.33300781 380 1145 c 0
 380 710 l 0
 960 710 l 0
 960 1145 l 0
 960 1153 948.333007812 1163 925 1175 c 0
 901.666992188 1187 866 1197.66699219 818 1207 c 0
 818 1260 l 0
 1293 1260 l 0
 1293 1207 l 0
 1247.66699219 1197.66699219 1212.5 1187.33300781 1187.5 1176 c 0
 1162.5 1164.66699219 1150 1154.33300781 1150 1145 c 0
 1150 114 l 0
 1150 106 1161.83300781 96.1669921875 1185.5 84.5 c 0
 1209.16699219 72.8330078125 1245 62.3330078125 1293 53 c 0
 1293 0 l 0
 818 0 l 0
 818 53 l 0
 863.333007812 62.3330078125 898.333007812 72.5 923 83.5 c 0
 947.666992188 94.5 960 104.666992188 960 114 c 0
 960 610 l 0
 380 610 l 0
 380 114 l 0
 380 106 391.666992188 96.1669921875 415 84.5 c 0
 438.333007812 72.8330078125 474.333007812 62.3330078125 523 53 c 0
 523 0 l 0
 48 0 l 0
EndSplineSet
EndChar

StartChar: I
Encoding: 44 73 44
Width: 630
VWidth: 1024
Flags: HW
LayerCount: 2
Fore
SplineSet
68 0 m 0
 68 53 l 0
 113.333007812 62.3330078125 148.333007812 72.5 173 83.5 c 0
 197.666992188 94.5 210 104.666992188 210 114 c 0
 210 1145 l 0
 210 1153 198.333007812 1163 175 1175 c 0
 151.666992188 1187 116 1197.66699219 68 1207 c 0
 68 1260 l 0
 543 1260 l 0
 543 1207 l 0
 497.666992188 1197.66699219 462.5 1187.33300781 437.5 1176 c 0
 412.5 1164.66699219 400 1154.33300781 400 1145 c 0
 400 114 l 0
 400 106 411.833007812 96.1669921875 435.5 84.5 c 0
 459.166992188 72.8330078125 495 62.3330078125 543 53 c 0
 543 0 l 0
 68 0 l 0
EndSplineSet
EndChar

StartChar: J
Encoding: 45 74 45
Width: 645
VWidth: 1024
Flags: HW
LayerCount: 2
Fore
SplineSet
578 1207 m 0
 532.666992188 1197.66699219 497.5 1187.33300781 472.5 1176 c 0
 447.5 1164.66699219 435 1154.33300781 435 1145 c 0
 435 198 l 0
 435 120.666992188 429 55.5 417 2.5 c 0
 405 -50.5 389 -95.6669921875 369 -133 c 0
 349 -170.333007812 326.333007812 -201.5 301 -226.5 c 0
 275.666992188 -251.5 250 -274.666992188 224 -296 c 0
 206 -310.666992188 186 -324 164 -336 c 0
 142 -348 119.666992188 -358.166992188 97 -366.5 c 0
 74.3330078125 -374.833007812 52.3330078125 -381.333007812 31 -386 c 0
 9.6669921875 -390.666992188 -9 -393 -25 -393 c 0
 -48.3330078125 -393 -71.3330078125 -389.666992188 -94 -383 c 0
 -116.666992188 -376.333007812 -137 -368.5 -155 -359.5 c 0
 -173 -350.5 -187.5 -341.166992188 -198.5 -331.5 c 0
 -209.5 -321.833007812 -215 -314 -215 -308 c 0
 -215 -302 -209.833007812 -293 -199.5 -281 c 0
 -189.166992188 -269 -176.833007812 -256.666992188 -162.5 -244 c 0
 -148.166992188 -231.333007812 -133.5 -219.666992188 -118.5 -209 c 0
 -103.5 -198.333007812 -91.3330078125 -191.333007812 -82 -188 c 0
 -63.3330078125 -201.333007812 -46.5 -212.333007812 -31.5 -221 c 0
 -16.5 -229.666992188 -2.3330078125 -236.5 11 -241.5 c 0
 24.3330078125 -246.5 37.1669921875 -250 49.5 -252 c 0
 61.8330078125 -254 74.3330078125 -255 87 -255 c 0
 104.333007812 -255 122.333007812 -249.833007812 141 -239.5 c 0
 159.666992188 -229.166992188 176.666992188 -210 192 -182 c 0
 207.333007812 -154 220 -115.333007812 230 -66 c 0
 240 -16.6669921875 245 47.3330078125 245 126 c 0
 245 1145 l 0
 245 1149 242.5 1153.33300781 237.5 1158 c 0
 232.5 1162.66699219 223 1167.66699219 209 1173 c 0
 195 1178.33300781 175.5 1183.83300781 150.5 1189.5 c 0
 125.5 1195.16699219 93 1201 53 1207 c 0
 53 1260 l 0
 578 1260 l 0
 578 1207 l 0
EndSplineSet
EndChar

StartChar: K
Encoding: 46 75 46
Width: 1212
VWidth: 1024
Flags: HW
LayerCount: 2
Fore
SplineSet
48 0 m 0
 48 53 l 0
 93.3330078125 62.3330078125 128.333007812 72.5 153 83.5 c 0
 177.666992188 94.5 190 104.666992188 190 114 c 0
 190 1145 l 0
 190 1153 178.333007812 1163 155 1175 c 0
 131.666992188 1187 96 1197.66699219 48 1207 c 0
 48 1260 l 0
 523 1260 l 0
 523 1207 l 0
 477.666992188 1197.66699219 442.5 1187.33300781 417.5 1176 c 0
 392.5 1164.66699219 380 1154.33300781 380 1145 c 0
 380 651 l 0
 777 1118 l 0
 792.333007812 1136 802.333007812 1150.33300781 807 1161 c 0
 811.666992188 1171.66699219 811.166992188 1180 805.5 1186 c 0
 799.833007812 1192 789 1196.5 773 1199.5 c 0
 757 1202.5 736 1205 710 1207 c 0
 710 1260 l 0
 1140 1260 l 0
 1140 1207 l 0
 1118.66699219 1204.33300781 1100 1201.66699219 1084 1199 c 0
 1068 1196.33300781 1053.66699219 1192.83300781 1041 1188.5 c 0
 1028.33300781 1184.16699219 1016.66699219 1178.66699219 1006 1172 c 0
 995.333007812 1165.33300781 985 1156.33300781 975 1145 c 0
 540 673 l 0
 1023 140 l 0
 1045.66699219 114.666992188 1071.66699219 99.8330078125 1101 95.5 c 0
 1130.33300781 91.1669921875 1162.33300781 91 1197 95 c 0
 1204 42 l 0
 1184.66699219 36 1164.33300781 29.6669921875 1143 23 c 0
 1121.66699219 16.3330078125 1100.5 10.1669921875 1079.5 4.5 c 0
 1058.5 -1.1669921875 1038.33300781 -5.6669921875 1019 -9 c 0
 999.666992188 -12.3330078125 982 -14 966 -14 c 0
 946.666992188 -14 929.5 -11 914.5 -5 c 0
 899.5 1 885.333007812 12.3330078125 872 29 c 0
 380 634 l 0
 380 114 l 0
 380 106 391.666992188 96.1669921875 415 84.5 c 0
 438.333007812 72.8330078125 474.333007812 62.3330078125 523 53 c 0
 523 0 l 0
 48 0 l 0
EndSplineSet
EndChar

StartChar: L
Encoding: 47 76 47
Width: 998
VWidth: 1024
Flags: HW
LayerCount: 2
Fore
SplineSet
969 264 m 0
 966.333007812 235.333007812 963.166992188 207.333007812 959.5 180 c 0
 955.833007812 152.666992188 952.166992188 127.166992188 948.5 103.5 c 0
 944.833007812 79.8330078125 941.166992188 59.1669921875 937.5 41.5 c 0
 933.833007812 23.8330078125 930.666992188 10 928 0 c 0
 48 0 l 0
 48 53 l 0
 93.3330078125 62.3330078125 128.333007812 72.5 153 83.5 c 0
 177.666992188 94.5 190 104.666992188 190 114 c 0
 190 1145 l 0
 190 1153 178.333007812 1163 155 1175 c 0
 131.666992188 1187 96 1197.66699219 48 1207 c 0
 48 1260 l 0
 523 1260 l 0
 523 1207 l 0
 477.666992188 1197.66699219 442.5 1187.33300781 417.5 1176 c 0
 392.5 1164.66699219 380 1154.33300781 380 1145 c 0
 380 174 l 0
 380 162 382.833007812 151.5 388.5 142.5 c 0
 394.166992188 133.5 404 125.833007812 418 119.5 c 0
 432 113.166992188 451 108.333007812 475 105 c 0
 499 101.666992188 529.333007812 100 566 100 c 0
 699 100 l 0
 729.666992188 100 755.5 102.333007812 776.5 107 c 0
 797.5 111.666992188 816 120.666992188 832 134 c 0
 848 147.333007812 862.5 166 875.5 190 c 0
 888.5 214 902 245.666992188 916 285 c 0
 969 264 l 0
EndSplineSet
EndChar

StartChar: M
Encoding: 48 77 48
Width: 1679
VWidth: 1024
Flags: HW
LayerCount: 2
Fore
SplineSet
1578 1207 m 0
 1560 1207 1539.33300781 1204 1516 1198 c 0
 1492.66699219 1192 1469 1184 1445 1174 c 0
 1455 114 l 0
 1455 106 1467.16699219 96.1669921875 1491.5 84.5 c 0
 1515.83300781 72.8330078125 1552 62.3330078125 1600 53 c 0
 1600 0 l 0
 1123 0 l 0
 1123 53 l 0
 1168.33300781 62.3330078125 1205 72.5 1233 83.5 c 0
 1261 94.5 1275 104.666992188 1275 114 c 0
 1266 1007 l 0
 833 0 l 0
 769 0 l 0
 334 1003 l 0
 325 114 l 0
 325 106 336.833007812 96.1669921875 360.5 84.5 c 0
 384.166992188 72.8330078125 420 62.3330078125 468 53 c 0
 468 0 l 0
 58 0 l 0
 58 53 l 0
 104 62.3330078125 139.166992188 72.5 163.5 83.5 c 0
 187.833007812 94.5 200 104.666992188 200 114 c 0
 210 1169 l 0
 185.333007812 1183 160.333007812 1192.83300781 135 1198.5 c 0
 109.666992188 1204.16699219 87.3330078125 1207 68 1207 c 0
 68 1260 l 0
 374 1260 l 0
 380.666992188 1260 386.333007812 1259 391 1257 c 0
 395.666992188 1255 400.333007812 1251 405 1245 c 0
 409.666992188 1239 414.666992188 1230.5 420 1219.5 c 0
 425.333007812 1208.5 432 1194 440 1176 c 0
 828 297 l 0
 1208 1176 l 0
 1216.66699219 1196 1223.83300781 1211.66699219 1229.5 1223 c 0
 1235.16699219 1234.33300781 1240.16699219 1242.66699219 1244.5 1248 c 0
 1248.83300781 1253.33300781 1253.33300781 1256.66699219 1258 1258 c 0
 1262.66699219 1259.33300781 1268 1260 1274 1260 c 0
 1578 1260 l 0
 1578 1207 l 0
EndSplineSet
EndChar

StartChar: N
Encoding: 49 78 49
Width: 1339
VWidth: 1024
Flags: HW
LayerCount: 2
Fore
SplineSet
48 0 m 0
 48 53 l 0
 97.3330078125 59 133.333007812 68.3330078125 156 81 c 0
 178.666992188 93.6669921875 190 104.666992188 190 114 c 0
 190 1138 l 0
 168 1158 145.166992188 1173.5 121.5 1184.5 c 0
 97.8330078125 1195.5 73.3330078125 1203 48 1207 c 0
 48 1260 l 0
 282 1260 l 0
 292 1260 300.166992188 1259.16699219 306.5 1257.5 c 0
 312.833007812 1255.83300781 319.333007812 1252.33300781 326 1247 c 0
 332.666992188 1241.66699219 339.833007812 1233.83300781 347.5 1223.5 c 0
 355.166992188 1213.16699219 365.333007812 1199.33300781 378 1182 c 0
 1020 295 l 0
 1020 1145 l 0
 1020 1149 1017.66699219 1153.83300781 1013 1159.5 c 0
 1008.33300781 1165.16699219 1000.5 1170.83300781 989.5 1176.5 c 0
 978.5 1182.16699219 963.833007812 1187.66699219 945.5 1193 c 0
 927.166992188 1198.33300781 904.666992188 1203 878 1207 c 0
 878 1260 l 0
 1293 1260 l 0
 1293 1207 l 0
 1245 1200.33300781 1209.16699219 1190.66699219 1185.5 1178 c 0
 1161.83300781 1165.33300781 1150 1154.33300781 1150 1145 c 0
 1150 -30 l 0
 1106.66699219 -25.3330078125 1072.16699219 -16.5 1046.5 -3.5 c 0
 1020.83300781 9.5 1002.33300781 23.6669921875 991 39 c 0
 320 969 l 0
 320 114 l 0
 320 110 322.666992188 105.166992188 328 99.5 c 0
 333.333007812 93.8330078125 341.666992188 88.1669921875 353 82.5 c 0
 364.333007812 76.8330078125 379 71.3330078125 397 66 c 0
 415 60.6669921875 437 56.3330078125 463 53 c 0
 463 0 l 0
 48 0 l 0
EndSplineSet
EndChar

StartChar: O
Encoding: 50 79 50
Width: 1244
VWidth: 1024
Flags: HW
LayerCount: 2
Fore
SplineSet
1158 647 m 0
 1158 556.333007812 1142.66699219 470.166992188 1112 388.5 c 0
 1081.33300781 306.833007812 1039.66699219 235 987 173 c 0
 934.333007812 111 873.333007812 61.6669921875 804 25 c 0
 734.666992188 -11.6669921875 661 -30 583 -30 c 0
 501 -30 428 -12.3330078125 364 23 c 0
 300 58.3330078125 245.833007812 105.666992188 201.5 165 c 0
 157.166992188 224.333007812 123.333007812 292.666992188 100 370 c 0
 76.6669921875 447.333007812 65 528 65 612 c 0
 65 702.666992188 79.6669921875 789 109 871 c 0
 138.333007812 953 178.833007812 1025 230.5 1087 c 0
 282.166992188 1149 343 1198.33300781 413 1235 c 0
 483 1271.66699219 559 1290 641 1290 c 0
 725 1290 799.333007812 1271.83300781 864 1235.5 c 0
 928.666992188 1199.16699219 982.666992188 1151 1026 1091 c 0
 1069.33300781 1031 1102.16699219 962.333007812 1124.5 885 c 0
 1146.83300781 807.666992188 1158 728.333007812 1158 647 c 0
971 629 m 0
 971 675 967 720.333007812 959 765 c 0
 951 809.666992188 939.5 852 924.5 892 c 0
 909.5 932 891.333007812 969 870 1003 c 0
 848.666992188 1037 824.333007812 1066.33300781 797 1091 c 0
 769.666992188 1115.66699219 739.833007812 1135 707.5 1149 c 0
 675.166992188 1163 640.666992188 1170 604 1170 c 0
 548.666992188 1170 499.166992188 1157.66699219 455.5 1133 c 0
 411.833007812 1108.33300781 375 1073.16699219 345 1027.5 c 0
 315 981.833007812 292.166992188 926.333007812 276.5 861 c 0
 260.833007812 795.666992188 253 722.333007812 253 641 c 0
 253 566.333007812 262.666992188 495.833007812 282 429.5 c 0
 301.333007812 363.166992188 327.5 305.333007812 360.5 256 c 0
 393.5 206.666992188 432.166992188 167.5 476.5 138.5 c 0
 520.833007812 109.5 567.666992188 95 617 95 c 0
 668.333007812 95 715.666992188 106.333007812 759 129 c 0
 802.333007812 151.666992188 839.666992188 185.333007812 871 230 c 0
 902.333007812 274.666992188 926.833007812 330.333007812 944.5 397 c 0
 962.166992188 463.666992188 971 541 971 629 c 0
EndSplineSet
EndChar

StartChar: P
Encoding: 51 80 51
Width: 1101
VWidth: 1024
Flags: HW
LayerCount: 2
Fore
SplineSet
48 0 m 0
 48 53 l 0
 93.3330078125 62.3330078125 128.333007812 72.5 153 83.5 c 0
 177.666992188 94.5 190 104.666992188 190 114 c 0
 190 1180 l 0
 164.666992188 1176.66699219 140.166992188 1173.16699219 116.5 1169.5 c 0
 92.8330078125 1165.83300781 70 1162 48 1158 c 0
 37 1230 l 0
 70.3330078125 1238.66699219 107 1246.66699219 147 1254 c 0
 187 1261.33300781 228.333007812 1267.66699219 271 1273 c 0
 313.666992188 1278.33300781 357 1282.5 401 1285.5 c 0
 445 1288.5 488 1290 530 1290 c 0
 604 1290 670.833007812 1282.33300781 730.5 1267 c 0
 790.166992188 1251.66699219 841.333007812 1229 884 1199 c 0
 926.666992188 1169 959.5 1132 982.5 1088 c 0
 1005.5 1044 1017 993.333007812 1017 936 c 0
 1017 890 1010.5 848 997.5 810 c 0
 984.5 772 967.166992188 738 945.5 708 c 0
 923.833007812 678 899 651.833007812 871 629.5 c 0
 843 607.166992188 813.666992188 588.666992188 783 574 c 0
 752.333007812 559.333007812 721.5 548.333007812 690.5 541 c 0
 659.5 533.666992188 630.333007812 530 603 530 c 0
 572.333007812 530 543.166992188 532.5 515.5 537.5 c 0
 487.833007812 542.5 462.666992188 550 440 560 c 0
 414 645 l 0
 442 632.333007812 468 624.166992188 492 620.5 c 0
 516 616.833007812 539.666992188 615 563 615 c 0
 593 615 623.833007812 620.833007812 655.5 632.5 c 0
 687.166992188 644.166992188 716 661.5 742 684.5 c 0
 768 707.5 789.166992188 736.5 805.5 771.5 c 0
 821.833007812 806.5 830 847.666992188 830 895 c 0
 830 947 820.833007812 992.166992188 802.5 1030.5 c 0
 784.166992188 1068.83300781 759 1100.5 727 1125.5 c 0
 695 1150.5 657.166992188 1169 613.5 1181 c 0
 569.833007812 1193 523 1199 473 1199 c 0
 441.666992188 1199 410.666992188 1198 380 1196 c 0
 380 114 l 0
 380 110 382.5 105.666992188 387.5 101 c 0
 392.5 96.3330078125 401.5 91.3330078125 414.5 86 c 0
 427.5 80.6669921875 445.166992188 75.3330078125 467.5 70 c 0
 489.833007812 64.6669921875 518.333007812 59 553 53 c 0
 553 0 l 0
 48 0 l 0
EndSplineSet
EndChar

StartChar: Q
Encoding: 52 81 52
Width: 1244
VWidth: 1024
Flags: HW
LayerCount: 2
Fore
SplineSet
1327 -120 m 0
 1311 -149.333007812 1294.33300781 -175.833007812 1277 -199.5 c 0
 1259.66699219 -223.166992188 1242.66699219 -243.333007812 1226 -260 c 0
 1209.33300781 -276.666992188 1193.66699219 -289.666992188 1179 -299 c 0
 1164.33300781 -308.333007812 1152 -313 1142 -313 c 0
 1113.33300781 -313 1084.83300781 -308.166992188 1056.5 -298.5 c 0
 1028.16699219 -288.833007812 999.833007812 -276 971.5 -260 c 0
 943.166992188 -244 914.833007812 -225.833007812 886.5 -205.5 c 0
 858.166992188 -185.166992188 829.833007812 -164.333007812 801.5 -143 c 0
 773.166992188 -121.666992188 744.833007812 -100.833007812 716.5 -80.5 c 0
 688.166992188 -60.1669921875 660 -42.3330078125 632 -27 c 0
 616 -29 599.666992188 -30 583 -30 c 0
 506.333007812 -30 436.333007812 -12.8330078125 373 21.5 c 0
 309.666992188 55.8330078125 255.166992188 102.166992188 209.5 160.5 c 0
 163.833007812 218.833007812 128.333007812 286.833007812 103 364.5 c 0
 77.6669921875 442.166992188 65 524.666992188 65 612 c 0
 65 702.666992188 79.6669921875 789 109 871 c 0
 138.333007812 953 178.833007812 1025 230.5 1087 c 0
 282.166992188 1149 343 1198.33300781 413 1235 c 0
 483 1271.66699219 559 1290 641 1290 c 0
 725 1290 799.333007812 1271.83300781 864 1235.5 c 0
 928.666992188 1199.16699219 982.666992188 1151 1026 1091 c 0
 1069.33300781 1031 1102.16699219 962.333007812 1124.5 885 c 0
 1146.83300781 807.666992188 1158 728.333007812 1158 647 c 0
 1158 577 1148.66699219 509.666992188 1130 445 c 0
 1111.33300781 380.333007812 1085.5 320.5 1052.5 265.5 c 0
 1019.5 210.5 980.5 161.666992188 935.5 119 c 0
 890.5 76.3330078125 841.333007812 42.3330078125 788 17 c 0
 820.666992188 1.6669921875 852.833007812 -15.5 884.5 -34.5 c 0
 916.166992188 -53.5 947.166992188 -71.6669921875 977.5 -89 c 0
 1007.83300781 -106.333007812 1037.33300781 -120.833007812 1066 -132.5 c 0
 1094.66699219 -144.166992188 1122 -150 1148 -150 c 0
 1156 -150 1164.5 -148.833007812 1173.5 -146.5 c 0
 1182.5 -144.166992188 1192.5 -140.166992188 1203.5 -134.5 c 0
 1214.5 -128.833007812 1227.16699219 -121.166992188 1241.5 -111.5 c 0
 1255.83300781 -101.833007812 1273 -89.6669921875 1293 -75 c 0
 1327 -120 l 0
971 629 m 0
 971 675 967 720.333007812 959 765 c 0
 951 809.666992188 939.5 852 924.5 892 c 0
 909.5 932 891.333007812 969 870 1003 c 0
 848.666992188 1037 824.333007812 1066.33300781 797 1091 c 0
 769.666992188 1115.66699219 739.833007812 1135 707.5 1149 c 0
 675.166992188 1163 640.666992188 1170 604 1170 c 0
 548.666992188 1170 499.166992188 1157.66699219 455.5 1133 c 0
 411.833007812 1108.33300781 375 1073.16699219 345 1027.5 c 0
 315 981.833007812 292.166992188 926.333007812 276.5 861 c 0
 260.833007812 795.666992188 253 722.333007812 253 641 c 0
 253 566.333007812 262.666992188 495.833007812 282 429.5 c 0
 301.333007812 363.166992188 327.5 305.333007812 360.5 256 c 0
 393.5 206.666992188 432.166992188 167.5 476.5 138.5 c 0
 520.833007812 109.5 567.666992188 95 617 95 c 0
 668.333007812 95 715.666992188 106.333007812 759 129 c 0
 802.333007812 151.666992188 839.666992188 185.333007812 871 230 c 0
 902.333007812 274.666992188 926.833007812 330.333007812 944.5 397 c 0
 962.166992188 463.666992188 971 541 971 629 c 0
EndSplineSet
EndChar

StartChar: R
Encoding: 53 82 53
Width: 1179
VWidth: 1024
Flags: HW
LayerCount: 2
Fore
SplineSet
48 0 m 0
 48 53 l 0
 93.3330078125 62.3330078125 128.333007812 72.5 153 83.5 c 0
 177.666992188 94.5 190 104.666992188 190 114 c 0
 190 1178 l 0
 166 1174.66699219 142.166992188 1171.33300781 118.5 1168 c 0
 94.8330078125 1164.66699219 71.3330078125 1161.33300781 48 1158 c 0
 37 1230 l 0
 69.6669921875 1238 103 1245.5 137 1252.5 c 0
 171 1259.5 206.5 1265.83300781 243.5 1271.5 c 0
 280.5 1277.16699219 319.333007812 1281.66699219 360 1285 c 0
 400.666992188 1288.33300781 443.666992188 1290 489 1290 c 0
 571 1290 641.666992188 1282.33300781 701 1267 c 0
 760.333007812 1251.66699219 809.333007812 1230.33300781 848 1203 c 0
 886.666992188 1175.66699219 915.333007812 1143.5 934 1106.5 c 0
 952.666992188 1069.5 962 1029.66699219 962 987 c 0
 962 939.666992188 955.166992188 896.666992188 941.5 858 c 0
 927.833007812 819.333007812 908.666992188 784.666992188 884 754 c 0
 859.333007812 723.333007812 829.666992188 697 795 675 c 0
 760.333007812 653 722.333007812 635.666992188 681 623 c 0
 988 154 l 0
 998 140 1008.5 128.666992188 1019.5 120 c 0
 1030.5 111.333007812 1042.83300781 104.833007812 1056.5 100.5 c 0
 1070.16699219 96.1669921875 1085.5 93.6669921875 1102.5 93 c 0
 1119.5 92.3330078125 1139.33300781 93 1162 95 c 0
 1174 42 l 0
 1152 34.6669921875 1129.33300781 27.6669921875 1106 21 c 0
 1082.66699219 14.3330078125 1060.16699219 8.3330078125 1038.5 3 c 0
 1016.83300781 -2.3330078125 996.5 -6.5 977.5 -9.5 c 0
 958.5 -12.5 942.666992188 -14 930 -14 c 0
 910.666992188 -14 891.833007812 -8.6669921875 873.5 2 c 0
 855.166992188 12.6669921875 841.333007812 25.6669921875 832 41 c 0
 535 597 l 0
 527 596.333007812 518.833007812 595.833007812 510.5 595.5 c 0
 502.166992188 595.166992188 494 595 486 595 c 0
 468.666992188 595 451.333007812 595.833007812 434 597.5 c 0
 416.666992188 599.166992188 398.666992188 602 380 606 c 0
 380 114 l 0
 380 106 391.666992188 96.1669921875 415 84.5 c 0
 438.333007812 72.8330078125 474.333007812 62.3330078125 523 53 c 0
 523 0 l 0
 48 0 l 0
450 1199 m 0
 438.666992188 1199 427.166992188 1198.83300781 415.5 1198.5 c 0
 403.833007812 1198.16699219 392 1197.66699219 380 1197 c 0
 380 696 l 0
 398 692.666992188 413.666992188 690.666992188 427 690 c 0
 440.333007812 689.333007812 454.333007812 689 469 689 c 0
 569.666992188 689 645.833007812 712 697.5 758 c 0
 749.166992188 804 775 870 775 956 c 0
 775 990.666992188 769.166992188 1022.83300781 757.5 1052.5 c 0
 745.833007812 1082.16699219 727 1107.83300781 701 1129.5 c 0
 675 1151.16699219 641.333007812 1168.16699219 600 1180.5 c 0
 558.666992188 1192.83300781 508.666992188 1199 450 1199 c 0
EndSplineSet
EndChar

StartChar: S
Encoding: 54 83 54
Width: 1000
VWidth: 1024
Flags: HW
LayerCount: 2
Fore
SplineSet
913 377 m 0
 913 347 908.833007812 316.333007812 900.5 285 c 0
 892.166992188 253.666992188 879.5 222.833007812 862.5 192.5 c 0
 845.5 162.166992188 824.333007812 133.5 799 106.5 c 0
 773.666992188 79.5 743.833007812 56 709.5 36 c 0
 675.166992188 16 636.5 0 593.5 -12 c 0
 550.5 -24 502.666992188 -30 450 -30 c 0
 427.333007812 -30 402.166992188 -27.6669921875 374.5 -23 c 0
 346.833007812 -18.3330078125 318.5 -11.8330078125 289.5 -3.5 c 0
 260.5 4.8330078125 231.833007812 15 203.5 27 c 0
 175.166992188 39 149.333007812 52.6669921875 126 68 c 0
 121.333007812 70.6669921875 117.833007812 82.6669921875 115.5 104 c 0
 113.166992188 125.333007812 112 150.333007812 112 179 c 0
 112 207.666992188 113.333007812 237.166992188 116 267.5 c 0
 118.666992188 297.833007812 123 323.333007812 129 344 c 0
 180 339 l 0
 195.333007812 299.666992188 214.333007812 265 237 235 c 0
 259.666992188 205 284.833007812 179.833007812 312.5 159.5 c 0
 340.166992188 139.166992188 370 123.833007812 402 113.5 c 0
 434 103.166992188 467 98 501 98 c 0
 531 98 560.666992188 103.5 590 114.5 c 0
 619.333007812 125.5 645.833007812 140.833007812 669.5 160.5 c 0
 693.166992188 180.166992188 712.166992188 203.5 726.5 230.5 c 0
 740.833007812 257.5 748 287 748 319 c 0
 748 359.666992188 739 394.666992188 721 424 c 0
 703 453.333007812 679.333007812 479.5 650 502.5 c 0
 620.666992188 525.5 587.333007812 546.166992188 550 564.5 c 0
 512.666992188 582.833007812 474.333007812 601 435 619 c 0
 395.666992188 637 357.333007812 656.166992188 320 676.5 c 0
 282.666992188 696.833007812 249.333007812 720.166992188 220 746.5 c 0
 190.666992188 772.833007812 167 803.666992188 149 839 c 0
 131 874.333007812 122 916.333007812 122 965 c 0
 122 996.333007812 129.666992188 1030.83300781 145 1068.5 c 0
 160.333007812 1106.16699219 184.666992188 1141.5 218 1174.5 c 0
 251.333007812 1207.5 294.5 1235 347.5 1257 c 0
 400.5 1279 465 1290 541 1290 c 0
 573 1290 605 1287.66699219 637 1283 c 0
 669 1278.33300781 698.666992188 1272 726 1264 c 0
 753.333007812 1256 778 1246.33300781 800 1235 c 0
 822 1223.66699219 839 1211.33300781 851 1198 c 0
 855.666992188 1194 855.666992188 1185.16699219 851 1171.5 c 0
 846.333007812 1157.83300781 839.333007812 1142.83300781 830 1126.5 c 0
 820.666992188 1110.16699219 810.333007812 1094.33300781 799 1079 c 0
 787.666992188 1063.66699219 778 1052.33300781 770 1045 c 0
 724 1051 l 0
 706.666992188 1075.66699219 688 1096.66699219 668 1114 c 0
 648 1131.33300781 627.666992188 1145.16699219 607 1155.5 c 0
 586.333007812 1165.83300781 565.5 1173.33300781 544.5 1178 c 0
 523.5 1182.66699219 503.666992188 1185 485 1185 c 0
 449 1185 418.333007812 1179.83300781 393 1169.5 c 0
 367.666992188 1159.16699219 346.666992188 1145.83300781 330 1129.5 c 0
 313.333007812 1113.16699219 301.166992188 1095 293.5 1075 c 0
 285.833007812 1055 282 1035.66699219 282 1017 c 0
 282 985.666992188 291 957.833007812 309 933.5 c 0
 327 909.166992188 350.833007812 886.833007812 380.5 866.5 c 0
 410.166992188 846.166992188 443.833007812 826.666992188 481.5 808 c 0
 519.166992188 789.333007812 557.833007812 770.166992188 597.5 750.5 c 0
 637.166992188 730.833007812 675.833007812 709.5 713.5 686.5 c 0
 751.166992188 663.5 784.833007812 637.333007812 814.5 608 c 0
 844.166992188 578.666992188 868 545.166992188 886 507.5 c 0
 904 469.833007812 913 426.333007812 913 377 c 0
EndSplineSet
EndChar

StartChar: T
Encoding: 55 84 55
Width: 1148
VWidth: 1024
Flags: HW
LayerCount: 2
Fore
SplineSet
305 0 m 0
 305 53 l 0
 335.666992188 59 361.333007812 65.3330078125 382 72 c 0
 402.666992188 78.6669921875 419.166992188 85.1669921875 431.5 91.5 c 0
 443.833007812 97.8330078125 452.666992188 103.833007812 458 109.5 c 0
 463.333007812 115.166992188 466 120.333007812 466 125 c 0
 466 1160 l 0
 182 1160 l 0
 172 1160 162.833007812 1157.66699219 154.5 1153 c 0
 146.166992188 1148.33300781 137.5 1139.16699219 128.5 1125.5 c 0
 119.5 1111.83300781 109.666992188 1092.83300781 99 1068.5 c 0
 88.3330078125 1044.16699219 75.6669921875 1012.66699219 61 974 c 0
 8 995 l 0
 9.3330078125 1014.33300781 11.3330078125 1035.83300781 14 1059.5 c 0
 16.6669921875 1083.16699219 19.5 1106.83300781 22.5 1130.5 c 0
 25.5 1154.16699219 28.8330078125 1177.33300781 32.5 1200 c 0
 36.1669921875 1222.66699219 39.6669921875 1242.66699219 43 1260 c 0
 1073 1260 l 0
 1106 1233 l 0
 1105.33300781 1215.66699219 1104 1196.83300781 1102 1176.5 c 0
 1100 1156.16699219 1097.5 1134.83300781 1094.5 1112.5 c 0
 1091.5 1090.16699219 1088.16699219 1067.66699219 1084.5 1045 c 0
 1080.83300781 1022.33300781 1077 1000.66699219 1073 980 c 0
 1018 980 l 0
 1011.33300781 1010.66699219 1005.66699219 1037.33300781 1001 1060 c 0
 996.333007812 1082.66699219 991 1101.5 985 1116.5 c 0
 979 1131.5 971.5 1142.5 962.5 1149.5 c 0
 953.5 1156.5 942 1160 928 1160 c 0
 656 1160 l 0
 656 125 l 0
 656 121 658.666992188 116.166992188 664 110.5 c 0
 669.333007812 104.833007812 678.333007812 98.6669921875 691 92 c 0
 703.666992188 85.3330078125 720.333007812 78.6669921875 741 72 c 0
 761.666992188 65.3330078125 787.333007812 59 818 53 c 0
 818 0 l 0
 305 0 l 0
EndSplineSet
EndChar

StartChar: U
Encoding: 56 85 56
Width: 1349
VWidth: 1024
Flags: HW
LayerCount: 2
Fore
SplineSet
1288 1207 m 0
 1242.66699219 1197.66699219 1207.5 1187.33300781 1182.5 1176 c 0
 1157.5 1164.66699219 1145 1154.33300781 1145 1145 c 0
 1145 524 l 0
 1145 436.666992188 1133.83300781 358.666992188 1111.5 290 c 0
 1089.16699219 221.333007812 1057.33300781 163.333007812 1016 116 c 0
 974.666992188 68.6669921875 924.833007812 32.5 866.5 7.5 c 0
 808.166992188 -17.5 743 -30 671 -30 c 0
 602.333007812 -30 538.666992188 -20.5 480 -1.5 c 0
 421.333007812 17.5 370.5 46.5 327.5 85.5 c 0
 284.5 124.5 250.833007812 173.666992188 226.5 233 c 0
 202.166992188 292.333007812 190 362.666992188 190 444 c 0
 190 1145 l 0
 190 1153 178.333007812 1163 155 1175 c 0
 131.666992188 1187 96 1197.66699219 48 1207 c 0
 48 1260 l 0
 523 1260 l 0
 523 1207 l 0
 477.666992188 1197.66699219 442.5 1187.33300781 417.5 1176 c 0
 392.5 1164.66699219 380 1154.33300781 380 1145 c 0
 380 499 l 0
 380 371 407.833007812 271.666992188 463.5 201 c 0
 519.166992188 130.333007812 604 95 718 95 c 0
 765.333007812 95 806.666992188 106.166992188 842 128.5 c 0
 877.333007812 150.833007812 906.666992188 180.333007812 930 217 c 0
 953.333007812 253.666992188 970.833007812 295.666992188 982.5 343 c 0
 994.166992188 390.333007812 1000 438.666992188 1000 488 c 0
 1000 1145 l 0
 1000 1153 988.333007812 1163 965 1175 c 0
 941.666992188 1187 906 1197.66699219 858 1207 c 0
 858 1260 l 0
 1288 1260 l 0
 1288 1207 l 0
EndSplineSet
EndChar

StartChar: V
Encoding: 57 86 57
Width: 1341
VWidth: 1024
Flags: HW
LayerCount: 2
Fore
SplineSet
1303 1207 m 0
 1257.66699219 1198.33300781 1222.16699219 1189.83300781 1196.5 1181.5 c 0
 1170.83300781 1173.16699219 1154.66699219 1159.66699219 1148 1141 c 0
 767 67 l 0
 761.666992188 52.3330078125 752.166992188 39.5 738.5 28.5 c 0
 724.833007812 17.5 709.833007812 8 693.5 0 c 0
 677.166992188 -8 660.666992188 -14.3330078125 644 -19 c 0
 627.333007812 -23.6669921875 613.333007812 -27.3330078125 602 -30 c 0
 157 1141 l 0
 150.333007812 1158.33300781 136 1172.33300781 114 1183 c 0
 92 1193.66699219 60 1201.66699219 18 1207 c 0
 18 1260 l 0
 478 1260 l 0
 478 1207 l 0
 424.666992188 1203 388.5 1196.16699219 369.5 1186.5 c 0
 350.5 1176.83300781 344.666992188 1162.33300781 352 1143 c 0
 696 231 l 0
 1019 1141 l 0
 1026.33300781 1160.33300781 1019 1174.5 997 1183.5 c 0
 975 1192.5 936.666992188 1200.33300781 882 1207 c 0
 882 1260 l 0
 1303 1260 l 0
 1303 1207 l 0
EndSplineSet
EndChar

StartChar: W
Encoding: 58 87 58
Width: 1741
VWidth: 1024
Flags: HW
LayerCount: 2
Fore
SplineSet
1712 1207 m 0
 1682.66699219 1201 1658.33300781 1195.33300781 1639 1190 c 0
 1619.66699219 1184.66699219 1604.33300781 1179.5 1593 1174.5 c 0
 1581.66699219 1169.5 1573.5 1164.66699219 1568.5 1160 c 0
 1563.5 1155.33300781 1560.66699219 1150.33300781 1560 1145 c 0
 1331 59 l 0
 1327.66699219 45 1320.5 32.8330078125 1309.5 22.5 c 0
 1298.5 12.1669921875 1285.83300781 3.5 1271.5 -3.5 c 0
 1257.16699219 -10.5 1242.5 -16.1669921875 1227.5 -20.5 c 0
 1212.5 -24.8330078125 1200 -28 1190 -30 c 0
 859 922 l 0
 572 59 l 0
 567.333007812 45 559.166992188 33 547.5 23 c 0
 535.833007812 13 522.666992188 4.5 508 -2.5 c 0
 493.333007812 -9.5 478 -15.1669921875 462 -19.5 c 0
 446 -23.8330078125 431.333007812 -27.3330078125 418 -30 c 0
 158 1137 l 0
 154.666992188 1153.66699219 142.666992188 1167.33300781 122 1178 c 0
 101.333007812 1188.66699219 67.3330078125 1198.33300781 20 1207 c 0
 20 1260 l 0
 469 1260 l 0
 469 1207 l 0
 436.333007812 1203.66699219 410.833007812 1199.5 392.5 1194.5 c 0
 374.166992188 1189.5 360.5 1184 351.5 1178 c 0
 342.5 1172 337.333007812 1165.5 336 1158.5 c 0
 334.666992188 1151.5 334.666992188 1144.33300781 336 1137 c 0
 525 295 l 0
 839 1260 l 0
 909 1260 l 0
 1256 295 l 0
 1435 1145 l 0
 1436.33300781 1153 1433.33300781 1160 1426 1166 c 0
 1418.66699219 1172 1408 1177.33300781 1394 1182 c 0
 1380 1186.66699219 1363.33300781 1191 1344 1195 c 0
 1324.66699219 1199 1303.66699219 1203 1281 1207 c 0
 1281 1260 l 0
 1712 1260 l 0
 1712 1207 l 0
EndSplineSet
EndChar

StartChar: X
Encoding: 59 88 59
Width: 1270
VWidth: 1024
Flags: HW
LayerCount: 2
Fore
SplineSet
763 0 m 0
 763 53 l 0
 792.333007812 55.6669921875 816 59.1669921875 834 63.5 c 0
 852 67.8330078125 865 73.1669921875 873 79.5 c 0
 881 85.8330078125 884.5 93.6669921875 883.5 103 c 0
 882.5 112.333007812 877.333007812 123.666992188 868 137 c 0
 604 523 l 0
 360 137 l 0
 340.666992188 107.666992188 340.333007812 87.3330078125 359 76 c 0
 377.666992188 64.6669921875 417.666992188 57 479 53 c 0
 479 0 l 0
 29 0 l 0
 29 53 l 0
 72.3330078125 56.3330078125 109.166992188 64.3330078125 139.5 77 c 0
 169.833007812 89.6669921875 193.666992188 109.666992188 211 137 c 0
 525 639 l 0
 195 1123 l 0
 185 1137.66699219 175.333007812 1149.66699219 166 1159 c 0
 156.666992188 1168.33300781 146.166992188 1176 134.5 1182 c 0
 122.833007812 1188 109.5 1192.83300781 94.5 1196.5 c 0
 79.5 1200.16699219 61 1203.66699219 39 1207 c 0
 39 1260 l 0
 520 1260 l 0
 520 1207 l 0
 463.333007812 1201.66699219 426.333007812 1193.5 409 1182.5 c 0
 391.666992188 1171.5 393 1151.66699219 413 1123 c 0
 647 780 l 0
 861 1123 l 0
 870.333007812 1138.33300781 874.833007812 1150.83300781 874.5 1160.5 c 0
 874.166992188 1170.16699219 869 1178.16699219 859 1184.5 c 0
 849 1190.83300781 834.166992188 1195.66699219 814.5 1199 c 0
 794.833007812 1202.33300781 770 1205 740 1207 c 0
 740 1260 l 0
 1193 1260 l 0
 1193 1207 l 0
 1169 1204.33300781 1147.5 1201.16699219 1128.5 1197.5 c 0
 1109.5 1193.83300781 1092.66699219 1188.83300781 1078 1182.5 c 0
 1063.33300781 1176.16699219 1050.5 1168.16699219 1039.5 1158.5 c 0
 1028.5 1148.83300781 1018.66699219 1137 1010 1123 c 0
 724 667 l 0
 1086 137 l 0
 1096 123 1106 111.166992188 1116 101.5 c 0
 1126 91.8330078125 1137.16699219 83.8330078125 1149.5 77.5 c 0
 1161.83300781 71.1669921875 1175.5 66.1669921875 1190.5 62.5 c 0
 1205.5 58.8330078125 1222.66699219 55.6669921875 1242 53 c 0
 1242 0 l 0
 763 0 l 0
EndSplineSet
EndChar

StartChar: Y
Encoding: 60 89 60
Width: 1230
VWidth: 1024
Flags: HW
LayerCount: 2
Fore
SplineSet
355 0 m 0
 355 53 l 0
 415.666992188 65.6669921875 457.833007812 78.5 481.5 91.5 c 0
 505.166992188 104.5 517 115.666992188 517 125 c 0
 517 535 l 0
 492.333007812 589 464.666992188 644.833007812 434 702.5 c 0
 403.333007812 760.166992188 372 816.333007812 340 871 c 0
 308 925.666992188 276.833007812 976.333007812 246.5 1023 c 0
 216.166992188 1069.66699219 189.333007812 1109 166 1141 c 0
 160 1148.33300781 153.333007812 1155.16699219 146 1161.5 c 0
 138.666992188 1167.83300781 129.166992188 1173.5 117.5 1178.5 c 0
 105.833007812 1183.5 91 1187.33300781 73 1190 c 0
 55 1192.66699219 32 1194 4 1194 c 0
 0 1247 l 0
 19.3330078125 1249.66699219 39.8330078125 1252.33300781 61.5 1255 c 0
 83.1669921875 1257.66699219 104.5 1260.16699219 125.5 1262.5 c 0
 146.5 1264.83300781 166.333007812 1266.66699219 185 1268 c 0
 203.666992188 1269.33300781 220 1270 234 1270 c 0
 250 1270 265.5 1266.5 280.5 1259.5 c 0
 295.5 1252.5 308.666992188 1242.33300781 320 1229 c 0
 344.666992188 1196.33300781 371 1158.33300781 399 1115 c 0
 427 1071.66699219 455.166992188 1025.83300781 483.5 977.5 c 0
 511.833007812 929.166992188 539.5 879.5 566.5 828.5 c 0
 593.5 777.5 618.666992188 728 642 680 c 0
 899 1141 l 0
 909 1158.33300781 905.833007812 1172 889.5 1182 c 0
 873.166992188 1192 839.333007812 1200.33300781 788 1207 c 0
 788 1260 l 0
 1191 1260 l 0
 1191 1207 l 0
 1145.66699219 1198.33300781 1111.16699219 1189.33300781 1087.5 1180 c 0
 1063.83300781 1170.66699219 1047.33300781 1157.66699219 1038 1141 c 0
 707 536 l 0
 707 125 l 0
 707 121 709.666992188 116.166992188 715 110.5 c 0
 720.333007812 104.833007812 729.166992188 98.6669921875 741.5 92 c 0
 753.833007812 85.3330078125 770.5 78.6669921875 791.5 72 c 0
 812.5 65.3330078125 838.666992188 59 870 53 c 0
 870 0 l 0
 355 0 l 0
EndSplineSet
EndChar

StartChar: Z
Encoding: 61 90 61
Width: 1086
VWidth: 1024
Flags: HW
LayerCount: 2
Fore
SplineSet
1009 313 m 0
 1007.66699219 291.666992188 1006.5 267 1005.5 239 c 0
 1004.5 211 1003.5 182.5 1002.5 153.5 c 0
 1001.5 124.5 1000.5 96.5 999.5 69.5 c 0
 998.5 42.5 997.666992188 19.3330078125 997 0 c 0
 88 0 l 0
 57 48 l 0
 755 1150 l 0
 319 1150 l 0
 308.333007812 1150 296.5 1145.66699219 283.5 1137 c 0
 270.5 1128.33300781 257.833007812 1115.16699219 245.5 1097.5 c 0
 233.166992188 1079.83300781 221.5 1058 210.5 1032 c 0
 199.5 1006 190.333007812 975.666992188 183 941 c 0
 116 955 l 0
 148 1276 l 0
 166 1272 182.5 1268.83300781 197.5 1266.5 c 0
 212.5 1264.16699219 227.166992188 1262.5 241.5 1261.5 c 0
 255.833007812 1260.5 270.666992188 1260 286 1260 c 0
 971 1260 l 0
 999 1215 l 0
 306 110 l 0
 807 110 l 0
 821 110 833.666992188 113.833007812 845 121.5 c 0
 856.333007812 129.166992188 867.166992188 141.5 877.5 158.5 c 0
 887.833007812 175.5 898.333007812 198 909 226 c 0
 919.666992188 254 931.333007812 288.666992188 944 330 c 0
 1009 313 l 0
EndSplineSet
EndChar

StartChar: bracketleft
Encoding: 62 91 62
Width: 651
VWidth: 1024
Flags: HW
LayerCount: 2
Fore
SplineSet
615 -242 m 0
 613.666992188 -248.666992188 611.666992188 -256 609 -264 c 0
 601 -289 l 0
 598.333007812 -297.666992188 595.5 -306 592.5 -314 c 0
 589.5 -322 586.666992188 -329 584 -335 c 0
 135 -335 l 0
 135 1600 l 0
 578 1600 l 0
 613 1572 l 0
 611.666992188 1564 609.666992188 1555.16699219 607 1545.5 c 0
 604.333007812 1535.83300781 601.666992188 1526.5 599 1517.5 c 0
 596.333007812 1508.5 593.666992188 1500.16699219 591 1492.5 c 0
 588.333007812 1484.83300781 586 1479 584 1475 c 0
 305 1475 l 0
 305 -210 l 0
 578 -210 l 0
 615 -242 l 0
EndSplineSet
EndChar

StartChar: backslash
Encoding: 63 92 63
Width: 961
VWidth: 1024
Flags: HW
LayerCount: 2
Fore
SplineSet
873 -335 m 0
 843 -325 l 0
 831 -321 818.833007812 -316.5 806.5 -311.5 c 0
 794.166992188 -306.5 782.5 -301.5 771.5 -296.5 c 0
 760.5 -291.5 752 -286.666992188 746 -282 c 0
 50 1576 l 0
 90 1600 l 0
 109.333007812 1594.66699219 130.333007812 1587.66699219 153 1579 c 0
 175.666992188 1570.33300781 196.333007812 1560.33300781 215 1549 c 0
 910 -308 l 0
 873 -335 l 0
EndSplineSet
EndChar

StartChar: bracketright
Encoding: 64 93 64
Width: 651
VWidth: 1024
Flags: HW
LayerCount: 2
Fore
SplineSet
73 -335 m 0
 38 -304 l 0
 38.6669921875 -296 40.1669921875 -287.5 42.5 -278.5 c 0
 44.8330078125 -269.5 47.3330078125 -260.666992188 50 -252 c 0
 52.6669921875 -243.333007812 55.5 -235.166992188 58.5 -227.5 c 0
 61.5 -219.833007812 64 -214 66 -210 c 0
 345 -210 l 0
 345 1475 l 0
 73 1475 l 0
 36 1504 l 0
 38 1518.66699219 42.3330078125 1535.5 49 1554.5 c 0
 55.6669921875 1573.5 61.3330078125 1588.66699219 66 1600 c 0
 515 1600 l 0
 515 -335 l 0
 73 -335 l 0
EndSplineSet
EndChar

StartChar: asciicircum
Encoding: 65 94 65
Width: 1008
VWidth: 1024
Flags: HW
LayerCount: 2
Fore
SplineSet
907 635 m 0
 890.333007812 619.666992188 874.166992188 606.833007812 858.5 596.5 c 0
 842.833007812 586.166992188 823.666992188 575.666992188 801 565 c 0
 764 592 l 0
 481 1315 l 0
 231 635 l 0
 223.666992188 628.333007812 215.333007812 621.5 206 614.5 c 0
 196.666992188 607.5 187 600.833007812 177 594.5 c 0
 167 588.166992188 157.166992188 582.5 147.5 577.5 c 0
 137.833007812 572.5 129.666992188 568.333007812 123 565 c 0
 100 592 l 0
 422 1462 l 0
 430 1470 439.833007812 1478.16699219 451.5 1486.5 c 0
 463.166992188 1494.83300781 475 1503 487 1511 c 0
 499 1519 511 1526.33300781 523 1533 c 0
 535 1539.66699219 545.666992188 1545.33300781 555 1550 c 0
 907 635 l 0
EndSplineSet
EndChar

StartChar: underscore
Encoding: 66 95 66
Width: 971
VWidth: 1024
Flags: HW
LayerCount: 2
Fore
SplineSet
910 -158 m 0
 908.666992188 -165.333007812 906.666992188 -173.333007812 904 -182 c 0
 901.333007812 -190.666992188 898.333007812 -199.5 895 -208.5 c 0
 891.666992188 -217.5 888.333007812 -226.166992188 885 -234.5 c 0
 881.666992188 -242.833007812 878.666992188 -250 876 -256 c 0
 86 -256 l 0
 58 -227 l 0
 61.3330078125 -213.666992188 66.6669921875 -197.666992188 74 -179 c 0
 81.3330078125 -160.333007812 88 -144.333007812 94 -131 c 0
 884 -131 l 0
 910 -158 l 0
EndSplineSet
EndChar

StartChar: grave
Encoding: 67 96 67
Width: 653
VWidth: 1024
Flags: HW
LayerCount: 2
Fore
SplineSet
443 1081 m 0
 435.666992188 1075 425.666992188 1068.33300781 413 1061 c 0
 400.333007812 1053.66699219 388.333007812 1048.33300781 377 1045 c 0
 15 1422 l 0
 39 1468 l 0
 45.6669921875 1469.33300781 56.6669921875 1471.5 72 1474.5 c 0
 87.3330078125 1477.5 103.833007812 1480.5 121.5 1483.5 c 0
 139.166992188 1486.5 156.333007812 1489.33300781 173 1492 c 0
 189.666992188 1494.66699219 202 1496.33300781 210 1497 c 0
 443 1081 l 0
EndSplineSet
EndChar

StartChar: a
Encoding: 68 97 68
Width: 968
VWidth: 1024
Flags: HW
LayerCount: 2
Fore
SplineSet
956 92 m 0
 899.333007812 52.6669921875 848.833007812 22.5 804.5 1.5 c 0
 760.166992188 -19.5 727.666992188 -30 707 -30 c 0
 683.666992188 -30 664.5 -15 649.5 15 c 0
 634.5 45 625.666992188 86.3330078125 623 139 c 0
 593 108.333007812 563 82.3330078125 533 61 c 0
 503 39.6669921875 473.833007812 22.1669921875 445.5 8.5 c 0
 417.166992188 -5.1669921875 390 -15 364 -21 c 0
 338 -27 314.333007812 -30 293 -30 c 0
 267.666992188 -30 242.166992188 -25.8330078125 216.5 -17.5 c 0
 190.833007812 -9.1669921875 167.5 4 146.5 22 c 0
 125.5 40 108.333007812 63 95 91 c 0
 81.6669921875 119 75 152.333007812 75 191 c 0
 75 239.666992188 83.6669921875 280.666992188 101 314 c 0
 118.333007812 347.333007812 139.333007812 376.333007812 164 401 c 0
 180 417 198.333007812 432.333007812 219 447 c 0
 239.666992188 461.666992188 266.833007812 475.666992188 300.5 489 c 0
 334.166992188 502.333007812 376.833007812 515.166992188 428.5 527.5 c 0
 480.166992188 539.833007812 545 552 623 564 c 0
 623 697 l 0
 623 719 620.666992188 739.5 616 758.5 c 0
 611.333007812 777.5 603 793.833007812 591 807.5 c 0
 579 821.166992188 563 831.833007812 543 839.5 c 0
 523 847.166992188 498 850.666992188 468 850 c 0
 448 850 428.666992188 846.666992188 410 840 c 0
 391.333007812 833.333007812 374.666992188 824.333007812 360 813 c 0
 345.333007812 801.666992188 334 787.833007812 326 771.5 c 0
 318 755.166992188 315 737 317 717 c 0
 317.666992188 713 313.833007812 708.333007812 305.5 703 c 0
 297.166992188 697.666992188 286.5 692.333007812 273.5 687 c 0
 260.5 681.666992188 246.166992188 676.666992188 230.5 672 c 0
 214.833007812 667.333007812 199.5 663.333007812 184.5 660 c 0
 169.5 656.666992188 155.833007812 654.166992188 143.5 652.5 c 0
 131.166992188 650.833007812 122.333007812 650.666992188 117 652 c 0
 101 696 l 0
 116.333007812 731.333007812 140.333007812 765 173 797 c 0
 205.666992188 829 243 857 285 881 c 0
 327 905 372 924.166992188 420 938.5 c 0
 468 952.833007812 515.333007812 960 562 960 c 0
 641.333007812 960 701.333007812 939.666992188 742 899 c 0
 782.666992188 858.333007812 803 803.666992188 803 735 c 0
 803 198 l 0
 803 170 806.666992188 150 814 138 c 0
 821.333007812 126 831 120 843 120 c 0
 852.333007812 120 864 121.666992188 878 125 c 0
 892 128.333007812 912.333007812 135.666992188 939 147 c 0
 956 92 l 0
372 115 m 0
 406.666992188 115 444.5 124.166992188 485.5 142.5 c 0
 526.5 160.833007812 572.333007812 191.666992188 623 235 c 0
 623 481 l 0
 572.333007812 473 530.333007812 465 497 457 c 0
 463.666992188 449 436 440.833007812 414 432.5 c 0
 392 424.166992188 374.5 415.5 361.5 406.5 c 0
 348.5 397.5 337 387.666992188 327 377 c 0
 309.666992188 359 295.666992188 339 285 317 c 0
 274.333007812 295 269 269 269 239 c 0
 269 213.666992188 272.666992188 193 280 177 c 0
 287.333007812 161 296.333007812 148.333007812 307 139 c 0
 317.666992188 129.666992188 329 123.333007812 341 120 c 0
 353 116.666992188 363.333007812 115 372 115 c 0
EndSplineSet
EndChar

StartChar: b
Encoding: 69 98 69
Width: 1060
VWidth: 1024
Flags: HW
LayerCount: 2
Fore
SplineSet
811 411 m 0
 811 477.666992188 804.5 536 791.5 586 c 0
 778.5 636 761 677.833007812 739 711.5 c 0
 717 745.166992188 691.666992188 770.5 663 787.5 c 0
 634.333007812 804.5 604 813 572 813 c 0
 560 813 545 810.166992188 527 804.5 c 0
 509 798.833007812 488.666992188 789 466 775 c 0
 443.333007812 761 419.166992188 742.5 393.5 719.5 c 0
 367.833007812 696.5 341.666992188 667.666992188 315 633 c 0
 315 208 l 0
 341.666992188 190 368.166992188 175 394.5 163 c 0
 420.833007812 151 445.666992188 141.166992188 469 133.5 c 0
 492.333007812 125.833007812 513.333007812 120.5 532 117.5 c 0
 550.666992188 114.5 565.666992188 113 577 113 c 0
 615.666992188 113 649.666992188 121.333007812 679 138 c 0
 708.333007812 154.666992188 732.666992188 176.833007812 752 204.5 c 0
 771.333007812 232.166992188 786 263.833007812 796 299.5 c 0
 806 335.166992188 811 372.333007812 811 411 c 0
975 497 m 0
 975 458.333007812 969.333007812 418.5 958 377.5 c 0
 946.666992188 336.5 930.5 296.5 909.5 257.5 c 0
 888.5 218.5 863 181.5 833 146.5 c 0
 803 111.5 769.666992188 81 733 55 c 0
 696.333007812 29 656.666992188 8.3330078125 614 -7 c 0
 571.333007812 -22.3330078125 526.333007812 -30 479 -30 c 0
 464.333007812 -30 445 -27 421 -21 c 0
 397 -15 369.833007812 -6.5 339.5 4.5 c 0
 309.166992188 15.5 276.5 28.6669921875 241.5 44 c 0
 206.5 59.3330078125 171 76.6669921875 135 96 c 0
 135 1286 l 0
 135 1316.66699219 133.5 1340.33300781 130.5 1357 c 0
 127.5 1373.66699219 121.5 1386.16699219 112.5 1394.5 c 0
 103.5 1402.83300781 90.6669921875 1408.33300781 74 1411 c 0
 57.3330078125 1413.66699219 35.3330078125 1416.66699219 8 1420 c 0
 8 1470 l 0
 58 1480.66699219 104.666992188 1491.5 148 1502.5 c 0
 191.333007812 1513.5 234 1529.33300781 276 1550 c 0
 286 1540 l 0
 290 1536 294.333007812 1532 299 1528 c 0
 303.666992188 1523.33300781 309 1518.66699219 315 1514 c 0
 315 752 l 0
 348.333007812 788 381.5 819.166992188 414.5 845.5 c 0
 447.5 871.833007812 479 893.5 509 910.5 c 0
 539 927.5 566.833007812 940 592.5 948 c 0
 618.166992188 956 640.666992188 960 660 960 c 0
 706.666992188 960 749.333007812 949.333007812 788 928 c 0
 826.666992188 906.666992188 859.833007812 876 887.5 836 c 0
 915.166992188 796 936.666992188 747.5 952 690.5 c 0
 967.333007812 633.5 975 569 975 497 c 0
EndSplineSet
EndChar

StartChar: c
Encoding: 70 99 70
Width: 908
VWidth: 1024
Flags: HW
LayerCount: 2
Fore
SplineSet
858 190 m 0
 814.666992188 139.333007812 775.833007812 99.5 741.5 70.5 c 0
 707.166992188 41.5 675.166992188 19.5 645.5 4.5 c 0
 615.833007812 -10.5 587 -20 559 -24 c 0
 531 -28 501.333007812 -30 470 -30 c 0
 419.333007812 -30 370.333007812 -19.1669921875 323 2.5 c 0
 275.666992188 24.1669921875 233.666992188 55.3330078125 197 96 c 0
 160.333007812 136.666992188 130.833007812 186.333007812 108.5 245 c 0
 86.1669921875 303.666992188 75 370 75 444 c 0
 75 516 88.1669921875 583.333007812 114.5 646 c 0
 140.833007812 708.666992188 177.166992188 763.166992188 223.5 809.5 c 0
 269.833007812 855.833007812 324.833007812 892.5 388.5 919.5 c 0
 452.166992188 946.5 521 960 595 960 c 0
 617 960 640.333007812 958.166992188 665 954.5 c 0
 689.666992188 950.833007812 713.5 945.5 736.5 938.5 c 0
 759.5 931.5 780.5 923.166992188 799.5 913.5 c 0
 818.5 903.833007812 833.666992188 893 845 881 c 0
 846.333007812 873 845 860 841 842 c 0
 837 824 831.5 804.833007812 824.5 784.5 c 0
 817.5 764.166992188 810 744.833007812 802 726.5 c 0
 794 708.166992188 787 694.333007812 781 685 c 0
 734 695 l 0
 726.666992188 713.666992188 716.833007812 732 704.5 750 c 0
 692.166992188 768 676.833007812 784 658.5 798 c 0
 640.166992188 812 618.833007812 823.333007812 594.5 832 c 0
 570.166992188 840.666992188 542 845 510 845 c 0
 476.666992188 845 444.666992188 837.666992188 414 823 c 0
 383.333007812 808.333007812 356.333007812 785.666992188 333 755 c 0
 309.666992188 724.333007812 290.833007812 685.833007812 276.5 639.5 c 0
 262.166992188 593.166992188 255 538.333007812 255 475 c 0
 255 419.666992188 263 369.666992188 279 325 c 0
 295 280.333007812 316.333007812 242.333007812 343 211 c 0
 369.666992188 179.666992188 400.666992188 155.5 436 138.5 c 0
 471.333007812 121.5 508.333007812 113 547 113 c 0
 565.666992188 113 583.333007812 114 600 116 c 0
 616.666992188 118 634.666992188 123 654 131 c 0
 673.333007812 139 695.666992188 151.5 721 168.5 c 0
 746.333007812 185.5 777.333007812 209 814 239 c 0
 858 190 l 0
EndSplineSet
EndChar

StartChar: d
Encoding: 71 100 71
Width: 1093
VWidth: 1024
Flags: HW
LayerCount: 2
Fore
SplineSet
745 263 m 0
 745 722 l 0
 722.333007812 760.666992188 691.833007812 790.5 653.5 811.5 c 0
 615.166992188 832.5 572.333007812 843 525 843 c 0
 485.666992188 843 449.5 835.666992188 416.5 821 c 0
 383.5 806.333007812 355 784 331 754 c 0
 307 724 288.333007812 686.5 275 641.5 c 0
 261.666992188 596.5 255 543.666992188 255 483 c 0
 255 427.666992188 262.666992188 377.5 278 332.5 c 0
 293.333007812 287.5 313 249.333007812 337 218 c 0
 361 186.666992188 387.666992188 162.5 417 145.5 c 0
 446.333007812 128.5 474.666992188 120 502 120 c 0
 523.333007812 120 544.166992188 123.833007812 564.5 131.5 c 0
 584.833007812 139.166992188 605 149.5 625 162.5 c 0
 645 175.5 665 190.666992188 685 208 c 0
 705 225.333007812 725 243.666992188 745 263 c 0
1081 94 m 0
 1019 52.6669921875 967 21.6669921875 925 1 c 0
 883 -19.6669921875 852.666992188 -30 834 -30 c 0
 810.666992188 -30 791.833007812 -15 777.5 15 c 0
 763.166992188 45 753.333007812 93.6669921875 748 161 c 0
 720.666992188 130.333007812 694.666992188 103.166992188 670 79.5 c 0
 645.333007812 55.8330078125 620 35.8330078125 594 19.5 c 0
 568 3.1669921875 541 -9.1669921875 513 -17.5 c 0
 485 -25.8330078125 454.333007812 -30 421 -30 c 0
 381.666992188 -30 341.5 -19.1669921875 300.5 2.5 c 0
 259.5 24.1669921875 222.333007812 55.3330078125 189 96 c 0
 155.666992188 136.666992188 128.333007812 186.333007812 107 245 c 0
 85.6669921875 303.666992188 75 370 75 444 c 0
 75 484.666992188 80.1669921875 525.5 90.5 566.5 c 0
 100.833007812 607.5 115.833007812 647.166992188 135.5 685.5 c 0
 155.166992188 723.833007812 179.166992188 759.666992188 207.5 793 c 0
 235.833007812 826.333007812 267.666992188 855.333007812 303 880 c 0
 338.333007812 904.666992188 376.833007812 924.166992188 418.5 938.5 c 0
 460.166992188 952.833007812 504.333007812 960 551 960 c 0
 582.333007812 960 613.5 956.166992188 644.5 948.5 c 0
 675.5 940.833007812 709 924.333007812 745 899 c 0
 745 1264 l 0
 745 1300.66699219 744.166992188 1329.83300781 742.5 1351.5 c 0
 740.833007812 1373.16699219 735.5 1389.83300781 726.5 1401.5 c 0
 717.5 1413.16699219 703.5 1421.16699219 684.5 1425.5 c 0
 665.5 1429.83300781 638.333007812 1433.33300781 603 1436 c 0
 603 1485 l 0
 663.666992188 1492.33300781 718.333007812 1502.16699219 767 1514.5 c 0
 815.666992188 1526.83300781 857.333007812 1538.66699219 892 1550 c 0
 925 1518 l 0
 925 269 l 0
 925 245.666992188 925.5 225.833007812 926.5 209.5 c 0
 927.5 193.166992188 929 179.5 931 168.5 c 0
 933 157.5 935.333007812 148.666992188 938 142 c 0
 940.666992188 135.333007812 944 130 948 126 c 0
 951.333007812 122.666992188 955.5 120.5 960.5 119.5 c 0
 965.5 118.5 972.5 118.833007812 981.5 120.5 c 0
 990.5 122.166992188 1001.5 125 1014.5 129 c 0
 1027.5 133 1043.66699219 139 1063 147 c 0
 1081 94 l 0
EndSplineSet
EndChar

StartChar: e
Encoding: 72 101 72
Width: 961
VWidth: 1024
Flags: HW
LayerCount: 2
Fore
SplineSet
886 555 m 0
 874 541.666992188 856.333007812 528.5 833 515.5 c 0
 809.666992188 502.5 787.333007812 491.666992188 766 483 c 0
 258 483 l 0
 258.666992188 432.333007812 265.666992188 384.5 279 339.5 c 0
 292.333007812 294.5 311 255.333007812 335 222 c 0
 359 188.666992188 388.166992188 162.166992188 422.5 142.5 c 0
 456.833007812 122.833007812 495.666992188 113 539 113 c 0
 559.666992188 113 579.833007812 114.333007812 599.5 117 c 0
 619.166992188 119.666992188 640.333007812 125.5 663 134.5 c 0
 685.666992188 143.5 711 156.666992188 739 174 c 0
 767 191.333007812 800 214.666992188 838 244 c 0
 846.666992188 239.333007812 855 231.333007812 863 220 c 0
 871 208.666992188 876.666992188 200.333007812 880 195 c 0
 834.666992188 147 794.666992188 108.333007812 760 79 c 0
 725.333007812 49.6669921875 692.5 26.8330078125 661.5 10.5 c 0
 630.5 -5.8330078125 599.833007812 -16.6669921875 569.5 -22 c 0
 539.166992188 -27.3330078125 506 -30 470 -30 c 0
 416.666992188 -30 366.166992188 -18.8330078125 318.5 3.5 c 0
 270.833007812 25.8330078125 229 57.3330078125 193 98 c 0
 157 138.666992188 128.333007812 187.666992188 107 245 c 0
 85.6669921875 302.333007812 75 366.333007812 75 437 c 0
 75 481.666992188 79.8330078125 525.333007812 89.5 568 c 0
 99.1669921875 610.666992188 113.166992188 650.666992188 131.5 688 c 0
 149.833007812 725.333007812 172.333007812 760 199 792 c 0
 225.666992188 824 256.333007812 852 291 876 c 0
 307 887.333007812 324.666992188 898 344 908 c 0
 363.333007812 918 383.5 926.833007812 404.5 934.5 c 0
 425.5 942.166992188 447 948.333007812 469 953 c 0
 491 957.666992188 512 960 532 960 c 0
 575.333007812 960 614.333007812 954.333007812 649 943 c 0
 683.666992188 931.666992188 714.166992188 916.166992188 740.5 896.5 c 0
 766.833007812 876.833007812 789.166992188 853.666992188 807.5 827 c 0
 825.833007812 800.333007812 840.833007812 772 852.5 742 c 0
 864.166992188 712 872.666992188 681 878 649 c 0
 883.333007812 617 886 585.666992188 886 555 c 0
501 850 m 0
 467.666992188 850 437.5 843.5 410.5 830.5 c 0
 383.5 817.5 360 799.166992188 340 775.5 c 0
 320 751.833007812 303.5 723.333007812 290.5 690 c 0
 277.5 656.666992188 268.333007812 620 263 580 c 0
 659 580 l 0
 674.333007812 580 684.5 582.5 689.5 587.5 c 0
 694.5 592.5 697 602 697 616 c 0
 697 634.666992188 694.333007812 657.333007812 689 684 c 0
 683.666992188 710.666992188 673.833007812 736.333007812 659.5 761 c 0
 645.166992188 785.666992188 625.333007812 806.666992188 600 824 c 0
 574.666992188 841.333007812 541.666992188 850 501 850 c 0
EndSplineSet
EndChar

StartChar: f
Encoding: 73 102 73
Width: 657
VWidth: 1024
Flags: HW
LayerCount: 2
Fore
SplineSet
842 1454 m 0
 842 1446.66699219 836.5 1436.66699219 825.5 1424 c 0
 814.5 1411.33300781 801.5 1398.33300781 786.5 1385 c 0
 771.5 1371.66699219 756.166992188 1359.16699219 740.5 1347.5 c 0
 724.833007812 1335.83300781 712 1327.66699219 702 1323 c 0
 670 1355 638.5 1378.33300781 607.5 1393 c 0
 576.5 1407.66699219 551.333007812 1415 532 1415 c 0
 514.666992188 1415 496.833007812 1409.33300781 478.5 1398 c 0
 460.166992188 1386.66699219 443.333007812 1366.16699219 428 1336.5 c 0
 412.666992188 1306.83300781 400 1266.16699219 390 1214.5 c 0
 380 1162.83300781 375 1096.66699219 375 1016 c 0
 375 930 l 0
 630 930 l 0
 662 899 l 0
 656 889 648.5 878.333007812 639.5 867 c 0
 630.5 855.666992188 621.5 845 612.5 835 c 0
 603.5 825 594.666992188 816 586 808 c 0
 577.333007812 800 570 794 564 790 c 0
 548.666992188 798 526.666992188 805.833007812 498 813.5 c 0
 469.333007812 821.166992188 428.333007812 825 375 825 c 0
 375 112 l 0
 375 108 378.5 104 385.5 100 c 0
 392.5 96 404 91.8330078125 420 87.5 c 0
 436 83.1669921875 457.166992188 78.1669921875 483.5 72.5 c 0
 509.833007812 66.8330078125 542.666992188 60.3330078125 582 53 c 0
 582 0 l 0
 58 0 l 0
 58 53 l 0
 104 61 138.333007812 70.8330078125 161 82.5 c 0
 183.666992188 94.1669921875 195 104 195 112 c 0
 195 825 l 0
 66 825 l 0
 43 856 l 0
 121 930 l 0
 195 930 l 0
 195 961 l 0
 195 1031.66699219 199.833007812 1092.33300781 209.5 1143 c 0
 219.166992188 1193.66699219 232.5 1237.33300781 249.5 1274 c 0
 266.5 1310.66699219 286.5 1342.33300781 309.5 1369 c 0
 332.5 1395.66699219 357.333007812 1420.33300781 384 1443 c 0
 404 1460.33300781 425.666992188 1475.66699219 449 1489 c 0
 472.333007812 1502.33300781 495.166992188 1513.5 517.5 1522.5 c 0
 539.833007812 1531.5 561.333007812 1538.33300781 582 1543 c 0
 602.666992188 1547.66699219 620.666992188 1550 636 1550 c 0
 660 1550 684.166992188 1546 708.5 1538 c 0
 732.833007812 1530 754.833007812 1520.83300781 774.5 1510.5 c 0
 794.166992188 1500.16699219 810.333007812 1489.66699219 823 1479 c 0
 835.666992188 1468.33300781 842 1460 842 1454 c 0
EndSplineSet
EndChar

StartChar: g
Encoding: 74 103 74
Width: 1019
VWidth: 1024
Flags: HW
LayerCount: 2
Fore
SplineSet
853 641 m 0
 853 589.666992188 841.5 542.833007812 818.5 500.5 c 0
 795.5 458.166992188 765.333007812 421.833007812 728 391.5 c 0
 690.666992188 361.166992188 647.666992188 337.5 599 320.5 c 0
 550.333007812 303.5 500.666992188 295 450 295 c 0
 444 295 l 0
 414.666992188 269.666992188 394.833007812 248.666992188 384.5 232 c 0
 374.166992188 215.333007812 369 205 369 201 c 0
 369 193.666992188 372 186.5 378 179.5 c 0
 384 172.5 395.833007812 165.666992188 413.5 159 c 0
 431.166992188 152.333007812 456.166992188 145.833007812 488.5 139.5 c 0
 520.833007812 133.166992188 563 126.666992188 615 120 c 0
 689.666992188 111.333007812 751.333007812 99.1669921875 800 83.5 c 0
 848.666992188 67.8330078125 887.333007812 49.8330078125 916 29.5 c 0
 944.666992188 9.1669921875 964.666992188 -13.3330078125 976 -38 c 0
 987.333007812 -62.6669921875 993 -88.3330078125 993 -115 c 0
 993 -149.666992188 986 -183.333007812 972 -216 c 0
 958 -248.666992188 938.666992188 -279.166992188 914 -307.5 c 0
 889.333007812 -335.833007812 860.5 -361.666992188 827.5 -385 c 0
 794.5 -408.333007812 759 -428.333007812 721 -445 c 0
 683 -461.666992188 643.333007812 -474.666992188 602 -484 c 0
 560.666992188 -493.333007812 520 -498 480 -498 c 0
 447.333007812 -498 413.5 -495.833007812 378.5 -491.5 c 0
 343.5 -487.166992188 309.166992188 -480.333007812 275.5 -471 c 0
 241.833007812 -461.666992188 209.833007812 -449.833007812 179.5 -435.5 c 0
 149.166992188 -421.166992188 122.5 -403.833007812 99.5 -383.5 c 0
 76.5 -363.166992188 58.3330078125 -340.166992188 45 -314.5 c 0
 31.6669921875 -288.833007812 25 -259.666992188 25 -227 c 0
 25 -209.666992188 28.3330078125 -191.833007812 35 -173.5 c 0
 41.6669921875 -155.166992188 54.5 -135.5 73.5 -114.5 c 0
 92.5 -93.5 119 -70.6669921875 153 -46 c 0
 187 -21.3330078125 231.666992188 6 287 36 c 0
 245.666992188 51.3330078125 216.166992188 68.1669921875 198.5 86.5 c 0
 180.833007812 104.833007812 172 123.666992188 172 143 c 0
 172 149 174.166992188 157 178.5 167 c 0
 182.833007812 177 190.833007812 189 202.5 203 c 0
 214.166992188 217 230.166992188 232.833007812 250.5 250.5 c 0
 270.833007812 268.166992188 296.666992188 288 328 310 c 0
 293.333007812 320 261.666992188 333.833007812 233 351.5 c 0
 204.333007812 369.166992188 179.833007812 390.5 159.5 415.5 c 0
 139.166992188 440.5 123.333007812 468.666992188 112 500 c 0
 100.666992188 531.333007812 95 565.333007812 95 602 c 0
 95 650.666992188 106.333007812 696.833007812 129 740.5 c 0
 151.666992188 784.166992188 181.666992188 822.166992188 219 854.5 c 0
 256.333007812 886.833007812 299.166992188 912.5 347.5 931.5 c 0
 395.833007812 950.5 446 960 498 960 c 0
 540 960 579.166992188 954.166992188 615.5 942.5 c 0
 651.833007812 930.833007812 685 914.666992188 715 894 c 0
 781 901.333007812 836.166992188 911.666992188 880.5 925 c 0
 924.833007812 938.333007812 961 950 989 960 c 0
 1012 928 l 0
 1004.66699219 910.666992188 996.833007812 893 988.5 875 c 0
 980.166992188 857 969 839.666992188 955 823 c 0
 931 819 906.833007812 815.5 882.5 812.5 c 0
 858.166992188 809.5 831 807.333007812 801 806 c 0
 817.666992188 782 830.5 756 839.5 728 c 0
 848.5 700 853 671 853 641 c 0
531 -17 m 0
 503 -13.6669921875 477.166992188 -10 453.5 -6 c 0
 429.833007812 -2 407.333007812 2.3330078125 386 7 c 0
 344.666992188 -17 312 -38.8330078125 288 -58.5 c 0
 264 -78.1669921875 245.833007812 -95.8330078125 233.5 -111.5 c 0
 221.166992188 -127.166992188 213.333007812 -141.166992188 210 -153.5 c 0
 206.666992188 -165.833007812 205 -177.333007812 205 -188 c 0
 205 -214 213.833007812 -238.666992188 231.5 -262 c 0
 249.166992188 -285.333007812 273.333007812 -305.666992188 304 -323 c 0
 334.666992188 -340.333007812 370.333007812 -354.166992188 411 -364.5 c 0
 451.666992188 -374.833007812 494.666992188 -380 540 -380 c 0
 582.666992188 -380 621.166992188 -374.333007812 655.5 -363 c 0
 689.833007812 -351.666992188 718.666992188 -336.333007812 742 -317 c 0
 765.333007812 -297.666992188 783.333007812 -274.666992188 796 -248 c 0
 808.666992188 -221.333007812 815 -192.666992188 815 -162 c 0
 815 -145.333007812 811 -129.666992188 803 -115 c 0
 795 -100.333007812 780.5 -86.8330078125 759.5 -74.5 c 0
 738.5 -62.1669921875 709.666992188 -51.1669921875 673 -41.5 c 0
 636.333007812 -31.8330078125 589 -23.6669921875 531 -17 c 0
683 600 m 0
 683 634.666992188 677.666992188 667.5 667 698.5 c 0
 656.333007812 729.5 640.333007812 756.666992188 619 780 c 0
 597.666992188 803.333007812 571.333007812 821.666992188 540 835 c 0
 508.666992188 848.333007812 472.333007812 855 431 855 c 0
 414.333007812 855 396.333007812 850.833007812 377 842.5 c 0
 357.666992188 834.166992188 339.666992188 821.833007812 323 805.5 c 0
 306.333007812 789.166992188 292.5 768.833007812 281.5 744.5 c 0
 270.5 720.166992188 265 691.666992188 265 659 c 0
 265 624.333007812 270 591.5 280 560.5 c 0
 290 529.5 305.333007812 502.5 326 479.5 c 0
 346.666992188 456.5 372.833007812 438.333007812 404.5 425 c 0
 436.166992188 411.666992188 473.666992188 405 517 405 c 0
 536.333007812 405 555.833007812 409 575.5 417 c 0
 595.166992188 425 613 437.166992188 629 453.5 c 0
 645 469.833007812 658 490.166992188 668 514.5 c 0
 678 538.833007812 683 567.333007812 683 600 c 0
EndSplineSet
EndChar

StartChar: h
Encoding: 75 104 75
Width: 1150
VWidth: 1024
Flags: HW
LayerCount: 2
Fore
SplineSet
668 0 m 0
 668 53 l 0
 716 65.6669921875 750.833007812 76.6669921875 772.5 86 c 0
 794.166992188 95.3330078125 805 104.666992188 805 114 c 0
 805 613 l 0
 805 653.666992188 802.666992188 686.833007812 798 712.5 c 0
 793.333007812 738.166992188 786 758.5 776 773.5 c 0
 766 788.5 753.166992188 798.833007812 737.5 804.5 c 0
 721.833007812 810.166992188 703.333007812 813 682 813 c 0
 638 813 589.166992188 793.333007812 535.5 754 c 0
 481.833007812 714.666992188 426.666992188 656.333007812 370 579 c 0
 370 114 l 0
 370 104 382.166992188 93.6669921875 406.5 83 c 0
 430.833007812 72.3330078125 464.666992188 62.3330078125 508 53 c 0
 508 0 l 0
 53 0 l 0
 53 53 l 0
 97 64.3330078125 130.833007812 74.5 154.5 83.5 c 0
 178.166992188 92.5 190 102.666992188 190 114 c 0
 190 1288 l 0
 190 1316 188.833007812 1337.83300781 186.5 1353.5 c 0
 184.166992188 1369.16699219 178.5 1381.33300781 169.5 1390 c 0
 160.5 1398.66699219 146.833007812 1404.83300781 128.5 1408.5 c 0
 110.166992188 1412.16699219 85 1416 53 1420 c 0
 53 1470 l 0
 84.3330078125 1475.33300781 112.5 1480.66699219 137.5 1486 c 0
 162.5 1491.33300781 185.833007812 1497.16699219 207.5 1503.5 c 0
 229.166992188 1509.83300781 249.833007812 1516.66699219 269.5 1524 c 0
 289.166992188 1531.33300781 309.666992188 1540 331 1550 c 0
 370 1514 l 0
 370 717 l 0
 402 755.666992188 435.666992188 790.166992188 471 820.5 c 0
 506.333007812 850.833007812 541.333007812 876.333007812 576 897 c 0
 610.666992188 917.666992188 644.166992188 933.333007812 676.5 944 c 0
 708.833007812 954.666992188 738 960 764 960 c 0
 792.666992188 960 820.333007812 955.5 847 946.5 c 0
 873.666992188 937.5 897.166992188 923.666992188 917.5 905 c 0
 937.833007812 886.333007812 954.166992188 862.5 966.5 833.5 c 0
 978.833007812 804.5 985 769.666992188 985 729 c 0
 985 114 l 0
 985 109.333007812 987.333007812 104.833007812 992 100.5 c 0
 996.666992188 96.1669921875 1004.33300781 91.6669921875 1015 87 c 0
 1025.66699219 82.3330078125 1039.83300781 77.1669921875 1057.5 71.5 c 0
 1075.16699219 65.8330078125 1097 59.6669921875 1123 53 c 0
 1123 0 l 0
 668 0 l 0
EndSplineSet
EndChar

StartChar: i
Encoding: 76 105 76
Width: 575
VWidth: 1024
Flags: HW
LayerCount: 2
Fore
SplineSet
418 1261 m 0
 418 1241 414.5 1222.33300781 407.5 1205 c 0
 400.5 1187.66699219 391 1172.66699219 379 1160 c 0
 367 1147.33300781 352.833007812 1137.33300781 336.5 1130 c 0
 320.166992188 1122.66699219 302.666992188 1119 284 1119 c 0
 252 1119 227.166992188 1127.5 209.5 1144.5 c 0
 191.833007812 1161.5 183 1186.66699219 183 1220 c 0
 183 1240 186.5 1258.66699219 193.5 1276 c 0
 200.5 1293.33300781 210 1308.33300781 222 1321 c 0
 234 1333.66699219 248 1343.5 264 1350.5 c 0
 280 1357.5 297 1361 315 1361 c 0
 346.333007812 1361 371.333007812 1352.83300781 390 1336.5 c 0
 408.666992188 1320.16699219 418 1295 418 1261 c 0
68 0 m 0
 68 53 l 0
 113.333007812 62.3330078125 147.5 72.5 170.5 83.5 c 0
 193.5 94.5 205 104.666992188 205 114 c 0
 205 663 l 0
 205 697 204.5 724.5 203.5 745.5 c 0
 202.5 766.5 197.833007812 782.833007812 189.5 794.5 c 0
 181.166992188 806.166992188 167.666992188 814.666992188 149 820 c 0
 130.333007812 825.333007812 103.333007812 829.666992188 68 833 c 0
 68 883 l 0
 115.333007812 891 163.166992188 901.666992188 211.5 915 c 0
 259.833007812 928.333007812 303 943.333007812 341 960 c 0
 385 960 l 0
 385 114 l 0
 385 106 395.833007812 96.1669921875 417.5 84.5 c 0
 439.166992188 72.8330078125 474.333007812 62.3330078125 523 53 c 0
 523 0 l 0
 68 0 l 0
EndSplineSet
EndChar

StartChar: j
Encoding: 77 106 77
Width: 550
VWidth: 1024
Flags: HW
LayerCount: 2
Fore
SplineSet
414 1261 m 0
 414 1241 410.666992188 1222.33300781 404 1205 c 0
 397.333007812 1187.66699219 388 1172.66699219 376 1160 c 0
 364 1147.33300781 349.833007812 1137.33300781 333.5 1130 c 0
 317.166992188 1122.66699219 299.666992188 1119 281 1119 c 0
 249 1119 224 1127.5 206 1144.5 c 0
 188 1161.5 179 1186.66699219 179 1220 c 0
 179 1240 182.5 1258.66699219 189.5 1276 c 0
 196.5 1293.33300781 206 1308.33300781 218 1321 c 0
 230 1333.66699219 244 1343.5 260 1350.5 c 0
 276 1357.5 293 1361 311 1361 c 0
 342.333007812 1361 367.333007812 1352.83300781 386 1336.5 c 0
 404.666992188 1320.16699219 414 1295 414 1261 c 0
380 102 m 0
 380 24.6669921875 374.5 -40.6669921875 363.5 -94 c 0
 352.5 -147.333007812 337.666992188 -192.666992188 319 -230 c 0
 300.333007812 -267.333007812 278.833007812 -298.833007812 254.5 -324.5 c 0
 230.166992188 -350.166992188 204.666992188 -373.666992188 178 -395 c 0
 160 -409 140.666992188 -422.333007812 120 -435 c 0
 99.3330078125 -447.666992188 78.5 -458.666992188 57.5 -468 c 0
 36.5 -477.333007812 16.3330078125 -484.666992188 -3 -490 c 0
 -22.3330078125 -495.333007812 -39.3330078125 -498 -54 -498 c 0
 -76.6669921875 -498 -99.1669921875 -495.166992188 -121.5 -489.5 c 0
 -143.833007812 -483.833007812 -164 -477 -182 -469 c 0
 -200 -461 -214.666992188 -452.5 -226 -443.5 c 0
 -237.333007812 -434.5 -243 -427 -243 -421 c 0
 -243 -414.333007812 -237.5 -404.666992188 -226.5 -392 c 0
 -215.5 -379.333007812 -202.333007812 -366.5 -187 -353.5 c 0
 -171.666992188 -340.5 -156 -328.333007812 -140 -317 c 0
 -124 -305.666992188 -111 -297.666992188 -101 -293 c 0
 -79 -314.333007812 -54.6669921875 -329.166992188 -28 -337.5 c 0
 -1.3330078125 -345.833007812 24.6669921875 -350 50 -350 c 0
 68.6669921875 -350 87 -344.333007812 105 -333 c 0
 123 -321.666992188 139 -301.333007812 153 -272 c 0
 167 -242.666992188 178.333007812 -202.666992188 187 -152 c 0
 195.666992188 -101.333007812 200 -36.3330078125 200 43 c 0
 200 663 l 0
 200 697 199.333007812 724.333007812 198 745 c 0
 196.666992188 765.666992188 191.833007812 781.833007812 183.5 793.5 c 0
 175.166992188 805.166992188 161.666992188 813.666992188 143 819 c 0
 124.333007812 824.333007812 97.6669921875 829 63 833 c 0
 63 883 l 0
 93 887.666992188 119.666992188 892.833007812 143 898.5 c 0
 166.333007812 904.166992188 188.333007812 910 209 916 c 0
 229.666992188 922 249.833007812 928.666992188 269.5 936 c 0
 289.166992188 943.333007812 310.333007812 951.333007812 333 960 c 0
 380 960 l 0
 380 102 l 0
EndSplineSet
EndChar

StartChar: k
Encoding: 78 107 78
Width: 1059
VWidth: 1024
Flags: HW
LayerCount: 2
Fore
SplineSet
53 0 m 0
 53 53 l 0
 97 64.3330078125 130.833007812 74.3330078125 154.5 83 c 0
 178.166992188 91.6669921875 190 102 190 114 c 0
 190 1286 l 0
 190 1316.66699219 188.333007812 1340.33300781 185 1357 c 0
 181.666992188 1373.66699219 175 1386.16699219 165 1394.5 c 0
 155 1402.83300781 141 1408.33300781 123 1411 c 0
 105 1413.66699219 81.6669921875 1416.66699219 53 1420 c 0
 53 1470 l 0
 105 1479.33300781 154.833007812 1490.16699219 202.5 1502.5 c 0
 250.166992188 1514.83300781 293 1530.66699219 331 1550 c 0
 370 1514 l 0
 370 531 l 0
 663 789 l 0
 685 808.333007812 698.666992188 823.833007812 704 835.5 c 0
 709.333007812 847.166992188 709 856 703 862 c 0
 697 868 686.833007812 872 672.5 874 c 0
 658.166992188 876 642.333007812 877 625 877 c 0
 625 930 l 0
 1027 930 l 0
 1027 877 l 0
 997.666992188 873.666992188 969.833007812 867.666992188 943.5 859 c 0
 917.166992188 850.333007812 890 835 862 813 c 0
 533 554 l 0
 904 124 l 0
 913.333007812 113.333007812 922.833007812 104.5 932.5 97.5 c 0
 942.166992188 90.5 952.833007812 85.1669921875 964.5 81.5 c 0
 976.166992188 77.8330078125 989.5 75.6669921875 1004.5 75 c 0
 1019.5 74.3330078125 1036.66699219 74.6669921875 1056 76 c 0
 1062 23 l 0
 1042.66699219 18.3330078125 1022.5 14 1001.5 10 c 0
 980.5 6 960.666992188 2.5 942 -0.5 c 0
 923.333007812 -3.5 906.666992188 -5.8330078125 892 -7.5 c 0
 877.333007812 -9.1669921875 866.666992188 -10 860 -10 c 0
 832 -10 809.166992188 -6 791.5 2 c 0
 773.833007812 10 757.666992188 23.6669921875 743 43 c 0
 370 520 l 0
 370 114 l 0
 370 108.666992188 371.166992188 104 373.5 100 c 0
 375.833007812 96 380.666992188 91.8330078125 388 87.5 c 0
 395.333007812 83.1669921875 406.333007812 78.3330078125 421 73 c 0
 435.666992188 67.6669921875 455.333007812 61 480 53 c 0
 480 0 l 0
 53 0 l 0
EndSplineSet
EndChar

StartChar: l
Encoding: 79 108 79
Width: 575
VWidth: 1024
Flags: HW
LayerCount: 2
Fore
SplineSet
58 0 m 0
 58 53 l 0
 86.6669921875 57.6669921875 110.5 62.5 129.5 67.5 c 0
 148.5 72.5 163.5 77.5 174.5 82.5 c 0
 185.5 87.5 193.333007812 92.6669921875 198 98 c 0
 202.666992188 103.333007812 205 108.666992188 205 114 c 0
 205 1286 l 0
 205 1316 203.166992188 1339.33300781 199.5 1356 c 0
 195.833007812 1372.66699219 188.833007812 1385.16699219 178.5 1393.5 c 0
 168.166992188 1401.83300781 154.166992188 1407.5 136.5 1410.5 c 0
 118.833007812 1413.5 96 1416.66699219 68 1420 c 0
 68 1470 l 0
 94.6669921875 1474.66699219 120 1479.5 144 1484.5 c 0
 168 1489.5 191.333007812 1495 214 1501 c 0
 236.666992188 1507 258.833007812 1514 280.5 1522 c 0
 302.166992188 1530 324.333007812 1539.33300781 347 1550 c 0
 385 1514 l 0
 385 114 l 0
 385 104 396 93.6669921875 418 83 c 0
 440 72.3330078125 478.333007812 62.3330078125 533 53 c 0
 533 0 l 0
 58 0 l 0
EndSplineSet
EndChar

StartChar: m
Encoding: 80 109 80
Width: 1673
VWidth: 1024
Flags: HW
LayerCount: 2
Fore
SplineSet
1194 0 m 0
 1194 53 l 0
 1242 65.6669921875 1275.83300781 76.6669921875 1295.5 86 c 0
 1315.16699219 95.3330078125 1325 104.666992188 1325 114 c 0
 1325 623 l 0
 1325 663.666992188 1322.83300781 697 1318.5 723 c 0
 1314.16699219 749 1307.5 769.5 1298.5 784.5 c 0
 1289.5 799.5 1278.16699219 809.666992188 1264.5 815 c 0
 1250.83300781 820.333007812 1234.33300781 823 1215 823 c 0
 1175.66699219 823 1131.66699219 803.833007812 1083 765.5 c 0
 1034.33300781 727.166992188 986 673 938 603 c 0
 938 114 l 0
 938 109.333007812 940.166992188 104.833007812 944.5 100.5 c 0
 948.833007812 96.1669921875 956.166992188 91.6669921875 966.5 87 c 0
 976.833007812 82.3330078125 990.833007812 77.1669921875 1008.5 71.5 c 0
 1026.16699219 65.8330078125 1048 59.6669921875 1074 53 c 0
 1074 0 l 0
 626 0 l 0
 626 53 l 0
 674 65.6669921875 708 76.6669921875 728 86 c 0
 748 95.3330078125 758 104.666992188 758 114 c 0
 758 623 l 0
 758 663.666992188 756 697 752 723 c 0
 748 749 741.833007812 769.5 733.5 784.5 c 0
 725.166992188 799.5 714.166992188 809.666992188 700.5 815 c 0
 686.833007812 820.333007812 670 823 650 823 c 0
 610 823 566.833007812 804 520.5 766 c 0
 474.166992188 728 424 673.666992188 370 603 c 0
 370 114 l 0
 370 104 381.666992188 93.6669921875 405 83 c 0
 428.333007812 72.3330078125 461.666992188 62.3330078125 505 53 c 0
 505 0 l 0
 53 0 l 0
 53 53 l 0
 97 64.3330078125 130.833007812 74.5 154.5 83.5 c 0
 178.166992188 92.5 190 102.666992188 190 114 c 0
 190 704 l 0
 190 730.666992188 188.833007812 751.666992188 186.5 767 c 0
 184.166992188 782.333007812 178.5 794.166992188 169.5 802.5 c 0
 160.5 810.833007812 146.833007812 817 128.5 821 c 0
 110.166992188 825 85 829 53 833 c 0
 53 883 l 0
 81 887 106.833007812 891.666992188 130.5 897 c 0
 154.166992188 902.333007812 176.5 908.166992188 197.5 914.5 c 0
 218.5 920.833007812 238.833007812 927.833007812 258.5 935.5 c 0
 278.166992188 943.166992188 298 951.333007812 318 960 c 0
 355 923 l 0
 366 729 l 0
 430.666992188 810.333007812 492.666992188 869.166992188 552 905.5 c 0
 611.333007812 941.833007812 665 960 713 960 c 0
 745 960 774.166992188 956.166992188 800.5 948.5 c 0
 826.833007812 940.833007812 849.5 928.666992188 868.5 912 c 0
 887.5 895.333007812 902.5 873.833007812 913.5 847.5 c 0
 924.5 821.166992188 930.666992188 789.666992188 932 753 c 0
 933 734 l 0
 995.666992188 812 1056.5 869.166992188 1115.5 905.5 c 0
 1174.5 941.833007812 1228.66699219 960 1278 960 c 0
 1310 960 1339.66699219 955.5 1367 946.5 c 0
 1394.33300781 937.5 1418.33300781 923.666992188 1439 905 c 0
 1459.66699219 886.333007812 1475.83300781 862.5 1487.5 833.5 c 0
 1499.16699219 804.5 1505 769.666992188 1505 729 c 0
 1505 114 l 0
 1505 104.666992188 1515.33300781 95.5 1536 86.5 c 0
 1556.66699219 77.5 1593.33300781 66.3330078125 1646 53 c 0
 1646 0 l 0
 1194 0 l 0
EndSplineSet
EndChar

StartChar: n
Encoding: 81 110 81
Width: 1150
VWidth: 1024
Flags: HW
LayerCount: 2
Fore
SplineSet
668 0 m 0
 668 53 l 0
 716 65.6669921875 750.833007812 76.6669921875 772.5 86 c 0
 794.166992188 95.3330078125 805 104.666992188 805 114 c 0
 805 618 l 0
 805 657.333007812 803 689.666992188 799 715 c 0
 795 740.333007812 788.166992188 760.166992188 778.5 774.5 c 0
 768.833007812 788.833007812 756.333007812 798.833007812 741 804.5 c 0
 725.666992188 810.166992188 707 813 685 813 c 0
 665.666992188 813 644.5 809 621.5 801 c 0
 598.5 793 573.833007812 779.833007812 547.5 761.5 c 0
 521.166992188 743.166992188 493 719.166992188 463 689.5 c 0
 433 659.833007812 402 623 370 579 c 0
 370 114 l 0
 370 104 382.166992188 93.6669921875 406.5 83 c 0
 430.833007812 72.3330078125 464.666992188 62.3330078125 508 53 c 0
 508 0 l 0
 53 0 l 0
 53 53 l 0
 97 64.3330078125 130.833007812 74.5 154.5 83.5 c 0
 178.166992188 92.5 190 102.666992188 190 114 c 0
 190 704 l 0
 190 730 189.166992188 750.666992188 187.5 766 c 0
 185.833007812 781.333007812 180.666992188 793.333007812 172 802 c 0
 163.333007812 810.666992188 149.833007812 817 131.5 821 c 0
 113.166992188 825 87 829 53 833 c 0
 53 883 l 0
 104.333007812 890.333007812 151 900.333007812 193 913 c 0
 235 925.666992188 276.666992188 941.333007812 318 960 c 0
 355 923 l 0
 366 709 l 0
 398.666992188 749.666992188 432.833007812 785.666992188 468.5 817 c 0
 504.166992188 848.333007812 539.5 874.5 574.5 895.5 c 0
 609.5 916.5 643.333007812 932.5 676 943.5 c 0
 708.666992188 954.5 738 960 764 960 c 0
 792.666992188 960 820.333007812 955.5 847 946.5 c 0
 873.666992188 937.5 897.166992188 923.666992188 917.5 905 c 0
 937.833007812 886.333007812 954.166992188 862.5 966.5 833.5 c 0
 978.833007812 804.5 985 769.666992188 985 729 c 0
 985 114 l 0
 985 109.333007812 987.333007812 104.833007812 992 100.5 c 0
 996.666992188 96.1669921875 1004.33300781 91.6669921875 1015 87 c 0
 1025.66699219 82.3330078125 1039.83300781 77.1669921875 1057.5 71.5 c 0
 1075.16699219 65.8330078125 1097 59.6669921875 1123 53 c 0
 1123 0 l 0
 668 0 l 0
EndSplineSet
EndChar

StartChar: o
Encoding: 82 111 82
Width: 1045
VWidth: 1024
Flags: HW
LayerCount: 2
Fore
SplineSet
970 485 m 0
 970 418.333007812 957.5 354 932.5 292 c 0
 907.5 230 873.666992188 175.166992188 831 127.5 c 0
 788.333007812 79.8330078125 738.833007812 41.6669921875 682.5 13 c 0
 626.166992188 -15.6669921875 566.666992188 -30 504 -30 c 0
 438.666992188 -30 379.666992188 -18 327 6 c 0
 274.333007812 30 229.333007812 63 192 105 c 0
 154.666992188 147 125.833007812 197 105.5 255 c 0
 85.1669921875 313 75 376 75 444 c 0
 75 488 80.5 531.333007812 91.5 574 c 0
 102.5 616.666992188 118 657.166992188 138 695.5 c 0
 158 733.833007812 182.166992188 769.166992188 210.5 801.5 c 0
 238.833007812 833.833007812 270.333007812 861.666992188 305 885 c 0
 339.666992188 908.333007812 377 926.666992188 417 940 c 0
 457 953.333007812 499 960 543 960 c 0
 607.666992188 960 666.166992188 948 718.5 924 c 0
 770.833007812 900 815.666992188 866.833007812 853 824.5 c 0
 890.333007812 782.166992188 919.166992188 732 939.5 674 c 0
 959.833007812 616 970 553 970 485 c 0
783 450 m 0
 783 502.666992188 775.333007812 552.833007812 760 600.5 c 0
 744.666992188 648.166992188 724.5 690.166992188 699.5 726.5 c 0
 674.5 762.833007812 645.833007812 791.666992188 613.5 813 c 0
 581.166992188 834.333007812 548 845 514 845 c 0
 466 845 426 835.5 394 816.5 c 0
 362 797.5 336.333007812 771.333007812 317 738 c 0
 297.666992188 704.666992188 283.833007812 665.333007812 275.5 620 c 0
 267.166992188 574.666992188 263 525.666992188 263 473 c 0
 263 420.333007812 271.166992188 370.5 287.5 323.5 c 0
 303.833007812 276.5 325 235.333007812 351 200 c 0
 377 164.666992188 406 136.666992188 438 116 c 0
 470 95.3330078125 501.333007812 85 532 85 c 0
 576.666992188 85 614.833007812 93.5 646.5 110.5 c 0
 678.166992188 127.5 704.166992188 151.666992188 724.5 183 c 0
 744.833007812 214.333007812 759.666992188 252.666992188 769 298 c 0
 778.333007812 343.333007812 783 394 783 450 c 0
EndSplineSet
EndChar

StartChar: p
Encoding: 83 112 83
Width: 1105
VWidth: 1024
Flags: HW
LayerCount: 2
Fore
SplineSet
1030 495 m 0
 1030 454.333007812 1024.83300781 413.333007812 1014.5 372 c 0
 1004.16699219 330.666992188 989.833007812 290.5 971.5 251.5 c 0
 953.166992188 212.5 931.666992188 175.833007812 907 141.5 c 0
 882.333007812 107.166992188 855.833007812 77.3330078125 827.5 52 c 0
 799.166992188 26.6669921875 769.5 6.6669921875 738.5 -8 c 0
 707.5 -22.6669921875 676.666992188 -30 646 -30 c 0
 606.666992188 -30 563.666992188 -19.8330078125 517 0.5 c 0
 470.333007812 20.8330078125 421.333007812 51.6669921875 370 93 c 0
 370 -365 l 0
 370 -375.666992188 382.5 -386.333007812 407.5 -397 c 0
 432.5 -407.666992188 476.333007812 -417.666992188 539 -427 c 0
 539 -480 l 0
 53 -480 l 0
 53 -427 l 0
 97 -416.333007812 130.833007812 -406.166992188 154.5 -396.5 c 0
 178.166992188 -386.833007812 190 -376.333007812 190 -365 c 0
 190 704 l 0
 190 728.666992188 188.833007812 749 186.5 765 c 0
 184.166992188 781 178.333007812 793.833007812 169 803.5 c 0
 159.666992188 813.166992188 146 820.166992188 128 824.5 c 0
 110 828.833007812 85 831.666992188 53 833 c 0
 53 883 l 0
 81 887.666992188 106.5 892.666992188 129.5 898 c 0
 152.5 903.333007812 174.333007812 909 195 915 c 0
 215.666992188 921 236 927.666992188 256 935 c 0
 276 942.333007812 296.666992188 950.666992188 318 960 c 0
 355 923 l 0
 364 750 l 0
 398.666992188 787.333007812 432.5 819.333007812 465.5 846 c 0
 498.5 872.666992188 529.833007812 894.5 559.5 911.5 c 0
 589.166992188 928.5 616.5 940.833007812 641.5 948.5 c 0
 666.5 956.166992188 688.666992188 960 708 960 c 0
 753.333007812 960 795.666992188 949.833007812 835 929.5 c 0
 874.333007812 909.166992188 908.5 879.166992188 937.5 839.5 c 0
 966.5 799.833007812 989.166992188 751.166992188 1005.5 693.5 c 0
 1021.83300781 635.833007812 1030 569.666992188 1030 495 c 0
865 426 m 0
 865 486 858.166992188 540.333007812 844.5 589 c 0
 830.833007812 637.666992188 812.833007812 679.166992188 790.5 713.5 c 0
 768.166992188 747.833007812 742.333007812 774.166992188 713 792.5 c 0
 683.666992188 810.833007812 653.666992188 820 623 820 c 0
 611 820 596.5 817.166992188 579.5 811.5 c 0
 562.5 805.833007812 543.333007812 795.833007812 522 781.5 c 0
 500.666992188 767.166992188 477.333007812 748 452 724 c 0
 426.666992188 700 399.333007812 669.666992188 370 633 c 0
 370 218 l 0
 402 196 430.833007812 178.166992188 456.5 164.5 c 0
 482.166992188 150.833007812 505.833007812 140.166992188 527.5 132.5 c 0
 549.166992188 124.833007812 569.166992188 119.666992188 587.5 117 c 0
 605.833007812 114.333007812 623.666992188 113 641 113 c 0
 673.666992188 113 703.666992188 119.666992188 731 133 c 0
 758.333007812 146.333007812 782 166.333007812 802 193 c 0
 822 219.666992188 837.5 252.333007812 848.5 291 c 0
 859.5 329.666992188 865 374.666992188 865 426 c 0
EndSplineSet
EndChar

StartChar: q
Encoding: 84 113 84
Width: 1078
VWidth: 1024
Flags: HW
LayerCount: 2
Fore
SplineSet
573 -480 m 0
 573 -427 l 0
 635.666992188 -417.666992188 679.666992188 -407.833007812 705 -397.5 c 0
 730.333007812 -387.166992188 743 -376.333007812 743 -365 c 0
 743 157 l 0
 716.333007812 127 690.333007812 100.333007812 665 77 c 0
 639.666992188 53.6669921875 614 34 588 18 c 0
 562 2 534.833007812 -10 506.5 -18 c 0
 478.166992188 -26 447.333007812 -30 414 -30 c 0
 376 -30 337 -19.1669921875 297 2.5 c 0
 257 24.1669921875 220.5 55.3330078125 187.5 96 c 0
 154.5 136.666992188 127.5 186.333007812 106.5 245 c 0
 85.5 303.666992188 75 370 75 444 c 0
 75 502.666992188 83.6669921875 556.166992188 101 604.5 c 0
 118.333007812 652.833007812 139.833007812 695.666992188 165.5 733 c 0
 191.166992188 770.333007812 218.666992188 802 248 828 c 0
 277.333007812 854 303.666992188 874 327 888 c 0
 365 909.333007812 404.166992188 926.666992188 444.5 940 c 0
 484.833007812 953.333007812 520.333007812 960 551 960 c 0
 569.666992188 960 588 958.833007812 606 956.5 c 0
 624 954.166992188 642.5 949.5 661.5 942.5 c 0
 680.5 935.5 700.166992188 925.5 720.5 912.5 c 0
 740.833007812 899.5 762.666992188 882.666992188 786 862 c 0
 798 868.666992188 810.5 876.5 823.5 885.5 c 0
 836.5 894.5 849.166992188 903.5 861.5 912.5 c 0
 873.833007812 921.5 885.166992188 930.166992188 895.5 938.5 c 0
 905.833007812 946.833007812 914 954 920 960 c 0
 954 928 l 0
 948 908 942.666992188 886.666992188 938 864 c 0
 934 844.666992188 930.5 821.666992188 927.5 795 c 0
 924.5 768.333007812 923 740 923 710 c 0
 923 -365 l 0
 923 -370.333007812 925.333007812 -375.666992188 930 -381 c 0
 934.666992188 -386.333007812 942.333007812 -391.666992188 953 -397 c 0
 963.666992188 -402.333007812 977.666992188 -407.5 995 -412.5 c 0
 1012.33300781 -417.5 1033.66699219 -422.333007812 1059 -427 c 0
 1059 -480 l 0
 573 -480 l 0
500 120 m 0
 521.333007812 120 542.166992188 123.833007812 562.5 131.5 c 0
 582.833007812 139.166992188 603 149.666992188 623 163 c 0
 643 176.333007812 663 191.666992188 683 209 c 0
 703 226.333007812 723 244.666992188 743 264 c 0
 743 720 l 0
 731.666992188 738.666992188 718 755.666992188 702 771 c 0
 686 786.333007812 668.5 799.333007812 649.5 810 c 0
 630.5 820.666992188 610.166992188 828.833007812 588.5 834.5 c 0
 566.833007812 840.166992188 545 843 523 843 c 0
 487.666992188 843 453.833007812 835.666992188 421.5 821 c 0
 389.166992188 806.333007812 360.666992188 784.333007812 336 755 c 0
 311.333007812 725.666992188 291.666992188 688.5 277 643.5 c 0
 262.333007812 598.5 255 545.666992188 255 485 c 0
 255 428.333007812 262.666992188 377.5 278 332.5 c 0
 293.333007812 287.5 312.833007812 249.166992188 336.5 217.5 c 0
 360.166992188 185.833007812 386.5 161.666992188 415.5 145 c 0
 444.5 128.333007812 472.666992188 120 500 120 c 0
EndSplineSet
EndChar

StartChar: r
Encoding: 85 114 85
Width: 844
VWidth: 1024
Flags: HW
LayerCount: 2
Fore
SplineSet
805 921 m 0
 811 917 813.333007812 903.833007812 812 881.5 c 0
 810.666992188 859.166992188 807.166992188 833.333007812 801.5 804 c 0
 795.833007812 774.666992188 788.666992188 745.166992188 780 715.5 c 0
 771.333007812 685.833007812 763 662 755 644 c 0
 702 644 l 0
 694.666992188 698 681.333007812 738.333007812 662 765 c 0
 642.666992188 791.666992188 619 805 591 805 c 0
 577 805 560.833007812 800 542.5 790 c 0
 524.166992188 780 505 763.833007812 485 741.5 c 0
 465 719.166992188 445.166992188 690 425.5 654 c 0
 405.833007812 618 387.333007812 573.666992188 370 521 c 0
 370 114 l 0
 370 104 383 93.6669921875 409 83 c 0
 435 72.3330078125 479.333007812 62.3330078125 542 53 c 0
 542 0 l 0
 53 0 l 0
 53 53 l 0
 97 63 130.833007812 72.8330078125 154.5 82.5 c 0
 178.166992188 92.1669921875 190 102.666992188 190 114 c 0
 190 679 l 0
 190 701 189.333007812 719.5 188 734.5 c 0
 186.666992188 749.5 185 761.666992188 183 771 c 0
 181 780.333007812 178.5 787.666992188 175.5 793 c 0
 172.5 798.333007812 169.666992188 802.666992188 167 806 c 0
 162.333007812 810.666992188 157.333007812 814.5 152 817.5 c 0
 146.666992188 820.5 139.666992188 823 131 825 c 0
 122.333007812 827 111.833007812 828.5 99.5 829.5 c 0
 87.1669921875 830.5 71.6669921875 831.666992188 53 833 c 0
 53 883 l 0
 79.6669921875 888.333007812 104.666992188 893.666992188 128 899 c 0
 151.333007812 904.333007812 173.666992188 910 195 916 c 0
 216.333007812 922 237.166992188 928.5 257.5 935.5 c 0
 277.833007812 942.5 298 950.666992188 318 960 c 0
 355 923 l 0
 368 723 l 0
 386 756.333007812 405.833007812 787.333007812 427.5 816 c 0
 449.166992188 844.666992188 472.166992188 869.666992188 496.5 891 c 0
 520.833007812 912.333007812 546.5 929.166992188 573.5 941.5 c 0
 600.5 953.833007812 628.333007812 960 657 960 c 0
 680.333007812 960 704.666992188 957 730 951 c 0
 755.333007812 945 780.333007812 935 805 921 c 0
EndSplineSet
EndChar

StartChar: s
Encoding: 86 115 86
Width: 813
VWidth: 1024
Flags: HW
LayerCount: 2
Fore
SplineSet
727 283 m 0
 727 235.666992188 720.166992188 195.166992188 706.5 161.5 c 0
 692.833007812 127.833007812 675.166992188 99.3330078125 653.5 76 c 0
 631.833007812 52.6669921875 607.5 34 580.5 20 c 0
 553.5 6 526.5 -4.6669921875 499.5 -12 c 0
 472.5 -19.3330078125 447.166992188 -24.1669921875 423.5 -26.5 c 0
 399.833007812 -28.8330078125 380.666992188 -30 366 -30 c 0
 348 -30 328.333007812 -28.5 307 -25.5 c 0
 285.666992188 -22.5 263.5 -18 240.5 -12 c 0
 217.5 -6 194 1.6669921875 170 11 c 0
 146 20.3330078125 123 31 101 43 c 0
 96.3330078125 45 93.1669921875 56.1669921875 91.5 76.5 c 0
 89.8330078125 96.8330078125 89.1669921875 120.5 89.5 147.5 c 0
 89.8330078125 174.5 91.6669921875 202.333007812 95 231 c 0
 98.3330078125 259.666992188 102.666992188 283 108 301 c 0
 163 290 l 0
 166.333007812 259.333007812 175 231.166992188 189 205.5 c 0
 203 179.833007812 221 157.5 243 138.5 c 0
 265 119.5 290.333007812 104.666992188 319 94 c 0
 347.666992188 83.3330078125 378.333007812 78 411 78 c 0
 459 78 497 90.5 525 115.5 c 0
 553 140.5 567 175.333007812 567 220 c 0
 567 246.666992188 560 270.333007812 546 291 c 0
 532 311.666992188 513.5 330.666992188 490.5 348 c 0
 467.5 365.333007812 441.333007812 381.666992188 412 397 c 0
 382.666992188 412.333007812 352.666992188 428 322 444 c 0
 294 458 266.666992188 473.166992188 240 489.5 c 0
 213.333007812 505.833007812 189.5 524.166992188 168.5 544.5 c 0
 147.5 564.833007812 130.666992188 587.5 118 612.5 c 0
 105.333007812 637.5 99 666 99 698 c 0
 99 739.333007812 108 776.333007812 126 809 c 0
 144 841.666992188 167.666992188 869.166992188 197 891.5 c 0
 226.333007812 913.833007812 260.166992188 930.833007812 298.5 942.5 c 0
 336.833007812 954.166992188 376 960 416 960 c 0
 439.333007812 960 464.166992188 958.166992188 490.5 954.5 c 0
 516.833007812 950.833007812 542.5 945.666992188 567.5 939 c 0
 592.5 932.333007812 615.833007812 924.333007812 637.5 915 c 0
 659.166992188 905.666992188 677 895 691 883 c 0
 695 879.666992188 695.666992188 870.166992188 693 854.5 c 0
 690.333007812 838.833007812 685.833007812 821.5 679.5 802.5 c 0
 673.166992188 783.5 666.166992188 765.166992188 658.5 747.5 c 0
 650.833007812 729.833007812 644.333007812 717.666992188 639 711 c 0
 590 719 l 0
 563.333007812 770.333007812 533.166992188 807.5 499.5 830.5 c 0
 465.833007812 853.5 431 865 395 865 c 0
 373.666992188 865 354.5 861.666992188 337.5 855 c 0
 320.5 848.333007812 306.166992188 839.833007812 294.5 829.5 c 0
 282.833007812 819.166992188 274 807.333007812 268 794 c 0
 262 780.666992188 259 767 259 753 c 0
 259 731.666992188 265 712.5 277 695.5 c 0
 289 678.5 305.166992188 662.5 325.5 647.5 c 0
 345.833007812 632.5 369.5 618 396.5 604 c 0
 423.5 590 452 575 482 559 c 0
 510.666992188 544.333007812 539.666992188 528.666992188 569 512 c 0
 598.333007812 495.333007812 624.666992188 476.166992188 648 454.5 c 0
 671.333007812 432.833007812 690.333007812 408.166992188 705 380.5 c 0
 719.666992188 352.833007812 727 320.333007812 727 283 c 0
EndSplineSet
EndChar

StartChar: t
Encoding: 87 116 87
Width: 723
VWidth: 1024
Flags: HW
LayerCount: 2
Fore
SplineSet
696 130 m 0
 622.666992188 76 555.666992188 35.8330078125 495 9.5 c 0
 434.333007812 -16.8330078125 386.333007812 -30 351 -30 c 0
 326.333007812 -30 302.666992188 -25.1669921875 280 -15.5 c 0
 257.333007812 -5.8330078125 237.5 9.3330078125 220.5 30 c 0
 203.5 50.6669921875 190 77.3330078125 180 110 c 0
 170 142.666992188 165 182.333007812 165 229 c 0
 165 825 l 0
 39 825 l 0
 15 856 l 0
 93 930 l 0
 165 930 l 0
 165 1164 l 0
 312 1283 l 0
 345 1255 l 0
 345 930 l 0
 665 930 l 0
 696 899 l 0
 690 889 682.5 878.333007812 673.5 867 c 0
 664.5 855.666992188 655.333007812 845 646 835 c 0
 636.666992188 825 627.5 816 618.5 808 c 0
 609.5 800 601.666992188 794 595 790 c 0
 579 798 554.833007812 805.833007812 522.5 813.5 c 0
 490.166992188 821.166992188 450 825 402 825 c 0
 345 825 l 0
 345 317 l 0
 345 279 347 247.333007812 351 222 c 0
 355 196.666992188 361 176.166992188 369 160.5 c 0
 377 144.833007812 387.333007812 133.833007812 400 127.5 c 0
 412.666992188 121.166992188 427.666992188 118 445 118 c 0
 468.333007812 118 497 122.833007812 531 132.5 c 0
 565 142.166992188 608.666992188 160.666992188 662 188 c 0
 696 130 l 0
EndSplineSet
EndChar

StartChar: u
Encoding: 88 117 88
Width: 1108
VWidth: 1024
Flags: HW
LayerCount: 2
Fore
SplineSet
1094 92 m 0
 1069.33300781 76 1044.5 60.6669921875 1019.5 46 c 0
 994.5 31.3330078125 971 18.3330078125 949 7 c 0
 927 -4.3330078125 907.5 -13.3330078125 890.5 -20 c 0
 873.5 -26.6669921875 861 -30 853 -30 c 0
 841 -30 830 -26.6669921875 820 -20 c 0
 810 -13.3330078125 801 -2.6669921875 793 12 c 0
 785 26.6669921875 778.166992188 45.8330078125 772.5 69.5 c 0
 766.833007812 93.1669921875 762.666992188 122 760 156 c 0
 718.666992188 116 681 83.8330078125 647 59.5 c 0
 613 35.1669921875 581.833007812 16.3330078125 553.5 3 c 0
 525.166992188 -10.3330078125 499.166992188 -19.1669921875 475.5 -23.5 c 0
 451.833007812 -27.8330078125 429.333007812 -30 408 -30 c 0
 376.666992188 -30 346.5 -25.6669921875 317.5 -17 c 0
 288.5 -8.3330078125 262.666992188 7.5 240 30.5 c 0
 217.333007812 53.5 199.166992188 85 185.5 125 c 0
 171.833007812 165 165 216.333007812 165 279 c 0
 165 704 l 0
 165 736 164.166992188 760.833007812 162.5 778.5 c 0
 160.833007812 796.166992188 156 809.5 148 818.5 c 0
 140 827.5 127.5 833.666992188 110.5 837 c 0
 93.5 840.333007812 69.6669921875 843.666992188 39 847 c 0
 39 897 l 0
 65.6669921875 899.666992188 90.6669921875 902.833007812 114 906.5 c 0
 137.333007812 910.166992188 159.833007812 914.5 181.5 919.5 c 0
 203.166992188 924.5 224.833007812 930.333007812 246.5 937 c 0
 268.166992188 943.666992188 291 951.333007812 315 960 c 0
 345 919 l 0
 345 337 l 0
 345 291.666992188 348.166992188 254.333007812 354.5 225 c 0
 360.833007812 195.666992188 370 172.333007812 382 155 c 0
 394 137.666992188 408.833007812 125.5 426.5 118.5 c 0
 444.166992188 111.5 464 108 486 108 c 0
 504.666992188 108 524.166992188 110.666992188 544.5 116 c 0
 564.833007812 121.333007812 586.166992188 130 608.5 142 c 0
 630.833007812 154 654.5 169.833007812 679.5 189.5 c 0
 704.5 209.166992188 731.333007812 233.333007812 760 262 c 0
 760 704 l 0
 760 734 758.666992188 758 756 776 c 0
 753.333007812 794 747.166992188 808 737.5 818 c 0
 727.833007812 828 714 835 696 839 c 0
 678 843 653.666992188 845.666992188 623 847 c 0
 623 897 l 0
 677 903 727.666992188 911.833007812 775 923.5 c 0
 822.333007812 935.166992188 866.666992188 947.333007812 908 960 c 0
 940 919 l 0
 940 264 l 0
 940 222.666992188 941.5 190.666992188 944.5 168 c 0
 947.5 145.333007812 953.666992188 130.666992188 963 124 c 0
 971 118.666992188 983.833007812 117.5 1001.5 120.5 c 0
 1019.16699219 123.5 1045 132.333007812 1079 147 c 0
 1094 92 l 0
EndSplineSet
EndChar

StartChar: v
Encoding: 89 118 89
Width: 1020
VWidth: 1024
Flags: HW
LayerCount: 2
Fore
SplineSet
1002 877 m 0
 982 872.333007812 965.833007812 868 953.5 864 c 0
 941.166992188 860 931.166992188 855.5 923.5 850.5 c 0
 915.833007812 845.5 910 839.833007812 906 833.5 c 0
 902 827.166992188 898 819 894 809 c 0
 611 67 l 0
 605 52.3330078125 596.166992188 39.5 584.5 28.5 c 0
 572.833007812 17.5 560 8 546 0 c 0
 532 -8 517.666992188 -14.3330078125 503 -19 c 0
 488.333007812 -23.6669921875 475.333007812 -27.3330078125 464 -30 c 0
 126 809 l 0
 119.333007812 827.666992188 108 841.833007812 92 851.5 c 0
 76 861.166992188 51.3330078125 869.666992188 18 877 c 0
 18 930 l 0
 426 930 l 0
 426 877 l 0
 400 873.666992188 379 870.333007812 363 867 c 0
 347 863.666992188 335 859.5 327 854.5 c 0
 319 849.5 314.5 843.333007812 313.5 836 c 0
 312.5 828.666992188 314 819.666992188 318 809 c 0
 554 214 l 0
 775 809 l 0
 779 819 780.666992188 827.5 780 834.5 c 0
 779.333007812 841.5 775.5 847.5 768.5 852.5 c 0
 761.5 857.5 750.833007812 861.833007812 736.5 865.5 c 0
 722.166992188 869.166992188 703 873 679 877 c 0
 679 930 l 0
 1002 930 l 0
 1002 877 l 0
EndSplineSet
EndChar

StartChar: w
Encoding: 90 119 90
Width: 1454
VWidth: 1024
Flags: HW
LayerCount: 2
Fore
SplineSet
1435 877 m 0
 1415 872.333007812 1399 867.833007812 1387 863.5 c 0
 1375 859.166992188 1365.5 854.833007812 1358.5 850.5 c 0
 1351.5 846.166992188 1346.33300781 841.166992188 1343 835.5 c 0
 1339.66699219 829.833007812 1337 823 1335 815 c 0
 1114 59 l 0
 1110 44.3330078125 1102 31.8330078125 1090 21.5 c 0
 1078 11.1669921875 1065 2.5 1051 -4.5 c 0
 1037 -11.5 1023 -17 1009 -21 c 0
 995 -25 983.666992188 -28 975 -30 c 0
 731 616 l 0
 527 59 l 0
 521.666992188 43.6669921875 513.333007812 30.8330078125 502 20.5 c 0
 490.666992188 10.1669921875 478.166992188 1.5 464.5 -5.5 c 0
 450.833007812 -12.5 437.333007812 -17.8330078125 424 -21.5 c 0
 410.666992188 -25.1669921875 399.666992188 -28 391 -30 c 0
 127 815 l 0
 119.666992188 841.666992188 83.3330078125 862.333007812 18 877 c 0
 18 930 l 0
 426 930 l 0
 426 877 l 0
 394.666992188 873.666992188 370.333007812 869.833007812 353 865.5 c 0
 335.666992188 861.166992188 323.166992188 856.166992188 315.5 850.5 c 0
 307.833007812 844.833007812 303.833007812 839 303.5 833 c 0
 303.166992188 827 304 821 306 815 c 0
 481 234 l 0
 725 930 l 0
 797 930 l 0
 1054 234 l 0
 1217 815 l 0
 1221.66699219 830.333007812 1216.5 842.666992188 1201.5 852 c 0
 1186.5 861.333007812 1156 869.666992188 1110 877 c 0
 1110 930 l 0
 1435 930 l 0
 1435 877 l 0
EndSplineSet
EndChar

StartChar: x
Encoding: 91 120 91
Width: 1043
VWidth: 1024
Flags: HW
LayerCount: 2
Fore
SplineSet
597 0 m 0
 597 53 l 0
 613.666992188 54.3330078125 629.166992188 56.3330078125 643.5 59 c 0
 657.833007812 61.6669921875 669 66 677 72 c 0
 685 78 688.833007812 86.3330078125 688.5 97 c 0
 688.166992188 107.666992188 681.333007812 122 668 140 c 0
 488 386 l 0
 309 140 l 0
 295.666992188 122 290 107.666992188 292 97 c 0
 294 86.3330078125 300.333007812 78 311 72 c 0
 321.666992188 66 335 61.6669921875 351 59 c 0
 367 56.3330078125 383 54.3330078125 399 53 c 0
 399 0 l 0
 18 0 l 0
 18 53 l 0
 44 57 66 62.1669921875 84 68.5 c 0
 102 74.8330078125 117.5 82 130.5 90 c 0
 143.5 98 154.5 106.833007812 163.5 116.5 c 0
 172.5 126.166992188 180.666992188 136 188 146 c 0
 427 470 l 0
 196 788 l 0
 187.333007812 800 178.666992188 811.166992188 170 821.5 c 0
 161.333007812 831.833007812 151 840.666992188 139 848 c 0
 127 855.333007812 112.166992188 861.5 94.5 866.5 c 0
 76.8330078125 871.5 55 875 29 877 c 0
 29 930 l 0
 474 930 l 0
 474 877 l 0
 453.333007812 875 435.833007812 872.333007812 421.5 869 c 0
 407.166992188 865.666992188 396.666992188 860.833007812 390 854.5 c 0
 383.333007812 848.166992188 380.833007812 839.833007812 382.5 829.5 c 0
 384.166992188 819.166992188 391 806 403 790 c 0
 547 591 l 0
 691 790 l 0
 703 806 710 819.166992188 712 829.5 c 0
 714 839.833007812 712 848.166992188 706 854.5 c 0
 700 860.833007812 690 865.666992188 676 869 c 0
 662 872.333007812 644.666992188 875 624 877 c 0
 624 930 l 0
 1005 930 l 0
 1005 877 l 0
 977.666992188 875 954.166992188 871.5 934.5 866.5 c 0
 914.833007812 861.5 897.5 855.333007812 882.5 848 c 0
 867.5 840.666992188 854.5 831.833007812 843.5 821.5 c 0
 832.5 811.166992188 822.666992188 800 814 788 c 0
 608 507 l 0
 871 146 l 0
 879 136 887.5 126.166992188 896.5 116.5 c 0
 905.5 106.833007812 916.166992188 97.8330078125 928.5 89.5 c 0
 940.833007812 81.1669921875 955.166992188 73.6669921875 971.5 67 c 0
 987.833007812 60.3330078125 1007 55.6669921875 1029 53 c 0
 1029 0 l 0
 597 0 l 0
EndSplineSet
EndChar

StartChar: y
Encoding: 92 121 92
Width: 1020
VWidth: 1024
Flags: HW
LayerCount: 2
Fore
SplineSet
1002 877 m 0
 982 872.333007812 965.666992188 868 953 864 c 0
 940.333007812 860 930 855.5 922 850.5 c 0
 914 845.5 907.833007812 839.833007812 903.5 833.5 c 0
 899.166992188 827.166992188 895.333007812 819 892 809 c 0
 558 -80 l 0
 530 -153.333007812 498.833007812 -216.333007812 464.5 -269 c 0
 430.166992188 -321.666992188 394.5 -365 357.5 -399 c 0
 320.5 -433 282.833007812 -458 244.5 -474 c 0
 206.166992188 -490 168.666992188 -498 132 -498 c 0
 106.666992188 -498 82.8330078125 -496.166992188 60.5 -492.5 c 0
 38.1669921875 -488.833007812 18.6669921875 -484.166992188 2 -478.5 c 0
 -14.6669921875 -472.833007812 -27.8330078125 -466.5 -37.5 -459.5 c 0
 -47.1669921875 -452.5 -52 -446 -52 -440 c 0
 -52 -435.333007812 -47.3330078125 -426.166992188 -38 -412.5 c 0
 -28.6669921875 -398.833007812 -17.5 -384 -4.5 -368 c 0
 8.5 -352 22.3330078125 -336.666992188 37 -322 c 0
 51.6669921875 -307.333007812 64.3330078125 -296.666992188 75 -290 c 0
 107 -309.333007812 139.333007812 -320.333007812 172 -323 c 0
 204.666992188 -325.666992188 233.333007812 -322.333007812 258 -313 c 0
 270 -309 283.5 -300.5 298.5 -287.5 c 0
 313.5 -274.5 328.833007812 -258.333007812 344.5 -239 c 0
 360.166992188 -219.666992188 375.333007812 -197.5 390 -172.5 c 0
 404.666992188 -147.5 418 -120.666992188 430 -92 c 0
 459 -23 l 0
 129 809 l 0
 122.333007812 827.666992188 110.5 841.833007812 93.5 851.5 c 0
 76.5 861.166992188 51.3330078125 869.666992188 18 877 c 0
 18 930 l 0
 426 930 l 0
 426 877 l 0
 400 873.666992188 379.166992188 870.333007812 363.5 867 c 0
 347.833007812 863.666992188 336 859.5 328 854.5 c 0
 320 849.5 315.666992188 843.333007812 315 836 c 0
 314.333007812 828.666992188 316.333007812 819.666992188 321 809 c 0
 553 217 l 0
 773 809 l 0
 776.333007812 819 777.5 827.5 776.5 834.5 c 0
 775.5 841.5 771.166992188 847.5 763.5 852.5 c 0
 755.833007812 857.5 744.333007812 861.833007812 729 865.5 c 0
 713.666992188 869.166992188 694 873 670 877 c 0
 670 930 l 0
 1002 930 l 0
 1002 877 l 0
EndSplineSet
EndChar

StartChar: z
Encoding: 93 122 93
Width: 923
VWidth: 1024
Flags: HW
LayerCount: 2
Fore
SplineSet
847 276 m 0
 847 254.666992188 846.666992188 230.666992188 846 204 c 0
 845.333007812 177.333007812 844.5 150.833007812 843.5 124.5 c 0
 842.5 98.1669921875 841.333007812 73.8330078125 840 51.5 c 0
 838.666992188 29.1669921875 837 12 835 0 c 0
 97 0 l 0
 71 45 l 0
 617 830 l 0
 300 830 l 0
 288 830 276 827.333007812 264 822 c 0
 252 816.666992188 240.5 807.5 229.5 794.5 c 0
 218.5 781.5 208.166992188 764 198.5 742 c 0
 188.833007812 720 180.333007812 692.666992188 173 660 c 0
 117 675 l 0
 137 946 l 0
 151.666992188 942 165 938.833007812 177 936.5 c 0
 189 934.166992188 201.5 932.5 214.5 931.5 c 0
 227.5 930.5 241.666992188 930 257 930 c 0
 828 930 l 0
 850 887 l 0
 301 100 l 0
 697 100 l 0
 716.333007812 100 733 115.166992188 747 145.5 c 0
 761 175.833007812 776 223.333007812 792 288 c 0
 847 276 l 0
EndSplineSet
EndChar

StartChar: braceleft
Encoding: 94 123 94
Width: 698
VWidth: 1024
Flags: HW
LayerCount: 2
Fore
SplineSet
664 1543 m 0
 638 1527 613.833007812 1509 591.5 1489 c 0
 569.166992188 1469 550 1447 534 1423 c 0
 518 1399 505.333007812 1373.16699219 496 1345.5 c 0
 486.666992188 1317.83300781 482 1288.33300781 482 1257 c 0
 482 1231.66699219 483 1209.5 485 1190.5 c 0
 487 1171.5 489.5 1153.66699219 492.5 1137 c 0
 495.5 1120.33300781 498.833007812 1104.66699219 502.5 1090 c 0
 506.166992188 1075.33300781 509.5 1059.66699219 512.5 1043 c 0
 515.5 1026.33300781 518 1008.33300781 520 989 c 0
 522 969.666992188 523 947.666992188 523 923 c 0
 523 895 518.666992188 867.5 510 840.5 c 0
 501.333007812 813.5 488.833007812 788.166992188 472.5 764.5 c 0
 456.166992188 740.833007812 436.666992188 719.333007812 414 700 c 0
 391.333007812 680.666992188 366 665 338 653 c 0
 404.666992188 641 452.166992188 611.666992188 480.5 565 c 0
 508.833007812 518.333007812 523 458.333007812 523 385 c 0
 523 346.333007812 520.833007812 312.5 516.5 283.5 c 0
 512.166992188 254.5 507.5 227.166992188 502.5 201.5 c 0
 497.5 175.833007812 492.833007812 150.166992188 488.5 124.5 c 0
 484.166992188 98.8330078125 482 70 482 38 c 0
 482 4 484.333007812 -26 489 -52 c 0
 493.666992188 -78 502.333007812 -102 515 -124 c 0
 527.666992188 -146 545.166992188 -166.666992188 567.5 -186 c 0
 589.833007812 -205.333007812 618.666992188 -224.666992188 654 -244 c 0
 626 -315 l 0
 568 -292.333007812 517.666992188 -268.833007812 475 -244.5 c 0
 432.333007812 -220.166992188 397 -193 369 -163 c 0
 341 -133 320.166992188 -99.1669921875 306.5 -61.5 c 0
 292.833007812 -23.8330078125 286 19 286 67 c 0
 286 105 288.166992188 137.333007812 292.5 164 c 0
 296.833007812 190.666992188 301.5 216.333007812 306.5 241 c 0
 311.5 265.666992188 316.166992188 292 320.5 320 c 0
 324.833007812 348 327 382 327 422 c 0
 327 476 314.166992188 516 288.5 542 c 0
 262.833007812 568 226.333007812 581 179 581 c 0
 158 581 l 0
 154 581 150.333007812 580.833007812 147 580.5 c 0
 143.666992188 580.166992188 139.833007812 579.5 135.5 578.5 c 0
 131.166992188 577.5 124 576.333007812 114 575 c 0
 97 638 l 0
 173.666992188 658.666992188 231.166992188 688.833007812 269.5 728.5 c 0
 307.833007812 768.166992188 327 813 327 863 c 0
 327 889 326 911.833007812 324 931.5 c 0
 322 951.166992188 319.5 969 316.5 985 c 0
 313.5 1001 310.166992188 1016.16699219 306.5 1030.5 c 0
 302.833007812 1044.83300781 299.5 1060.16699219 296.5 1076.5 c 0
 293.5 1092.83300781 291 1110.83300781 289 1130.5 c 0
 287 1150.16699219 286 1173.33300781 286 1200 c 0
 286 1244.66699219 294.333007812 1286.5 311 1325.5 c 0
 327.666992188 1364.5 351.333007812 1400.5 382 1433.5 c 0
 412.666992188 1466.5 449.166992188 1496.83300781 491.5 1524.5 c 0
 533.833007812 1552.16699219 581 1577.33300781 633 1600 c 0
 664 1543 l 0
EndSplineSet
EndChar

StartChar: bar
Encoding: 95 124 95
Width: 469
VWidth: 1024
Flags: HW
LayerCount: 2
Fore
SplineSet
325 -351 m 0
 319 -356.333007812 311.333007812 -361.666992188 302 -367 c 0
 292.666992188 -372.333007812 282.833007812 -377.333007812 272.5 -382 c 0
 262.166992188 -386.666992188 251.666992188 -391 241 -395 c 0
 230.333007812 -399 221 -402.333007812 213 -405 c 0
 175 -380 l 0
 175 1619 l 0
 193.666992188 1630.33300781 212.166992188 1640.33300781 230.5 1649 c 0
 248.833007812 1657.66699219 267.666992188 1664.66699219 287 1670 c 0
 325 1646 l 0
 325 -351 l 0
EndSplineSet
EndChar

StartChar: braceright
Encoding: 96 125 96
Width: 698
VWidth: 1024
Flags: HW
LayerCount: 2
Fore
SplineSet
603 646 m 0
 525 625.333007812 467 595.5 429 556.5 c 0
 391 517.5 372 472.666992188 372 422 c 0
 372 396 373 373.333007812 375 354 c 0
 377 334.666992188 379.5 316.833007812 382.5 300.5 c 0
 385.5 284.166992188 388.666992188 268.833007812 392 254.5 c 0
 395.333007812 240.166992188 398.5 225 401.5 209 c 0
 404.5 193 407 175.166992188 409 155.5 c 0
 411 135.833007812 412 112.666992188 412 86 c 0
 412 40.6669921875 403.666992188 -1.3330078125 387 -40 c 0
 370.333007812 -78.6669921875 346.833007812 -114.666992188 316.5 -148 c 0
 286.166992188 -181.333007812 249.666992188 -211.833007812 207 -239.5 c 0
 164.333007812 -267.166992188 117.333007812 -292.333007812 66 -315 c 0
 34 -257 l 0
 60 -241 84.1669921875 -223 106.5 -203 c 0
 128.833007812 -183 148 -161 164 -137 c 0
 180 -113 192.666992188 -87.1669921875 202 -59.5 c 0
 211.333007812 -31.8330078125 216 -2.3330078125 216 29 c 0
 216 66.3330078125 213.833007812 97.6669921875 209.5 123 c 0
 205.166992188 148.333007812 200.5 172.5 195.5 195.5 c 0
 190.5 218.5 186 242.833007812 182 268.5 c 0
 178 294.166992188 176 326 176 364 c 0
 176 391.333007812 180.333007812 418.333007812 189 445 c 0
 197.666992188 471.666992188 210 496.833007812 226 520.5 c 0
 242 544.166992188 261.5 565.5 284.5 584.5 c 0
 307.5 603.5 333.333007812 619 362 631 c 0
 294.666992188 643.666992188 246.833007812 673.333007812 218.5 720 c 0
 190.166992188 766.666992188 176 827 176 901 c 0
 176 939.666992188 178 973.5 182 1002.5 c 0
 186 1031.5 190.5 1058.83300781 195.5 1084.5 c 0
 200.5 1110.16699219 205.166992188 1135.66699219 209.5 1161 c 0
 213.833007812 1186.33300781 216 1215 216 1247 c 0
 216 1281 213.666992188 1311.33300781 209 1338 c 0
 204.333007812 1364.66699219 195.5 1388.83300781 182.5 1410.5 c 0
 169.5 1432.16699219 151.833007812 1452.5 129.5 1471.5 c 0
 107.166992188 1490.5 78.6669921875 1509.66699219 44 1529 c 0
 72 1600 l 0
 130 1578 180.333007812 1554.66699219 223 1530 c 0
 265.666992188 1505.33300781 301 1478 329 1448 c 0
 357 1418 377.833007812 1384.33300781 391.5 1347 c 0
 405.166992188 1309.66699219 412 1267 412 1219 c 0
 412 1181 409.833007812 1148.66699219 405.5 1122 c 0
 401.166992188 1095.33300781 396.5 1069.5 391.5 1044.5 c 0
 386.5 1019.5 382 993.166992188 378 965.5 c 0
 374 937.833007812 372 904 372 864 c 0
 372 810 384.833007812 770 410.5 744 c 0
 436.166992188 718 473 705 521 705 c 0
 551 705 l 0
 554.333007812 705 558.333007812 705.333007812 563 706 c 0
 586 711 l 0
 603 646 l 0
EndSplineSet
EndChar

StartChar: asciitilde
Encoding: 97 126 97
Width: 999
VWidth: 1024
Flags: HW
LayerCount: 2
Fore
SplineSet
950 774 m 0
 936 741.333007812 918.333007812 707.5 897 672.5 c 0
 875.666992188 637.5 851.833007812 605.5 825.5 576.5 c 0
 799.166992188 547.5 770.833007812 523.666992188 740.5 505 c 0
 710.166992188 486.333007812 679 477 647 477 c 0
 619 477 589.333007812 485.333007812 558 502 c 0
 526.666992188 518.666992188 494.833007812 537 462.5 557 c 0
 430.166992188 577 398.166992188 595.333007812 366.5 612 c 0
 334.833007812 628.666992188 304.666992188 637 276 637 c 0
 243.333007812 637 213.166992188 624 185.5 598 c 0
 157.833007812 572 130 531 102 475 c 0
 49 502 l 0
 63 534.666992188 80.8330078125 568.5 102.5 603.5 c 0
 124.166992188 638.5 148.166992188 670.5 174.5 699.5 c 0
 200.833007812 728.5 229 752.333007812 259 771 c 0
 289 789.666992188 320 799 352 799 c 0
 382.666992188 799 414.166992188 790.666992188 446.5 774 c 0
 478.833007812 757.333007812 510.833007812 739 542.5 719 c 0
 574.166992188 699 605.166992188 680.666992188 635.5 664 c 0
 665.833007812 647.333007812 694.333007812 639 721 639 c 0
 753 639 783.333007812 652 812 678 c 0
 840.666992188 704 869 744.333007812 897 799 c 0
 950 774 l 0
EndSplineSet
EndChar

StartChar: inherent
Encoding: 98 -1 98
Width: 0
Flags: HW
AnchorPoint: "V" -571 1106 mark 0
LayerCount: 2
Back
SplineSet
-176.127929688 1386.49609375 m 0
 -176.127929688 1517.97753906 -263.143554688 1584.11816406 -309.248046875 1605.63183594 c 1
 -245.759765625 1644.54394531 l 1
 -152.956054688 1602.1171875 -63.48828125 1453.11523438 -63.48828125 1298.43164062 c 0
 -63.48828125 1131.03027344 -186.64453125 1005.56835938 -335.872070312 1005.56835938 c 2
 -571.391601562 1005.56835938 l 1
 -571.391601562 1193.984375 l 1
 -395.263671875 1193.984375 l 2
 -214.616210938 1193.984375 -176.127929688 1311.375 -176.127929688 1386.49609375 c 0
2.0478515625 4.095703125 m 1
 4.095703125 4.095703125 l 1
 2.0478515625 4.095703125 l 1
2.0478515625 4.095703125 m 1
 4.095703125 4.095703125 l 1
 2.0478515625 4.095703125 l 1
EndSplineSet
Fore
SplineSet
-176 1386 m 4
 -176 1517 -263 1584 -309 1606 c 5
 -246 1645 l 5
 -153 1603 -63 1453 -63 1298 c 4
 -63 1131 -187 1006 -336 1006 c 6
 -571 1006 l 5
 -571 1194 l 5
 -395 1194 l 6
 -214 1194 -176 1311 -176 1386 c 4
2 4 m 5
 4 4 l 5
 2 4 l 5
2 4 m 5
 4 4 l 5
 2 4 l 5
EndSplineSet
EndChar

StartChar: makewide
Encoding: 99 -1 99
Width: 792
Flags: HW
LayerCount: 2
Back
SplineSet
600.064453125 546.81640625 m 0
 600.064453125 788.467773438 379.115234375 929.788085938 129.024414062 970.751953125 c 1
 129.024414062 1187.83984375 l 1
 487.423828125 1187.83984375 l 1
 487.423828125 997.375976562 l 1
 448.51171875 997.375976562 l 1
 605.272460938 869.409179688 663.551757812 631.165039062 663.551757812 460.799804688 c 0
 663.551757812 173.845703125 520.333007812 -16.3837890625 256 -16.3837890625 c 0
 32.46875 -16.3837890625 -88.3955078125 182.809570312 -116.736328125 419.83984375 c 1
 -96.1328125 358.03125 -26.2861328125 206.84765625 274.431640625 206.84765625 c 0
 469.811523438 206.84765625 600.064453125 370.438476562 600.064453125 546.81640625 c 0
EndSplineSet
Fore
SplineSet
600 547 m 4
 600 789 379 930 129 971 c 5
 129 1188 l 5
 487 1188 l 5
 487 997 l 5
 449 997 l 5
 606 869 664 631 664 461 c 4
 664 174 520 -16 256 -16 c 4
 32 -16 -89 183 -117 420 c 5
 -96 358 -27 207 274 207 c 4
 469 207 600 371 600 547 c 4
EndSplineSet
EndChar

StartChar: shortrr
Encoding: 100 -1 100
Width: 1286
Flags: HW
LayerCount: 2
Back
SplineSet
90.1123046875 880.639648438 m 0
 90.1123046875 1021.80859375 178.251953125 1189.88769531 425.984375 1189.88769531 c 2
 1204.22363281 1189.88769531 l 1
 1204.22363281 991.232421875 l 1
 411.6484375 991.232421875 l 2
 257.720703125 991.232421875 186.368164062 886.724609375 186.368164062 802.81640625 c 0
 186.368164062 745.010742188 216.268554688 667.6484375 335.872070312 667.6484375 c 2
 688.127929688 667.6484375 l 1
 688.127929688 468.9921875 l 1
 358.400390625 468.9921875 l 2
 233.598632812 468.9921875 180.223632812 378.829101562 180.223632812 311.295898438 c 0
 180.223632812 240.754882812 230.12109375 178.17578125 319.48828125 178.17578125 c 0
 401.817382812 178.17578125 428.032226562 124.108398438 428.032226562 88.064453125 c 0
 428.032226562 53.6572265625 399.360351562 2.0478515625 327.6796875 2.0478515625 c 0
 236.72265625 2.0478515625 88.064453125 104.42578125 88.064453125 268.288085938 c 0
 88.064453125 450.150390625 201.884765625 529.176757812 331.776367188 571.391601562 c 1
 149.087890625 622.673828125 90.1123046875 772.752929688 90.1123046875 880.639648438 c 0
EndSplineSet
Fore
SplineSet
90 881 m 4
 90 1022 178 1190 426 1190 c 6
 1204 1190 l 5
 1204 991 l 5
 412 991 l 6
 258 991 186 887 186 803 c 4
 186 745 216 668 336 668 c 6
 688 668 l 5
 688 469 l 5
 358 469 l 6
 233 469 180 379 180 311 c 4
 180 240 230 178 319 178 c 4
 401 178 428 124 428 88 c 4
 428 54 400 2 328 2 c 4
 237 2 88 104 88 268 c 4
 88 450 202 529 332 571 c 5
 149 622 90 773 90 881 c 4
EndSplineSet
EndChar

StartChar: anusvara
Encoding: 101 3202 101
Width: 1034
Flags: HW
LayerCount: 2
Back
SplineSet
516.095703125 1187.83984375 m 4
 825.931640625 1187.83984375 966.078125 940.099609375 968.704101562 604.16015625 c 5
 968.704101562 194.58203125 768.26171875 -24.576171875 528.383789062 -24.576171875 c 4
 275.198242188 -24.576171875 86.015625 199.866210938 86.015625 557.055664062 c 4
 86.015625 886.791992188 216.078125 1187.83984375 516.095703125 1187.83984375 c 4
538.624023438 182.272460938 m 260
 766.217773438 182.272460938 911.888671875 336.032226562 909.311523438 575.48828125 c 5
 909.311523438 774.064453125 762.130859375 985.087890625 526.3359375 985.087890625 c 4
 299.0078125 985.087890625 147.456054688 795.486328125 147.456054688 571.391601562 c 4
 147.456054688 330.469726562 324.390625 182.272460938 538.624023438 182.272460938 c 260
EndSplineSet
Fore
SplineSet
516 1188 m 0
 826 1188 966 940 969 604 c 0
 969 194 768 -25 528 -25 c 0
 275 -25 86 200 86 557 c 0
 86 887 216 1188 516 1188 c 0
539 182 m 256
 767 182 912 336 909 575 c 0
 909 774 762 985 526 985 c 0
 299 985 147 795 147 571 c 0
 147 330 325 182 539 182 c 256
EndSplineSet
EndChar

StartChar: u0C83
Encoding: 102 3203 102
Width: 575
Flags: HW
LayerCount: 2
Back
SplineSet
280.576171875 1183.74414062 m 0
 444.416015625 1183.74414062 485.375976562 1050.21484375 485.375976562 944.127929688 c 0
 485.375976562 751.538085938 371.09765625 700.416015625 294.912109375 700.416015625 c 0
 191.78125 700.416015625 83.9677734375 779.4609375 83.9677734375 944.127929688 c 0
 83.9677734375 1066.79101562 145.42578125 1183.74414062 280.576171875 1183.74414062 c 0
280.576171875 468.9921875 m 0
 444.416015625 468.9921875 485.375976562 334.233398438 485.375976562 227.328125 c 0
 485.375976562 32.51171875 371.09765625 -10.240234375 294.912109375 -10.240234375 c 0
 204.543945312 -10.240234375 83.9677734375 50.5380859375 83.9677734375 229.375976562 c 0
 83.9677734375 352.0390625 145.42578125 468.9921875 280.576171875 468.9921875 c 0
286.719726562 833.536132812 m 0
 371.375976562 833.536132812 452.608398438 866.1875 452.608398438 944.127929688 c 0
 452.608398438 1017.87890625 366.41015625 1054.71972656 284.671875 1054.71972656 c 0
 203.04296875 1054.71972656 124.927734375 1019.59472656 124.927734375 944.127929688 c 256
 124.927734375 855.654296875 224.767578125 833.536132812 286.719726562 833.536132812 c 0
286.719726562 120.83203125 m 0
 371.3125 120.83203125 452.608398438 151.30859375 452.608398438 229.375976562 c 0
 452.608398438 303.126953125 366.41015625 339.967773438 284.671875 339.967773438 c 0
 203.04296875 339.967773438 124.927734375 304.842773438 124.927734375 229.375976562 c 256
 124.927734375 153.025390625 206.225585938 120.83203125 286.719726562 120.83203125 c 0
EndSplineSet
Fore
SplineSet
281 1184 m 4
 445 1184 485 1050 485 944 c 4
 485 751 371 700 295 700 c 4
 192 700 84 779 84 944 c 4
 84 1067 146 1184 281 1184 c 4
281 469 m 4
 445 469 485 334 485 227 c 4
 485 32 371 -10 295 -10 c 4
 205 -10 84 50 84 229 c 4
 84 352 146 469 281 469 c 4
287 834 m 4
 372 834 453 866 453 944 c 4
 453 1018 367 1055 285 1055 c 4
 203 1055 125 1019 125 944 c 260
 125 856 225 834 287 834 c 4
287 121 m 4
 372 121 453 151 453 229 c 4
 453 303 367 340 285 340 c 4
 203 340 125 304 125 229 c 260
 125 153 207 121 287 121 c 4
EndSplineSet
EndChar

StartChar: avowel
Encoding: 103 3205 103
Width: 1591
Flags: HW
HStem: -27 207<542 1035> 745 111<696 1042 1090 1443> 1061 156<281 501>
VStem: 90 57<538 857> 1452 53<593 745>
AnchorPoint: "Nukta" 819 -102 basechar 0
LayerCount: 2
Back
SplineSet
1198.08007812 1216.51171875 m 0
 1413.98632812 1216.51171875 1500.47167969 948.506835938 1505.28027344 698.368164062 c 1
 1505.28027344 231.287109375 1178.05273438 -26.6240234375 794.624023438 -26.6240234375 c 0
 413.825195312 -26.6240234375 90.1123046875 236.500976562 90.1123046875 727.040039062 c 0
 90.1123046875 983.416992188 210.208984375 1216.51171875 421.887695312 1216.51171875 c 0
 562.790039062 1216.51171875 598.015625 1088 598.015625 997.375976562 c 0
 598.015625 918.185546875 578.90234375 848.213867188 540.671875 787.456054688 c 0
 465.251953125 667.592773438 256.9765625 625.669921875 192.51171875 901.120117188 c 1
 173.2578125 862.609375 147.456054688 772.419921875 147.456054688 714.751953125 c 0
 147.456054688 381.413085938 403.138671875 180.223632812 763.904296875 180.223632812 c 0
 1151.09863281 180.223632812 1452.03222656 405.50390625 1452.03222656 745.471679688 c 1
 696.3203125 745.471679688 l 1
 696.3203125 856.064453125 l 1
 1042.43164062 856.064453125 l 1
 917.50390625 987.135742188 1023.87304688 1216.51171875 1198.08007812 1216.51171875 c 0
1392.63964844 942.080078125 m 0
 1291.26367188 1072.12792969 1168.38378906 1079.29589844 1111.04003906 1018.87988281 c 0
 1073.15429688 978.96484375 1068.03222656 861.18359375 1141.75976562 857.087890625 c 1
 1442.81640625 856.064453125 l 1
 1431.55175781 890.879882812 1411.15625 918.327148438 1392.63964844 942.080078125 c 0
407.551757812 1060.86425781 m 1
 308.01953125 1060.86425781 266.569335938 1006.76367188 241.6640625 972.799804688 c 1
 247.125976562 944.127929688 253.26953125 923.6484375 260.095703125 911.360351562 c 0
 310.943359375 820.962890625 442.69140625 837.560546875 489.471679688 876.543945312 c 0
 564.740234375 939.270507812 518.553710938 1056.59179688 407.551757812 1060.86425781 c 1
EndSplineSet
Fore
SplineSet
1198 1217 m 0
 1414 1217 1500 948 1505 698 c 1
 1505 231 1178 -27 795 -27 c 0
 414 -27 90 236 90 727 c 0
 90 983 210 1217 422 1217 c 0
 563 1217 598 1088 598 997 c 0
 598 918 579 848 541 787 c 0
 466 667 257 626 193 901 c 1
 174 862 147 773 147 715 c 0
 147 382 403 180 764 180 c 0
 1151 180 1452 405 1452 745 c 1
 696 745 l 1
 696 856 l 1
 1042 856 l 1
 917 987 1024 1217 1198 1217 c 0
1393 942 m 0
 1292 1072 1168 1079 1111 1019 c 0
 1073 979 1068 861 1142 857 c 1
 1443 856 l 1
 1432 891 1412 918 1393 942 c 0
408 1061 m 1
 308 1061 267 1007 242 973 c 1
 247 944 253 923 260 911 c 0
 311 821 442 838 489 877 c 0
 564 940 519 1057 408 1061 c 1
EndSplineSet
EndChar

StartChar: aavowel
Encoding: 104 3206 104
Width: 1591
Flags: HW
AnchorPoint: "Nukta" 819 -102 basechar 0
LayerCount: 2
Back
SplineSet
796.671875 176.127929688 m 0
 1090.14257812 176.127929688 1351.6796875 301.465820312 1351.6796875 489.471679688 c 0
 1351.6796875 591.461914062 1306.484375 645.98828125 1296.38378906 659.456054688 c 1
 1264.48242188 647.856445312 1172.453125 647.16796875 1120.25585938 647.16796875 c 2
 681.984375 647.16796875 l 1
 681.984375 858.112304688 l 1
 1140.73632812 858.112304688 l 1
 1051.46972656 976.068359375 1047.234375 1234.94433594 1261.56835938 1234.94433594 c 0
 1585.8671875 1234.94433594 1571.56347656 795.893554688 1353.72753906 684.032226562 c 1
 1386.0859375 651.673828125 1429.54296875 571.947265625 1427.45605469 434.17578125 c 0
 1427.45605469 148.390625 1117.53027344 -38.912109375 792.576171875 -38.912109375 c 0
 598.698242188 -38.912109375 438.272460938 19.1142578125 311.295898438 135.16796875 c 0
 162.474609375 270.3359375 88.064453125 465.578125 88.064453125 720.896484375 c 0
 88.064453125 972.5703125 199.53515625 1222.65625 405.50390625 1222.65625 c 0
 562.790039062 1222.65625 602.112304688 1078.88671875 602.112304688 985.087890625 c 0
 602.112304688 839.862304688 519.952148438 679.935546875 376.83203125 679.935546875 c 0
 265.420898438 679.935546875 214.483398438 777.4765625 204.799804688 888.83203125 c 1
 169.029296875 839.647460938 157.696289062 794.624023438 151.551757812 729.087890625 c 0
 122.989257812 424.418945312 375.193359375 176.127929688 796.671875 176.127929688 c 0
1445.88769531 946.17578125 m 0
 1494.67773438 1060.02050781 1358.40136719 1175.40039062 1245.18359375 1093.63183594 c 0
 1223.97070312 1078.31054688 1175.55175781 1020.92773438 1226.75195312 858.112304688 c 1
 1255.42382812 858.112304688 l 2
 1295.36035156 858.112304688 1411.1640625 865.153320312 1445.88769531 946.17578125 c 0
411.6484375 1073.15234375 m 0
 342.001953125 1071.63867188 289.423828125 1023.95117188 270.3359375 991.232421875 c 1
 255.381835938 924.772460938 292.317382812 838.7109375 389.120117188 839.6796875 c 0
 473.309570312 840.521484375 520.192382812 898.295898438 520.192382812 960.51171875 c 0
 520.192382812 1026.48242188 458.751953125 1074.17578125 411.6484375 1073.15234375 c 0
EndSplineSet
Fore
SplineSet
797 176 m 0
 1090 176 1352 301 1352 489 c 0
 1352 591 1306 646 1296 659 c 1
 1264 647 1172 647 1120 647 c 2
 682 647 l 1
 682 858 l 1
 1141 858 l 1
 1052 976 1048 1235 1262 1235 c 0
 1586 1235 1572 796 1354 684 c 1
 1386 652 1429 572 1427 434 c 0
 1427 148 1118 -39 793 -39 c 0
 599 -39 438 19 311 135 c 0
 162 270 88 466 88 721 c 0
 88 973 200 1223 406 1223 c 0
 563 1223 602 1079 602 985 c 0
 602 840 520 680 377 680 c 0
 266 680 215 778 205 889 c 1
 169 840 158 795 152 729 c 0
 123 424 376 176 797 176 c 0
1446 946 m 0
 1495 1060 1358 1176 1245 1094 c 0
 1224 1079 1176 1021 1227 858 c 1
 1255 858 l 2
 1295 858 1411 865 1446 946 c 0
412 1073 m 0
 342 1071 289 1024 270 991 c 1
 255 925 292 839 389 840 c 0
 473 841 520 899 520 961 c 0
 520 1027 459 1074 412 1073 c 0
EndSplineSet
EndChar

StartChar: ivowel
Encoding: 105 3207 105
Width: 1556
Flags: HW
AnchorPoint: "Nukta" 819 -102 basechar 0
LayerCount: 2
Back
SplineSet
1378.30371094 487.423828125 m 1
 1399.39453125 381.97265625 1300.48046875 264.743164062 1300.48046875 176.127929688 c 0
 1300.48046875 135.578125 1332.83886719 108.543945312 1372.16015625 108.543945312 c 0
 1412.70996094 108.543945312 1442.52734375 137.243164062 1439.74414062 206.84765625 c 1
 1478.65625 188.416015625 l 1
 1478.65625 137.215820312 l 2
 1478.65625 48.69140625 1411.7890625 -4.095703125 1329.15234375 -4.095703125 c 0
 1264.43554688 -4.095703125 1167.36035156 27.8525390625 1167.36035156 155.6484375 c 0
 1167.36035156 201.932617188 1247.52441406 356.655273438 1251.328125 387.072265625 c 1
 1163.26367188 336.086914062 1092.40332031 325.631835938 1052.671875 325.631835938 c 0
 872.448242188 325.631835938 817.15234375 423.935546875 817.15234375 489.471679688 c 0
 817.15234375 558.28515625 878.28515625 661.50390625 1069.05566406 661.50390625 c 0
 1176.37304688 661.50390625 1258.16601562 625.798828125 1331.20019531 563.200195312 c 1
 1381.6484375 577.212890625 1419.26367188 659.874023438 1419.26367188 735.232421875 c 0
 1419.26367188 888.83203125 1283.39550781 991.232421875 1134.59179688 991.232421875 c 0
 1048.52636719 991.232421875 899.092773438 958.495117188 776.192382812 763.904296875 c 1
 736.673828125 873.9921875 658.970703125 991.232421875 452.608398438 991.232421875 c 0
 277.455078125 991.232421875 172.032226562 880.471679688 172.032226562 782.3359375 c 0
 172.032226562 720.077148438 217.087890625 626.688476562 436.223632812 626.688476562 c 1
 452.34765625 566.22265625 451.294921875 512 370.688476562 512 c 0
 185.498046875 512 98.3037109375 671.479492188 98.3037109375 839.6796875 c 0
 98.3037109375 1038.63671875 215.678710938 1200.12792969 434.17578125 1200.12792969 c 0
 641.842773438 1200.12792969 743.571289062 1004.12792969 780.288085938 933.887695312 c 1
 900.892578125 1138.24609375 1062.828125 1200.12792969 1159.16796875 1200.12792969 c 0
 1303.80175781 1200.12792969 1488.04003906 1087.31640625 1484.79980469 792.576171875 c 0
 1484.79980469 644.47265625 1441.57324219 562.741210938 1378.30371094 487.423828125 c 1
1101.82421875 602.112304688 m 0
 1011.71191406 602.112304688 966.65625 548.044921875 966.65625 512 c 0
 966.65625 461.482421875 1008.29785156 436.223632812 1091.58398438 436.223632812 c 0
 1173.12890625 436.223632812 1230.72753906 471.822265625 1277.95214844 516.095703125 c 1
 1243.03320312 571.965820312 1181.3046875 602.112304688 1101.82421875 602.112304688 c 0
EndSplineSet
Fore
SplineSet
1378 487 m 5
 1399 382 1300 265 1300 176 c 4
 1300 135 1333 109 1372 109 c 4
 1413 109 1443 137 1440 207 c 5
 1479 188 l 5
 1479 137 l 6
 1479 48 1412 -4 1329 -4 c 4
 1264 -4 1167 28 1167 156 c 4
 1167 202 1247 357 1251 387 c 5
 1163 336 1093 326 1053 326 c 4
 873 326 817 423 817 489 c 4
 817 558 878 662 1069 662 c 4
 1176 662 1258 626 1331 563 c 5
 1381 577 1419 660 1419 735 c 4
 1419 889 1284 991 1135 991 c 4
 1049 991 899 959 776 764 c 5
 736 874 659 991 453 991 c 4
 278 991 172 880 172 782 c 4
 172 720 217 627 436 627 c 5
 452 567 452 512 371 512 c 4
 186 512 98 672 98 840 c 4
 98 1039 216 1200 434 1200 c 4
 642 1200 743 1004 780 934 c 5
 901 1138 1063 1200 1159 1200 c 4
 1304 1200 1488 1088 1485 793 c 4
 1485 645 1441 562 1378 487 c 5
1102 602 m 4
 1012 602 967 548 967 512 c 4
 967 461 1009 436 1092 436 c 4
 1174 436 1231 472 1278 516 c 5
 1243 572 1181 602 1102 602 c 4
EndSplineSet
EndChar

